SplineFontDB: 3.0
FontName: Hariphunchai
FullName: Hariphunchai
FamilyName: Hariphunchai
Weight: Medium
Copyright: Created by Edward Trager with FontForge 2.0 (http://fontforge.sf.net)
UComments: "2012-6-14: Created."
Version: 001.000
ItalicAngle: 0
UnderlinePosition: -100
UnderlineWidth: 50
Ascent: 650
Descent: 350
InvalidEm: 0
LayerCount: 3
Layer: 0 0 "Back" 1
Layer: 1 0 "Fore" 0
Layer: 2 0 "Back 2" 1
XUID: [1021 905 1981438309 2329242]
StyleMap: 0x0000
FSType: 0
OS2Version: 0
OS2_WeightWidthSlopeOnly: 0
OS2_UseTypoMetrics: 1
CreationTime: 1339689063
ModificationTime: 1558115609
OS2TypoAscent: 0
OS2TypoAOffset: 1
OS2TypoDescent: 0
OS2TypoDOffset: 1
OS2TypoLinegap: 90
OS2WinAscent: 0
OS2WinAOffset: 1
OS2WinDescent: 0
OS2WinDOffset: 1
HheadAscent: 0
HheadAOffset: 1
HheadDescent: 0
HheadDOffset: 1
OS2Vendor: 'PfEd'
Lookup: 4 8 0 "IgnoreCombiningMarksSubstitutions" { "Medial_La_Subtable"  "LowTa_LowTha_Subtable"  } ['ccmp' ('DFLT' <'dflt' > 'lana' <'dflt' > ) ]
Lookup: 4 0 0 "DontIgnoreCombiningMarksSubstitutions" { "Nam_Water_Subtable"  "PhothiSubtable"  } ['ccmp' ('DFLT' <'dflt' > 'lana' <'dflt' > ) ]
Lookup: 4 0 0 "VowelAndToneAboveLigatures" { "VowelAndToneAboveLigatures subtable"  } ['ccmp' ('lana' <'dflt' > 'DFLT' <'dflt' > ) ]
Lookup: 4 8 0 "NaLigatures" { "PrioritizedHoSubNo"  "NaLigatures subtable"  } ['ccmp' ('lana' <'dflt' > 'DFLT' <'dflt' > ) ]
Lookup: 4 0 0 "SubjoinedConsonantsWithVowels" { "SubjoinedConsonantsWithVowels subtable"  } ['ccmp' ('lana' <'dflt' > 'DFLT' <'dflt' > ) ]
Lookup: 4 12 0 "SubjoinedConsonants" { "SubjoinedConsonants subtable"  } ['ccmp' ('lana' <'dflt' > 'DFLT' <'dflt' > ) ]
Lookup: 1 0 0 "prefPreBaseFormsinlanalookup0" { "prefPreBaseFormsinlanalookup0 subtable"  } ['pref' ('lana' <'dflt' > ) ]
Lookup: 4 8 0 "IgnoreCombiningMarksSubstitutions-0" { "IgnoreCombiningMarksSubstitutions-0 subtable"  } ['ccmp' ('lana' <'dflt' > 'DFLT' <'dflt' > ) ]

StartChar: uni1A20
Encoding: 6688 6688 0
GlifName: uni1A_20
Width: 550
VWidth: 0
GlyphClass: 2
Flags: HMW
AnchorPoint: "Bottom_Sara_U" 363 -45 basechar 0
AnchorPoint: "Bottom_Sara_UU" 344 -45 basechar 0
AnchorPoint: "BottomSubjoinedConsonant" 339 -45 basechar 0
AnchorPoint: "BottomWithRightVerticalStem" 514 -45 basechar 0
AnchorPoint: "TopPositioningForSara_I" 360 352 basechar 0
AnchorPoint: "TopRightAlignedMarks" 490 352 basechar 0
AnchorPoint: "TopPositioningForMaiKang" 361 352 basechar 0
AnchorPoint: "TopPositioningForMaiEekMaiKoo" 361 352 basechar 0
AnchorPoint: "TopCenteredOnCenter" 275 352 basechar 0
AnchorPoint: "TopSara_II" 358 352 basechar 0
LayerCount: 3
Fore
SplineSet
191 310 m 0
 214 310 238 301 258 285 c 0
 264 280 270 275 275 269 c 1
 280 275 286 280 292 285 c 0
 312 301 336 310 359 310 c 0
 439 310 515 245 515 150 c 0
 515 85 485 43 453 24 c 0
 439 16 444 9 472 16 c 1
 473 14 472 14 472 14 c 1
 472 14 440 0 416 0 c 0
 402 0 391 4 389 19 c 0
 389 20 389 20 389 21 c 0
 389 36 409 43 430 57 c 0
 452 72 475 97 475 150 c 0
 475 223 417 270 359 270 c 0
 348 270 330 264 317 253 c 0
 304 242 295 229 295 215 c 2
 295 20 l 1
 295 20 297 0 275 0 c 0
 253 0 255 20 255 20 c 1
 255 215 l 2
 255 230 247 244 234 254 c 0
 221 264 202 270 191 270 c 0
 133 270 75 223 75 150 c 0
 75 93 97 69 119 55 c 0
 120 54 121 54 122 53 c 1
 127 70 144 82 162 82 c 0
 185 82 203 63 203 40 c 0
 203 17 185 0 162 0 c 0
 127 0 117 9 98 21 c 0
 67 41 35 82 35 150 c 0
 35 245 111 310 191 310 c 0
162 56 m 0
 153 56 146 49 146 40 c 0
 146 31 153 25 162 25 c 0
 171 25 177 31 177 40 c 0
 177 49 171 56 162 56 c 0
EndSplineSet
Validated: 1
EndChar

StartChar: uni1A21
Encoding: 6689 6689 1
GlifName: uni1A_21
Width: 442
VWidth: 0
GlyphClass: 2
Flags: HMW
AnchorPoint: "Bottom_Sara_U" 317 -45 basechar 0
AnchorPoint: "Bottom_Sara_UU" 298 -45 basechar 0
AnchorPoint: "BottomSubjoinedConsonant" 219 -44 basechar 0
AnchorPoint: "BottomWithRightVerticalStem" 419 -45 basechar 0
AnchorPoint: "TopPositioningForSara_I" 239 352 basechar 0
AnchorPoint: "TopRightAlignedMarks" 365 352 basechar 0
AnchorPoint: "TopPositioningForMaiKang" 292 353 basechar 0
AnchorPoint: "TopPositioningForMaiEekMaiKoo" 292 353 basechar 0
AnchorPoint: "TopCenteredOnCenter" 208 352 basechar 0
AnchorPoint: "TopSara_II" 237 352 basechar 0
LayerCount: 3
Fore
SplineSet
208 222 m 0
 180 222 179 273 123 273 c 0
 105 273 93 270 84 261 c 1
 103 257 118 241 118 221 c 0
 118 198 99 180 76 180 c 0
 53 180 35 198 35 221 c 0
 35 259 57 310 123 310 c 0
 160 310 185 295 200 280 c 0
 203 277 207 276 209 273 c 1
 217 281 l 2
 232 295 257 310 292 310 c 0
 382 310 404 227 404 175 c 0
 404 140 398 108 383 81 c 1
 418 45 431 11 431 -36 c 0
 431 -96 399 -133 399 -133 c 1
 396 -130 l 1
 396 -130 408 -109 408 -72 c 0
 408 -14 387 21 361 50 c 1
 317 7 257 -10 197 -10 c 0
 155 -10 85 -8 51 30 c 0
 41 41 35 56 35 72 c 0
 35 103 62 159 197 159 c 0
 258 159 312 138 352 109 c 1
 360 128 364 150 364 175 c 0
 364 212 348 247 337 255 c 0
 325 265 308 270 291 270 c 0
 236 270 238 222 208 222 c 0
76 236 m 0
 67 236 61 230 61 221 c 0
 61 212 67 206 76 206 c 0
 85 206 92 212 92 221 c 0
 92 230 85 236 76 236 c 0
75 72 m 0
 75 55 95 30 196 30 c 0
 245 30 296 40 332 78 c 1
 299 102 251 121 196 121 c 0
 153 121 75 109 75 72 c 0
EndSplineSet
Validated: 1
EndChar

StartChar: uni1A22
Encoding: 6690 6690 2
GlifName: uni1A_22
Width: 437
VWidth: 0
GlyphClass: 2
Flags: HMW
AnchorPoint: "Bottom_Sara_UU" 296 -46 basechar 0
AnchorPoint: "Bottom_Sara_U" 316 -45 basechar 0
AnchorPoint: "BottomSubjoinedConsonant" 216 -45 basechar 0
AnchorPoint: "BottomWithRightVerticalStem" 419 -46 basechar 0
AnchorPoint: "TopPositioningForSara_I" 250 352 basechar 0
AnchorPoint: "TopPositioningForMaiKang" 288 352 basechar 0
AnchorPoint: "TopPositioningForMaiEekMaiKoo" 288 352 basechar 0
AnchorPoint: "TopRightAlignedMarks" 362 338 basechar 0
AnchorPoint: "TopCenteredOnCenter" 204 352 basechar 0
AnchorPoint: "TopSara_II" 264 352 basechar 0
LayerCount: 3
Fore
SplineSet
40 498 m 0
 40 593 165 629 243 629 c 0
 354 629 420 595 478 536 c 1
 475 534 l 1
 406 582 341 594 279 594 c 0
 194 594 162 579 138 566 c 0
 110 551 80 534 80 497 c 0
 80 433 79 348 79 301 c 1
 91 307 105 310 122 310 c 0
 160 310 192 293 208 270 c 1
 212 274 236 310 288 310 c 0
 289 310 290 310 291 310 c 0
 335 310 399 289 403 175 c 1
 403 168 l 2
 403 136 396 106 382 81 c 1
 411 51 432 10 432 -37 c 0
 432 -97 398 -133 398 -133 c 1
 396 -130 l 1
 396 -130 408 -109 408 -73 c 0
 408 -36 395 14 363 50 c 1
 319 7 256 -9 196 -10 c 0
 192 -10 188 -10 184 -10 c 0
 74 -10 35 32 35 72 c 1
 37 127 100 159 187 159 c 2
 197 159 l 1
 258 157 311 138 351 109 c 1
 358 126 363 147 363 169 c 0
 363 171 363 173 363 175 c 0
 361 229 344 270 291 270 c 0
 233 270 239 222 207 222 c 0
 179 222 180 271 123 273 c 1
 118 273 l 2
 103 273 91 269 83 261 c 1
 102 257 117 241 117 221 c 0
 117 198 99 180 76 180 c 0
 53 180 37 198 35 221 c 1
 35 229 l 2
 35 238 36 247 39 255 c 1
 39 262 40 419 40 498 c 0
76 236 m 0
 67 236 61 230 61 221 c 0
 61 212 67 206 76 206 c 0
 85 206 91 212 91 221 c 0
 91 230 85 236 76 236 c 0
75 72 m 0
 75 38 140 30 180 30 c 2
 196 30 l 1
 245 32 296 40 332 78 c 1
 299 102 250 119 195 121 c 1
 184 121 l 2
 160 121 75 111 75 72 c 0
EndSplineSet
Validated: 1
EndChar

StartChar: uni1A23
Encoding: 6691 6691 3
GlifName: uni1A_23
Width: 470
VWidth: 0
GlyphClass: 2
Flags: HMW
AnchorPoint: "Bottom_Sara_U" 275 -45 basechar 0
AnchorPoint: "Bottom_Sara_UU" 258 -45 basechar 0
AnchorPoint: "BottomSubjoinedConsonant" 239 -45 basechar 0
AnchorPoint: "BottomWithRightVerticalStem" 435 -45 basechar 0
AnchorPoint: "TopCenteredOnCenter" 234 352 basechar 0
AnchorPoint: "TopPositioningForSara_I" 274 352 basechar 0
AnchorPoint: "TopSara_II" 260 352 basechar 0
AnchorPoint: "TopRightAlignedMarks" 402 352 basechar 0
AnchorPoint: "TopPositioningForMaiKang" 296 352 basechar 0
AnchorPoint: "TopPositioningForMaiEekMaiKoo" 296 352 basechar 0
LayerCount: 3
Fore
SplineSet
148 0 m 0
 98 0 35 80 35 151 c 0
 35 237 128 310 235 310 c 0
 343 310 435 241 435 150 c 0
 435 101 408 58 366 29 c 2
 354 21 l 1
 335 11 349 7 371 11 c 1
 371 9 372 9 372 9 c 1
 372 9 345 0 322 0 c 0
 305 0 289 5 289 22 c 0
 289 38 310 43 334 56 c 0
 369 73 395 112 395 150 c 0
 395 215 325 271 235 271 c 0
 145 271 75 215 75 150 c 0
 75 122 81 89 111 57 c 1
 117 72 132 82 149 82 c 0
 172 82 190 64 190 41 c 0
 190 18 170 0 151 0 c 0
 148 0 l 0
149 56 m 0
 140 56 134 50 134 41 c 0
 134 32 140 26 149 26 c 0
 158 26 164 32 164 41 c 0
 164 50 158 56 149 56 c 0
EndSplineSet
Validated: 1
EndChar

StartChar: uni1A24
Encoding: 6692 6692 4
GlifName: uni1A_24
Width: 471
VWidth: 0
GlyphClass: 2
Flags: HMW
AnchorPoint: "Bottom_Sara_U" 275 -45 basechar 0
AnchorPoint: "Bottom_Sara_UU" 258 -46 basechar 0
AnchorPoint: "BottomSubjoinedConsonant" 239 -45 basechar 0
AnchorPoint: "BottomWithRightVerticalStem" 435 -44 basechar 0
AnchorPoint: "TopCenteredOnCenter" 234 352 basechar 0
AnchorPoint: "TopPositioningForSara_I" 274 352 basechar 0
AnchorPoint: "TopSara_II" 260 352 basechar 0
AnchorPoint: "TopRightAlignedMarks" 402 352 basechar 0
AnchorPoint: "TopPositioningForMaiKang" 296 352 basechar 0
AnchorPoint: "TopPositioningForMaiEekMaiKoo" 296 352 basechar 0
LayerCount: 3
Fore
SplineSet
38 499 m 0
 38 586 149 627 223 630 c 0
 225 630 227 630 229 630 c 0
 364 630 446 552 446 552 c 1
 445 550 l 1
 445 550 352 599 244 599 c 0
 146 599 78 552 78 499 c 0
 78 370 75 282 73 243 c 1
 110 283 169 310 235 310 c 0
 343 310 435 241 435 150 c 0
 435 101 408 58 366 29 c 2
 354 21 l 1
 335 11 349 7 371 11 c 1
 371 9 372 9 372 9 c 1
 372 9 345 0 322 0 c 0
 305 0 289 5 289 22 c 0
 289 38 310 43 334 56 c 1
 369 73 395 112 395 150 c 0
 395 215 325 271 235 271 c 0
 145 271 75 215 75 150 c 0
 75 122 81 89 111 57 c 1
 117 72 132 82 149 82 c 0
 172 82 190 64 190 41 c 0
 190 18 170 0 151 0 c 2
 145 0 l 2
 95 0 36 80 35 150 c 0
 35 159 35 167 37 175 c 1
 37 184 38 420 38 499 c 0
149 56 m 0
 140 56 134 50 134 41 c 0
 134 32 140 26 149 26 c 0
 158 26 164 32 164 41 c 0
 164 50 158 56 149 56 c 0
EndSplineSet
Validated: 1
EndChar

StartChar: uni1A25
Encoding: 6693 6693 5
GlifName: uni1A_25
Width: 575
VWidth: 0
GlyphClass: 2
Flags: HMW
AnchorPoint: "Bottom_Sara_U" 421 -45 basechar 0
AnchorPoint: "Bottom_Sara_UU" 404 -45 basechar 0
AnchorPoint: "BottomSubjoinedConsonant" 344 -45 basechar 0
AnchorPoint: "BottomWithRightVerticalStem" 540 -45 basechar 0
AnchorPoint: "TopCenteredOnCenter" 330 352 basechar 0
AnchorPoint: "TopPositioningForSara_I" 385 353 basechar 0
AnchorPoint: "TopSara_II" 371 353 basechar 0
AnchorPoint: "TopRightAlignedMarks" 513 353 basechar 0
AnchorPoint: "TopPositioningForMaiKang" 407 353 basechar 0
AnchorPoint: "TopPositioningForMaiEekMaiKoo" 407 353 basechar 0
LayerCount: 3
Fore
SplineSet
35 232 m 0
 35 261 49 308 109 308 c 0
 111 308 112 308 114 308 c 0
 136 308 151 294 161 279 c 0
 176 255 168 279 195 299 c 0
 203 305 213 311 226 311 c 0
 257 311 291 284 291 239 c 1
 288 158 156 139 102 101 c 0
 85 89 77 80 77 68 c 0
 77 38 104 30 115 30 c 0
 144 30 149 84 191 84 c 0
 230 84 231 30 263 30 c 0
 316 30 370 83 370 148 c 0
 370 149 370 149 370 150 c 0
 370 245 308 254 308 281 c 0
 308 287 313 300 330 300 c 0
 355 300 391 272 391 272 c 1
 390 270 l 1
 365 283 357 279 369 267 c 0
 401 235 410 182 410 146 c 0
 410 106 395 70 372 43 c 1
 384 34 399 30 411 30 c 0
 463 30 500 82 500 147 c 0
 500 148 500 149 500 150 c 0
 500 245 438 254 438 281 c 0
 438 289 445 300 459 300 c 0
 484 300 521 272 521 272 c 1
 520 270 l 1
 495 283 487 279 499 267 c 0
 531 235 540 182 540 147 c 0
 540 60 489 -10 411 -10 c 0
 386 -10 361 1 343 16 c 1
 320 -1 292 -10 263 -10 c 0
 233 -10 213 11 202 26 c 0
 187 48 189 48 173 24 c 0
 163 8 144 -10 116 -10 c 0
 115 -10 115 -10 114 -10 c 0
 74 -10 37 23 37 68 c 0
 37 166 251 177 251 239 c 0
 251 257 242 271 226 271 c 0
 213 271 204 226 167 226 c 0
 134 226 133 271 100 271 c 0
 93 271 86 269 80 265 c 1
 101 263 117 245 117 224 c 0
 117 201 99 183 76 183 c 0
 53 183 35 202 35 225 c 0
 35 227 35 230 35 232 c 0
76 239 m 0
 67 239 61 233 61 224 c 0
 61 215 67 209 76 209 c 0
 85 209 91 215 91 224 c 0
 91 233 85 239 76 239 c 0
EndSplineSet
Validated: 33
EndChar

StartChar: uni1A26
Encoding: 6694 6694 6
GlifName: uni1A_26
Width: 489
VWidth: 0
GlyphClass: 2
Flags: HMW
AnchorPoint: "Bottom_Sara_U" 257 -44 basechar 0
AnchorPoint: "Bottom_Sara_UU" 232 -45 basechar 0
AnchorPoint: "BottomSubjoinedConsonant" 238 -44 basechar 0
AnchorPoint: "BottomWithRightVerticalStem" 442 -45 basechar 0
AnchorPoint: "TopCenteredOnCenter" 240 352 basechar 0
AnchorPoint: "TopPositioningForSara_I" 302 352 basechar 0
AnchorPoint: "TopSara_II" 288 352 basechar 0
AnchorPoint: "TopRightAlignedMarks" 430 352 basechar 0
AnchorPoint: "TopPositioningForMaiKang" 324 352 basechar 0
AnchorPoint: "TopPositioningForMaiEekMaiKoo" 324 352 basechar 0
LayerCount: 3
Fore
SplineSet
318 -142 m 1
 321 -138 415 -78 417 77 c 1
 409 186 355 263 242 270 c 1
 193 269 152 258 119 236 c 1
 102 223 89 207 80 187 c 1
 74 176 115 177 118 146 c 0
 122 116 76 76 76 56 c 0
 76 47 75 38 88 33 c 0
 130 17 137 123 232 123 c 0
 275 123 297 89 297 66 c 0
 297 51 293 39 285 32 c 0
 266 15 223 10 217 53 c 1
 220 55 l 1
 228 32 251 43 253 46 c 0
 255 49 257 51 256 62 c 0
 256 66 253 80 231 80 c 0
 181 80 175 35 147 12 c 0
 92 -32 35 -4 35 51 c 0
 35 95 73 129 73 136 c 0
 73 143 58 147 46 154 c 0
 33 162 34 173 37 187 c 1
 49 224 70 252 97 272 c 1
 127 298 178 305 229 310 c 1
 364 310 455 213 454 76 c 0
 453 -7 420 -53 391 -90 c 0
 362 -127 319 -146 319 -146 c 1
 318 -142 l 1
EndSplineSet
Validated: 33
EndChar

StartChar: uni1A27
Encoding: 6695 6695 7
GlifName: uni1A_27
Width: 394
VWidth: 0
GlyphClass: 2
Flags: HMW
AnchorPoint: "Bottom_Sara_U" 254 -45 basechar 0
AnchorPoint: "Bottom_Sara_UU" 237 -45 basechar 0
AnchorPoint: "BottomSubjoinedConsonant" 190 -45 basechar 0
AnchorPoint: "BottomWithRightVerticalStem" 359 -45 basechar 0
AnchorPoint: "TopCenteredOnCenter" 190 352 basechar 0
AnchorPoint: "TopPositioningForSara_I" 203 352 basechar 0
AnchorPoint: "TopSara_II" 216 352 basechar 0
AnchorPoint: "TopRightAlignedMarks" 358 352 basechar 0
AnchorPoint: "TopPositioningForMaiKang" 252 352 basechar 0
AnchorPoint: "TopPositioningForMaiEekMaiKoo" 252 352 basechar 0
LayerCount: 3
Fore
SplineSet
35 219 m 1
 80 300 154 310 189 310 c 0
 282 310 359 239 359 150 c 0
 359 61 282 -10 189 -10 c 0
 97 -10 48 54 35 81 c 1
 94 150 l 1
 35 219 l 1
85 78 m 1
 94 69 122 30 189 30 c 0
 262 30 319 84 319 150 c 0
 319 216 262 270 189 270 c 0
 122 270 94 231 85 222 c 1
 147 150 l 1
 85 78 l 1
EndSplineSet
Validated: 1
EndChar

StartChar: uni1A28
Encoding: 6696 6696 8
GlifName: uni1A_28
Width: 463
VWidth: 0
GlyphClass: 2
Flags: HMW
AnchorPoint: "Bottom_Sara_U" 325 -45 basechar 0
AnchorPoint: "Bottom_Sara_UU" 308 -45 basechar 0
AnchorPoint: "BottomSubjoinedConsonant" 236 -46 basechar 0
AnchorPoint: "BottomWithRightVerticalStem" 428 -45 basechar 0
AnchorPoint: "TopCenteredOnCenter" 234 352 basechar 0
AnchorPoint: "TopPositioningForSara_I" 274 352 basechar 0
AnchorPoint: "TopSara_II" 260 352 basechar 0
AnchorPoint: "TopRightAlignedMarks" 402 352 basechar 0
AnchorPoint: "TopPositioningForMaiKang" 296 352 basechar 0
AnchorPoint: "TopPositioningForMaiEekMaiKoo" 296 352 basechar 0
LayerCount: 3
Fore
SplineSet
313 311 m 0
 337 311 369 296 369 296 c 1
 369 296 370 296 369 294 c 1
 341 301 336 295 350 286 c 1
 359 281 428 237 428 147 c 0
 429 52 352 -12 273 -11 c 0
 226 -11 193 9 168 27 c 1
 147 5 123 -10 98 -10 c 0
 61 -10 37 10 35 41 c 0
 31 106 111 118 160 84 c 1
 170 102 176 123 176 146 c 0
 175 186 156 237 108 253 c 1
 106 239 95 228 80 228 c 0
 64 228 51 241 51 257 c 0
 51 266 54 273 60 278 c 0
 79 295 115 297 144 280 c 0
 214 240 239 139 192 59 c 1
 214 42 237 29 274 29 c 0
 331 29 389 73 388 147 c 0
 388 220 342 240 327 255 c 1
 305 270 284 275 286 291 c 0
 288 305 299 311 313 311 c 0
135 52 m 1
 111 71 68 68 71 45 c 0
 74 21 115 28 135 52 c 1
EndSplineSet
Validated: 33
EndChar

StartChar: uni1A29
Encoding: 6697 6697 9
GlifName: uni1A_29
Width: 498
VWidth: 0
GlyphClass: 2
Flags: HMW
AnchorPoint: "Bottom_Sara_U" 280 -45 basechar 0
AnchorPoint: "Bottom_Sara_UU" 263 -45 basechar 0
AnchorPoint: "BottomSubjoinedConsonant" 244 -45 basechar 0
AnchorPoint: "BottomWithRightVerticalStem" 453 -45 basechar 0
AnchorPoint: "TopCenteredOnCenter" 245 352 basechar 0
AnchorPoint: "TopPositioningForSara_I" 285 352 basechar 0
AnchorPoint: "TopSara_II" 271 352 basechar 0
AnchorPoint: "TopRightAlignedMarks" 413 352 basechar 0
AnchorPoint: "TopPositioningForMaiKang" 307 352 basechar 0
AnchorPoint: "TopPositioningForMaiEekMaiKoo" 307 352 basechar 0
LayerCount: 3
Fore
SplineSet
36 57 m 0
 36 99 73 127 73 136 c 0
 73 143 58 147 46 154 c 0
 33 162 34 173 37 187 c 1
 66 271 150 310 244 310 c 1
 346 305 428 254 456 146 c 1
 475 62 451 -10 451 -10 c 1
 448 -10 l 1
 448 -10 453 76 434 131 c 1
 396 223 345 266 244 270 c 1
 170 268 104 241 80 187 c 1
 74 176 115 177 118 146 c 0
 122 117 77 78 77 57 c 0
 77 48 74 40 89 34 c 0
 105 28 108 35 118 44 c 0
 141 64 160 123 232 123 c 0
 275 123 297 89 297 66 c 0
 297 51 293 39 285 32 c 0
 266 15 223 10 217 53 c 1
 220 55 l 1
 228 32 251 43 253 46 c 0
 255 49 257 51 256 62 c 0
 256 66 253 80 232 80 c 0
 181 80 175 37 143 8 c 0
 108 -23 36 -13 36 57 c 0
273 215 m 2
 323 215 392 157 392 55 c 1
 387 -18 357 -63 298 -117 c 1
 295 -115 l 1
 351 -45 359 -9 358 52 c 1
 352 95 329 157 285 161 c 1
 265 144 233 163 236 188 c 0
 238 204 255 214 269 215 c 1
 273 215 l 2
EndSplineSet
Validated: 33
EndChar

StartChar: uni1A2A
Encoding: 6698 6698 10
GlifName: uni1A_2A_
Width: 500
VWidth: 0
GlyphClass: 2
Flags: HMW
AnchorPoint: "Bottom_Sara_U" 280 -47 basechar 0
AnchorPoint: "Bottom_Sara_UU" 263 -45 basechar 0
AnchorPoint: "BottomSubjoinedConsonant" 244 -45 basechar 0
AnchorPoint: "BottomWithRightVerticalStem" 453 -45 basechar 0
AnchorPoint: "TopCenteredOnCenter" 245 352 basechar 0
AnchorPoint: "TopPositioningForSara_I" 285 352 basechar 0
AnchorPoint: "TopSara_II" 271 352 basechar 0
AnchorPoint: "TopRightAlignedMarks" 413 352 basechar 0
AnchorPoint: "TopPositioningForMaiKang" 307 352 basechar 0
AnchorPoint: "TopPositioningForMaiEekMaiKoo" 307 352 basechar 0
LayerCount: 3
Fore
SplineSet
48 499 m 0
 48 593 175 631 251 631 c 0
 405 629 501 543 501 543 c 1
 498 539 l 1
 498 539 422 599 251 597 c 0
 157 595 88 548 88 499 c 0
 88 377 87 304 87 261 c 1
 127 294 183 310 243 310 c 1
 345 305 427 254 455 146 c 1
 474 62 450 -10 450 -10 c 1
 447 -10 l 1
 447 -10 452 76 433 131 c 1
 395 223 344 266 243 270 c 1
 169 268 103 241 79 187 c 1
 73 176 114 177 117 146 c 0
 121 117 76 78 76 57 c 0
 76 48 76 39 87 34 c 0
 126 16 137 123 231 123 c 0
 274 123 296 89 296 66 c 0
 296 51 292 39 284 32 c 0
 265 15 222 10 216 53 c 1
 219 55 l 1
 227 32 250 43 252 46 c 0
 254 49 256 51 255 62 c 0
 255 66 252 80 231 80 c 0
 181 80 171 35 142 9 c 0
 109 -21 35 -15 35 57 c 0
 35 99 72 127 72 136 c 0
 72 155 9 137 47 213 c 1
 47 220 48 420 48 499 c 0
272 215 m 2
 322 215 391 157 391 55 c 1
 386 -18 356 -63 297 -117 c 1
 294 -115 l 1
 350 -45 358 -9 357 52 c 1
 351 95 328 157 284 161 c 1
 264 144 232 163 235 188 c 0
 237 204 254 214 268 215 c 1
 272 215 l 2
EndSplineSet
EndChar

StartChar: uni1A2B
Encoding: 6699 6699 11
GlifName: uni1A_2B_
Width: 487
VWidth: 0
GlyphClass: 2
Flags: HMW
AnchorPoint: "Bottom_Sara_U" 340 -101 basechar 0
AnchorPoint: "Bottom_Sara_UU" 323 -101 basechar 0
AnchorPoint: "BottomSubjoinedConsonant" 203 -61 basechar 0
AnchorPoint: "BottomWithRightVerticalStem" 438 -45 basechar 0
AnchorPoint: "TopCenteredOnCenter" 191 352 basechar 0
AnchorPoint: "TopPositioningForSara_I" 271 352 basechar 0
AnchorPoint: "TopSara_II" 257 352 basechar 0
AnchorPoint: "TopRightAlignedMarks" 414 352 basechar 0
AnchorPoint: "TopPositioningForMaiKang" 293 352 basechar 0
AnchorPoint: "TopPositioningForMaiEekMaiKoo" 293 352 basechar 0
LayerCount: 3
Fore
SplineSet
402.8125 309.4140625 m 4
 418.516601562 309.306640625 431.65625 304.186523438 452.03125 295.8828125 c 5
 451.581054688 294.977539062 451.043945312 293.196289062 451 293.0390625 c 4
 426.29296875 294.302734375 419.487304688 292.751953125 417.96875 286.3828125 c 4
 415.838867188 277.446289062 436.48046875 278.541015625 438.59375 236.1328125 c 6
 437.5 -24.15625 l 6
 436.837890625 -61.0849609375 431.614257812 -94.509765625 416.125 -121.90625 c 4
 400.635742188 -149.302734375 373.397460938 -169.098632812 337.28125 -175.03125 c 4
 272.862304688 -185.612304688 231.486328125 -157.17578125 212.28125 -126.375 c 4
 202.922851562 -110.307617188 196.020507812 -92.9423828125 193.125 -74.5 c 4
 189.762695312 -65.0439453125 183.693359375 -70.6708984375 180.28125 -94.90625 c 4
 178.500976562 -94.7685546875 178.0625 -94.5625 178.0625 -94.5625 c 5
 178.0625 -94.5625 175.270507812 -8.4287109375 214.125 -19.59375 c 4
 228.036132812 -24.833984375 229.72265625 -51.875 233.65625 -71.96875 c 4
 236.397460938 -83.578125 239.596679688 -95.1103515625 246.21875 -105.21875 c 4
 259.091796875 -125.864257812 278.883789062 -144.091796875 330.8125 -135.5625 c 4
 357.133789062 -131.239257812 371.006835938 -120.447265625 381.3125 -102.21875 c 4
 391.618164062 -83.990234375 396.901367188 -56.796875 397.5 -23.4375 c 6
 398.21875 233.6328125 l 6
 396.981445312 271.33984375 371.19921875 268.762695312 371.09375 289.7578125 c 4
 370.984375 299.8203125 380.254882812 307.189453125 391.40625 308.6640625 c 4
 395.422851562 309.1953125 399.188476562 309.438476562 402.8125 309.4140625 c 4
189.791015625 220.36328125 m 4
 224.833984375 226.663085938 262.287109375 205.65234375 289.041992188 177.796875 c 4
 312.541015625 151.314453125 327.772460938 116.603515625 333.625 81.9619140625 c 4
 340.662109375 8.900390625 318.389648438 -40.087890625 268.850585938 -102.73828125 c 5
 265.8203125 -101.086914062 l 5
 309.806640625 -22.6279296875 311.779296875 13.8447265625 300.334960938 73.931640625 c 5
 287.125 115.043945312 254.416992188 172.87109375 210.33203125 169.541015625 c 5
 205.232421875 163.935546875 198.041992188 160.216796875 189.87890625 159.74609375 c 4
 173.330078125 158.791992188 159.151367188 171.451171875 158.197265625 188 c 4
 157.243164062 204.549804688 172.643554688 216.483398438 186.420898438 219.676757812 c 4
 187.545898438 219.9375 188.661132812 220.16015625 189.791015625 220.36328125 c 4
174.34375 310.28125 m 4
 251.71484375 309.416015625 322.553710938 273.12109375 355.96875 208.5 c 5
 354 205.34375 l 5
 292.3828125 262.377929688 247.325195312 276.697265625 178.1875 276.3125 c 4
 103.86328125 273.310546875 33.9169921875 240.900390625 10.28125 187.25 c 4
 6.55078125 179.862304688 27.015625 174.262695312 38.71875 164.53125 c 4
 44.921875 159.373046875 46.8876953125 154.916992188 47.625 145.875 c 4
 48.314453125 137.416015625 46.66015625 131.141601562 44.5625 125.96875 c 4
 40.3671875 115.623046875 34.4580078125 107.770507812 28.5625 99.25 c 4
 16.771484375 82.208984375 6.763671875 63.53125 6.78125 56.8125 c 4
 6.802734375 48.1865234375 10.0068359375 45.123046875 17.5 42.78125 c 4
 24.9931640625 40.439453125 36.2001953125 41.7763671875 46.125 50.75 c 4
 61.7001953125 64.83203125 74.779296875 81.697265625 92.09375 96.59375 c 4
 109.408203125 111.490234375 132.390625 123.490234375 161.8125 123.25 c 4
 182.08984375 123.087890625 198.950195312 115.609375 209.875 104.125 c 4
 220.799804688 92.640625 226.25 78.6044921875 226.625 66.15625 c 4
 227.08203125 50.9736328125 222.090820312 39.0947265625 214.5625 32.40625 c 4
 195.721679688 15.6669921875 152.407226562 10.1640625 146.75 52.9375 c 5
 149.6875 54.96875 l 5
 158.11328125 31.9765625 180.366210938 43.1435546875 182.71875 45.65625 c 4
 185.071289062 48.1689453125 186.874023438 51.6591796875 185.96875 62.1875 c 4
 185.674804688 65.607421875 184.159179688 70.123046875 181.125 73.3125 c 4
 178.090820312 76.501953125 173.30078125 79.7802734375 161.5 79.875 c 4
 141.646484375 80.037109375 130.71875 73.947265625 117.8125 62.84375 c 4
 104.90625 51.740234375 91.4619140625 34.7490234375 72.625 17.71875 c 4
 52.703125 -0.29296875 27.4716796875 -3.6044921875 5.9375 3.125 c 4
 -15.5966796875 9.8544921875 -33.994140625 29.5908203125 -34.0625 56.71875 c 4
 -34.138671875 86.962890625 -18.6904296875 104.741210938 -4.375 124.9375 c 4
 -1.833984375 128.522460938 2.775390625 130.760742188 2.625 136.125 c 4
 2.4248046875 143.260742188 -11.765625 147.032226562 -23.625 154.5 c 4
 -36.203125 162.420898438 -36.0166015625 173.364257812 -33.25 187.09375 c 4
 -4.677734375 271.134765625 80.0478515625 310.28125 174.34375 310.28125 c 4
EndSplineSet
EndChar

StartChar: uni1A2C
Encoding: 6700 6700 12
GlifName: uni1A_2C_
Width: 536
VWidth: 0
GlyphClass: 2
Flags: HMW
AnchorPoint: "Bottom_Sara_U" 376 -46 basechar 0
AnchorPoint: "Bottom_Sara_UU" 356 -46 basechar 0
AnchorPoint: "BottomSubjoinedConsonant" 275 -45 basechar 0
AnchorPoint: "BottomWithRightVerticalStem" 504 -45 basechar 0
AnchorPoint: "TopCenteredOnCenter" 275 352 basechar 0
AnchorPoint: "TopPositioningForSara_I" 333 352 basechar 0
AnchorPoint: "TopSara_II" 319 352 basechar 0
AnchorPoint: "TopRightAlignedMarks" 471 352 basechar 0
AnchorPoint: "TopPositioningForMaiKang" 355 352 basechar 0
AnchorPoint: "TopPositioningForMaiEekMaiKoo" 355 352 basechar 0
LayerCount: 3
Fore
SplineSet
227 270 m 0
 213 270 206 226 168 226 c 0
 137 226 132 259 115 268 c 0
 103 273 91 271 81 265 c 1
 102 263 118 245 118 224 c 0
 118 201 100 182 77 182 c 0
 54 182 35 201 35 224 c 1
 34 237 36 311 114 308 c 1
 142 308 157 285 161 278 c 0
 176 253 171 280 195 298 c 0
 203 304 214 310 227 310 c 0
 245 309 270 299 281 280 c 0
 285 273 287 265 289 257 c 0
 298 221 313 114 286 56 c 1
 317 33 330 29 366 29 c 1
 418 31 457 48 455 150 c 1
 455 252 410 272 424 291 c 0
 428 297 434 300 440 300 c 0
 465 300 498 253 498 253 c 1
 498 253 497 253 496 252 c 1
 476 272 473 261 476 255 c 0
 492 218 496 186 495 150 c 1
 497 36 447 -9 367 -11 c 1
 322 -10 290 3 264 24 c 1
 239 -2 205 -10 173 -11 c 1
 136 -11 102 -7 75 10 c 1
 75 -19 76 -71 76 -198 c 0
 76 -277 202 -297 276 -297 c 0
 445 -297 509 -249 509 -249 c 1
 510 -251 l 1
 510 -251 426 -330 275 -330 c 0
 184 -330 35 -312 36 -198 c 0
 37 -112 35 60 35 60 c 2
 35 66 36 72 45 77 c 0
 62 86 73 68 73 68 c 1
 93 31 134 29 172 29 c 1
 224 31 263 48 261 150 c 0
 259 243 247 270 227 270 c 0
77 239 m 0
 68 239 61 233 61 224 c 0
 61 215 68 208 77 208 c 0
 86 208 92 215 92 224 c 0
 92 233 86 239 77 239 c 0
EndSplineSet
Validated: 33
EndChar

StartChar: uni1A2D
Encoding: 6701 6701 13
GlifName: uni1A_2D_
Width: 449
VWidth: 0
GlyphClass: 2
Flags: HMW
AnchorPoint: "Bottom_Sara_U" 298 -45 basechar 0
AnchorPoint: "Bottom_Sara_UU" 277 -45 basechar 0
AnchorPoint: "BottomSubjoinedConsonant" 212 -45 basechar 0
AnchorPoint: "BottomWithRightVerticalStem" 415 -45 basechar 0
AnchorPoint: "TopCenteredOnCenter" 214 352 basechar 0
AnchorPoint: "TopPositioningForSara_I" 254 352 basechar 0
AnchorPoint: "TopSara_II" 240 352 basechar 0
AnchorPoint: "TopRightAlignedMarks" 402 352 basechar 0
AnchorPoint: "TopPositioningForMaiKang" 276 352 basechar 0
AnchorPoint: "TopPositioningForMaiEekMaiKoo" 276 352 basechar 0
LayerCount: 3
Fore
SplineSet
75 67 m 0
 75 45 104 30 129 30 c 0
 186 31 186 69 213 70 c 0
 238 71 242 28 289 29 c 0
 343 30 374 98 374 137 c 0
 374 248 295 252 306 285 c 0
 310 295 317 299 326 299 c 0
 351 299 388 271 388 271 c 1
 387 269 l 1
 362 282 355 278 367 266 c 0
 408 223 414 181 414 138 c 0
 414 68 366 -10 287 -10 c 0
 232 -10 220 20 211 20 c 0
 206 20 192 -8 129 -10 c 0
 86 -12 35 20 35 67 c 0
 35 106 61 135 79 142 c 0
 82 143 87 145 87 147 c 0
 87 150 83 150 79 152 c 0
 60 159 36 188 36 221 c 0
 37 272 81 310 136 310 c 0
 137 310 141 310 142 310 c 0
 214 309 251 247 249 202 c 0
 248 183 231 161 208 161 c 0
 185 161 166 179 166 202 c 0
 166 222 181 238 200 242 c 1
 157 288 76 271 76 220 c 0
 76 179 135 182 139 147 c 0
 144 106 75 123 75 67 c 0
208 217 m 0
 199 217 192 211 192 202 c 0
 192 193 199 187 208 187 c 0
 217 187 223 193 223 202 c 0
 223 210 217 217 208 217 c 0
EndSplineSet
Validated: 33
EndChar

StartChar: uni1A2E
Encoding: 6702 6702 14
GlifName: uni1A_2E_
Width: 450
VWidth: 0
GlyphClass: 2
Flags: HMW
AnchorPoint: "Bottom_Sara_U" 298 -45 basechar 0
AnchorPoint: "Bottom_Sara_UU" 277 -45 basechar 0
AnchorPoint: "BottomSubjoinedConsonant" 212 -45 basechar 0
AnchorPoint: "BottomWithRightVerticalStem" 415 -45 basechar 0
AnchorPoint: "TopCenteredOnCenter" 214 352 basechar 0
AnchorPoint: "TopPositioningForSara_I" 254 352 basechar 0
AnchorPoint: "TopSara_II" 240 352 basechar 0
AnchorPoint: "TopRightAlignedMarks" 402 352 basechar 0
AnchorPoint: "TopPositioningForMaiKang" 276 352 basechar 0
AnchorPoint: "TopPositioningForMaiEekMaiKoo" 276 352 basechar 0
LayerCount: 3
Fore
SplineSet
35 -216 m 0
 35 -166 67 -83 225 -92 c 0
 308 -97 370 -148 370 -148 c 1
 369 -150 l 1
 369 -150 310 -116 224 -118 c 0
 151 -120 75 -143 75 -216 c 0
 75 -259 113 -287 225 -288 c 0
 277 -288 375 -270 375 -200 c 2
 375 28 l 1
 354 4 324 -10 288 -10 c 0
 233 -10 221 20 212 20 c 0
 207 20 193 -8 130 -10 c 0
 84 -11 35 21 36 67 c 0
 36 106 62 135 80 142 c 0
 92 146 90 148 80 152 c 0
 61 159 37 188 37 221 c 0
 38 312 173 350 235 255 c 0
 270 201 240 161 209 161 c 0
 186 161 167 179 167 202 c 0
 167 222 182 238 201 242 c 1
 159 286 78 271 77 220 c 0
 77 180 135 181 140 147 c 0
 145 106 77 124 76 67 c 0
 76 45 105 30 130 30 c 0
 187 31 187 69 214 70 c 0
 239 71 243 27 290 28 c 0
 343 29 373 93 375 133 c 1
 375 146 l 1
 373 246 296 254 307 285 c 0
 321 323 386 272 389 271 c 1
 389 271 389 271 388 269 c 1
 363 282 356 278 368 266 c 1
 400 227 415 201 415 150 c 2
 415 -200 l 2
 415 -353 126 -357 57 -278 c 0
 43 -262 35 -241 35 -216 c 0
224 202 m 0
 224 222 193 222 193 202 c 0
 193 193 200 187 209 187 c 0
 218 187 224 193 224 202 c 0
EndSplineSet
EndChar

StartChar: uni1A2F
Encoding: 6703 6703 15
GlifName: uni1A_2F_
Width: 453
VWidth: 0
GlyphClass: 2
Flags: HMW
AnchorPoint: "Bottom_Sara_U" 329 -45 basechar 0
AnchorPoint: "Bottom_Sara_UU" 308 -45 basechar 0
AnchorPoint: "BottomSubjoinedConsonant" 221 -45 basechar 0
AnchorPoint: "BottomWithRightVerticalStem" 425 -45 basechar 0
AnchorPoint: "TopCenteredOnCenter" 222 352 basechar 0
AnchorPoint: "TopPositioningForSara_I" 255 352 basechar 0
AnchorPoint: "TopSara_II" 241 352 basechar 0
AnchorPoint: "TopRightAlignedMarks" 402 352 basechar 0
AnchorPoint: "TopPositioningForMaiKang" 315 352 basechar 0
AnchorPoint: "TopPositioningForMaiEekMaiKoo" 315 352 basechar 0
LayerCount: 3
Fore
SplineSet
136 312 m 0
 170 312 200 299 222 273 c 1
 285 348 409 308 409 214 c 0
 409 110 289 103 228 94 c 0
 148 82 111 59 93 40 c 1
 157 40 161 39 221 39 c 0
 388 38 467 -30 499 -98 c 0
 531 -166 496 -245 496 -245 c 1
 491 -245 l 1
 491 -245 512 -158 468 -96 c 0
 438 -54 377 -2 221 -1 c 0
 152 0 147 0 55 0 c 2
 44 0 l 1
 35 -1 l 1
 33 24 45 107 222 134 c 0
 293 145 369 150 369 214 c 0
 369 273 293 288 259 254 c 0
 244 239 225 202 197 240 c 0
 155 296 106 271 97 263 c 1
 116 259 131 243 131 223 c 0
 131 200 113 182 90 182 c 0
 26 182 32 312 136 312 c 0
90 238 m 0
 81 238 74 232 74 223 c 0
 74 214 81 208 90 208 c 0
 99 208 105 214 105 223 c 0
 105 232 99 238 90 238 c 0
EndSplineSet
Validated: 33
EndChar

StartChar: uni1A30
Encoding: 6704 6704 16
GlifName: uni1A_30
Width: 446
VWidth: 0
GlyphClass: 2
Flags: HMW
AnchorPoint: "Bottom_Sara_U" 288 -45 basechar 0
AnchorPoint: "Bottom_Sara_UU" 262 -45 basechar 0
AnchorPoint: "BottomSubjoinedConsonant" 212 -45 basechar 0
AnchorPoint: "BottomWithRightVerticalStem" 408 -45 basechar 0
AnchorPoint: "TopCenteredOnCenter" 234 352 basechar 0
AnchorPoint: "TopPositioningForSara_I" 274 352 basechar 0
AnchorPoint: "TopSara_II" 260 352 basechar 0
AnchorPoint: "TopRightAlignedMarks" 402 352 basechar 0
AnchorPoint: "TopPositioningForMaiKang" 296 352 basechar 0
AnchorPoint: "TopPositioningForMaiEekMaiKoo" 296 352 basechar 0
LayerCount: 3
Fore
SplineSet
35 225 m 1
 33 253 44 311 114 308 c 0
 136 308 151 294 161 279 c 0
 176 254 171 281 195 299 c 0
 203 305 213 311 226 311 c 0
 248 311 291 294 291 239 c 1
 288 155 162 143 102 101 c 0
 85 89 78 80 78 68 c 0
 78 35 107 30 115 30 c 0
 145 30 147 81 189 84 c 0
 229 87 231 30 263 30 c 0
 316 30 372 84 371 150 c 0
 371 193 355 225 340 240 c 1
 322 260 304 271 309 286 c 0
 323 324 391 272 391 272 c 1
 390 270 l 1
 365 283 358 279 370 267 c 0
 409 228 438 120 372 43 c 1
 342 10 308 -10 263 -10 c 0
 233 -10 214 11 203 26 c 0
 188 48 190 48 174 24 c 0
 164 8 143 -11 114 -10 c 1
 76 -10 38 19 38 68 c 0
 38 167 251 176 251 239 c 0
 251 257 242 271 226 271 c 0
 215 271 203 226 168 226 c 0
 139 226 134 259 115 268 c 0
 103 273 90 271 80 265 c 1
 101 263 118 245 118 224 c 0
 118 201 99 183 76 183 c 1
 54 184 38 195 35 225 c 1
76 239 m 0
 67 239 61 233 61 224 c 0
 61 215 67 209 76 209 c 0
 85 209 92 215 92 224 c 0
 92 233 85 239 76 239 c 0
EndSplineSet
Validated: 33
EndChar

StartChar: uni1A31
Encoding: 6705 6705 17
GlifName: uni1A_31
Width: 571
VWidth: 0
GlyphClass: 2
Flags: HMW
AnchorPoint: "Bottom_Sara_U" 444 -45 basechar 0
AnchorPoint: "Bottom_Sara_UU" 425 -45 basechar 0
AnchorPoint: "BottomSubjoinedConsonant" 357 -45 basechar 0
AnchorPoint: "BottomWithRightVerticalStem" 537 -45 basechar 0
AnchorPoint: "TopPositioningForSara_I" 392 352 basechar 0
AnchorPoint: "TopRightAlignedMarks" 508 352 basechar 0
AnchorPoint: "TopPositioningForMaiKang" 403 352 basechar 0
AnchorPoint: "TopPositioningForMaiEekMaiKoo" 403 352 basechar 0
AnchorPoint: "TopCenteredOnCenter" 284 352 basechar 0
AnchorPoint: "TopSara_II" 386 352 basechar 0
LayerCount: 3
Fore
SplineSet
334 199 m 0
 334 133 366 128 366 72 c 0
 366 28 329 -9 284 -9 c 0
 240 -9 204 28 204 72 c 0
 204 121 237 139 235 198 c 0
 233 270 171 270 167 270 c 0
 114 266 75 209 75 151 c 0
 75 123 80 91 93 68 c 1
 101 76 112 82 124 82 c 0
 147 82 165 64 165 41 c 0
 165 18 147 0 124 0 c 0
 112 0 103 3 93 13 c 0
 58 48 35 102 35 150 c 0
 35 223 80 306 165 309 c 1
 262 309 301 215 258 119 c 0
 250 101 244 90 244 72 c 0
 244 47 260 31 284 31 c 0
 305 31 326 52 326 72 c 0
 326 105 294 129 294 199 c 1
 296 289 365 310 401 310 c 0
 485 311 536 236 536 150 c 0
 536 97 520 62 485 33 c 0
 481 30 477 26 473 24 c 0
 459 15 464 10 492 17 c 1
 493 15 l 1
 493 15 415 -21 410 19 c 1
 414 42 437 47 454 60 c 0
 530 123 489 262 401 269 c 0
 381 271 334 259 334 199 c 0
123 56 m 1
 115 56 109 50 109 41 c 0
 109 32 115 25 123 25 c 0
 133 25 139 32 139 41 c 1
 137 47 137 55 123 56 c 1
EndSplineSet
Validated: 33
EndChar

StartChar: uni1A32
Encoding: 6706 6706 18
GlifName: uni1A_32
Width: 569
VWidth: 0
GlyphClass: 2
Flags: W
HStem: -10 40<128.425 251.506> 15 2<490.704 492.001> 272 38<129.611 250.954 315.774 438.33>
VStem: 34 40<83.7914 217.209> 305 42<83.7914 219.267> 493 42<81.9383 218.968>
AnchorPoint: "Bottom_Sara_U" 444 -45 basechar 0
AnchorPoint: "Bottom_Sara_UU" 425 -45 basechar 0
AnchorPoint: "BottomSubjoinedConsonant" 347 -45 basechar 0
AnchorPoint: "BottomWithRightVerticalStem" 520 -45 basechar 0
AnchorPoint: "TopPositioningForSara_I" 368 352 basechar 0
AnchorPoint: "TopRightAlignedMarks" 515 352 basechar 0
AnchorPoint: "TopPositioningForMaiKang" 377 352 basechar 0
AnchorPoint: "TopPositioningForMaiEekMaiKoo" 377 352 basechar 0
AnchorPoint: "TopCenteredOnCenter" 284 352 basechar 0
AnchorPoint: "TopSara_II" 359 352 basechar 0
LayerCount: 3
Fore
SplineSet
190 310 m 0xbc
 225 310 258 298 284 278 c 1
 310 298 343 310 378 310 c 0
 464 310 535 238 535 150 c 1
 530 96 519 63 478 28 c 0
 476 26 475 25 473 24 c 0
 459 14 464 10 492 17 c 1
 493 15 492 15 492 15 c 1x7c
 492 15 414 -21 409 19 c 0
 407 35 428 42 450 57 c 0
 478 76 491 118 493 151 c 1
 493 218 442 272 378 272 c 0
 354 272 331 264 312 251 c 1
 334 223 347 188 347 150 c 0
 347 62 276 -10 190 -10 c 0
 104 -10 34 62 34 150 c 0
 34 238 104 310 190 310 c 0xbc
190 272 m 0
 126 272 74 218 74 151 c 0
 74 84 126 30 190 30 c 0xbc
 254 30 305 84 305 151 c 0
 305 218 254 272 190 272 c 0
EndSplineSet
Validated: 33
EndChar

StartChar: uni1A33
Encoding: 6707 6707 19
GlifName: uni1A_33
Width: 486
VWidth: 0
GlyphClass: 2
Flags: HMW
AnchorPoint: "Bottom_Sara_U" 257 -45 basechar 0
AnchorPoint: "Bottom_Sara_UU" 234 -45 basechar 0
AnchorPoint: "BottomSubjoinedConsonant" 192 -45 basechar 0
AnchorPoint: "BottomWithRightVerticalStem" 434 -45 basechar 0
AnchorPoint: "TopCenteredOnCenter" 170 352 basechar 0
AnchorPoint: "TopPositioningForSara_I" 217 352 basechar 0
AnchorPoint: "TopSara_II" 214 352 basechar 0
AnchorPoint: "TopRightAlignedMarks" 430 352 basechar 0
AnchorPoint: "TopPositioningForMaiKang" 254 352 basechar 0
AnchorPoint: "TopPositioningForMaiEekMaiKoo" 254 352 basechar 0
LayerCount: 3
Fore
SplineSet
164 41 m 0
 141 41 140 -7 96 -7 c 0
 43 -7 14 56 68 125 c 0
 70 128 73 131 73 136 c 0
 73 152 28 144 37 187 c 1
 66 271 139 310 233 310 c 0
 290 310 339 298 380 257 c 0
 427 209 440 169 445 146 c 0
 464 62 440 -10 440 -10 c 1
 436 -10 l 1
 434 8 455 146 362 226 c 0
 323 260 281 270 233 270 c 1
 159 268 105 241 81 187 c 1
 75 176 115 174 118 146 c 0
 120 130 120 128 112 116 c 2
 101 101 l 1
 98 95 69 65 81 41 c 1
 82 35 93 27 102 35 c 0
 113 46 120 81 165 81 c 0
 210 81 214 33 228 33 c 0
 233 33 246 37 252 68 c 1
 249 67 244 67 241 67 c 0
 220 69 204 87 204 108 c 0
 204 131 223 150 245 150 c 0
 309 150 289 42 267 12 c 0
 259 1 244 -7 227 -7 c 0
 191 -7 181 30 173 38 c 0
 171 40 170 41 164 41 c 0
245 124 m 0
 236 124 230 117 230 108 c 0
 230 99 236 93 245 93 c 0
 254 93 261 99 261 108 c 0
 261 117 254 124 245 124 c 0
EndSplineSet
Validated: 33
EndChar

StartChar: uni1A34
Encoding: 6708 6708 20
GlifName: uni1A_34
Width: 458
VWidth: 0
GlyphClass: 2
Flags: HMW
AnchorPoint: "Bottom_Sara_U" 288 -45 basechar 0
AnchorPoint: "Bottom_Sara_UU" 262 -45 basechar 0
AnchorPoint: "BottomSubjoinedConsonant" 212 -45 basechar 0
AnchorPoint: "BottomWithRightVerticalStem" 408 -45 basechar 0
AnchorPoint: "TopCenteredOnCenter" 227 352 basechar 0
AnchorPoint: "TopPositioningForSara_I" 241 352 basechar 0
AnchorPoint: "TopSara_II" 234 352 basechar 0
AnchorPoint: "TopRightAlignedMarks" 400 352 basechar 0
AnchorPoint: "TopPositioningForMaiKang" 297 352 basechar 0
AnchorPoint: "TopPositioningForMaiEekMaiKoo" 297 352 basechar 0
LayerCount: 3
Fore
SplineSet
156 160 m 1
 165 197 204 223 251 222 c 0
 288 222 327 196 330 164 c 0
 333 136 325 120 301 106 c 1
 319 96 330 80 330 58 c 0
 330 29 310 8 289 -1 c 0
 268 -10 244 -10 225 -10 c 0
 133 -9 35 34 35 150 c 0
 35 260 131 311 230 310 c 0
 383 308 447 199 416 90 c 1
 414 90 l 1
 423 193 354 271 240 273 c 0
 164 275 76 237 75 150 c 0
 74 56 169 31 226 30 c 0
 249 29 288 29 290 55 c 1
 289 71 276 73 267 79 c 0
 261 83 252 93 252 105 c 0
 252 118 261 128 267 132 c 0
 277 139 293 144 290 159 c 0
 287 177 267 181 251 182 c 0
 243 182 234 184 224 182 c 1
 233 174 239 163 239 150 c 0
 239 127 220 109 197 109 c 0
 174 109 156 127 156 150 c 0
 156 160 l 1
182 150 m 1
 182 141 188 135 197 135 c 0
 206 135 213 141 213 150 c 0
 213 159 206 165 197 165 c 1
 185 163 183 157 182 150 c 1
EndSplineSet
Validated: 33
EndChar

StartChar: uni1A35
Encoding: 6709 6709 21
GlifName: uni1A_35
Width: 410
VWidth: 0
GlyphClass: 2
Flags: HMW
AnchorPoint: "Bottom_Sara_U" 275 -45 basechar 0
AnchorPoint: "Bottom_Sara_UU" 258 -45 basechar 0
AnchorPoint: "BottomSubjoinedConsonant" 204 -45 basechar 0
AnchorPoint: "BottomWithRightVerticalStem" 373 -45 basechar 0
AnchorPoint: "TopCenteredOnCenter" 206 352 basechar 0
AnchorPoint: "TopPositioningForSara_I" 208 352 basechar 0
AnchorPoint: "TopSara_II" 218 352 basechar 0
AnchorPoint: "TopRightAlignedMarks" 349 352 basechar 0
AnchorPoint: "TopPositioningForMaiKang" 275 352 basechar 0
AnchorPoint: "TopPositioningForMaiEekMaiKoo" 275 352 basechar 0
LayerCount: 3
Fore
SplineSet
205 55 m 1
 142 1 l 1
 121 9 101 21 85 36 c 0
 54 65 35 105 35 150 c 0
 35 195 54 235 85 264 c 0
 116 293 159 310 205 310 c 0
 298 310 375 239 375 150 c 0
 375 82 330 25 268 1 c 1
 205 55 l 1
136 48 m 1
 190 95 l 1
 205 108 l 1
 220 95 l 1
 275 48 l 1
 311 69 335 107 335 150 c 0
 335 216 278 270 205 270 c 0
 169 270 136 257 113 235 c 0
 90 213 75 183 75 150 c 0
 75 117 90 87 113 65 c 0
 120 59 128 53 136 48 c 1
EndSplineSet
Validated: 1
EndChar

StartChar: uni1A36
Encoding: 6710 6710 22
GlifName: uni1A_36
Width: 448
VWidth: 0
GlyphClass: 2
Flags: HMW
AnchorPoint: "Bottom_Sara_U" 309 -45 basechar 0
AnchorPoint: "Bottom_Sara_UU" 288 -45 basechar 0
AnchorPoint: "BottomSubjoinedConsonant" 225 -45 basechar 0
AnchorPoint: "BottomWithRightVerticalStem" 404 -45 basechar 0
AnchorPoint: "TopCenteredOnCenter" 234 352 basechar 0
AnchorPoint: "TopPositioningForSara_I" 274 352 basechar 0
AnchorPoint: "TopSara_II" 260 352 basechar 0
AnchorPoint: "TopRightAlignedMarks" 402 352 basechar 0
AnchorPoint: "TopPositioningForMaiKang" 296 352 basechar 0
AnchorPoint: "TopPositioningForMaiEekMaiKoo" 296 352 basechar 0
LayerCount: 3
Fore
SplineSet
35 168 m 0
 35 257 132 310 222 310 c 0
 307 310 413 260 406 173 c 0
 404 148 384 134 364 134 c 0
 341 134 323 152 323 175 c 0
 323 193 342 216 366 214 c 1
 336 254 276 270 221 270 c 0
 156 269 77 232 75 168 c 0
 73 122 74 96 74 40 c 1
 145 40 163 39 225 39 c 0
 392 38 471 -29 503 -97 c 0
 535 -165 500 -245 500 -245 c 1
 495 -244 l 1
 495 -244 516 -158 472 -96 c 0
 442 -54 380 -2 224 -1 c 0
 155 0 146 0 54 0 c 2
 35 0 l 1
 35 20 l 2
 34 93 35 115 35 168 c 0
364 190 m 0
 355 190 349 184 349 175 c 0
 349 166 355 160 364 160 c 0
 373 160 380 166 380 175 c 0
 380 184 373 190 364 190 c 0
EndSplineSet
Validated: 33
EndChar

StartChar: uni1A37
Encoding: 6711 6711 23
GlifName: uni1A_37
Width: 467
VWidth: 0
GlyphClass: 2
Flags: HMW
AnchorPoint: "Bottom_Sara_U" 326 -45 basechar 0
AnchorPoint: "Bottom_Sara_UU" 309 -45 basechar 0
AnchorPoint: "BottomSubjoinedConsonant" 233 -45 basechar 0
AnchorPoint: "BottomWithRightVerticalStem" 417 -45 basechar 0
AnchorPoint: "TopCenteredOnCenter" 234 352 basechar 0
AnchorPoint: "TopPositioningForSara_I" 274 352 basechar 0
AnchorPoint: "TopSara_II" 260 352 basechar 0
AnchorPoint: "TopRightAlignedMarks" 402 352 basechar 0
AnchorPoint: "TopPositioningForMaiKang" 296 352 basechar 0
AnchorPoint: "TopPositioningForMaiEekMaiKoo" 296 352 basechar 0
LayerCount: 3
Fore
SplineSet
126 304 m 0
 149 304 168 286 168 263 c 0
 168 249 158 234 140 224 c 0
 104 205 71 184 76 130 c 1
 82 48 197 28 233 29 c 1
 323 29 392 85 392 150 c 0
 392 188 366 227 331 244 c 0
 307 257 287 262 287 278 c 0
 287 294 301 300 317 300 c 0
 341 300 369 291 369 291 c 1
 369 288 l 1
 348 291 330 289 352 278 c 1
 364 271 l 1
 406 242 433 199 433 150 c 0
 433 59 341 -10 233 -10 c 1
 150 -8 44 28 36 126 c 0
 34 155 36 184 54 206 c 0
 68 223 76 231 92 240 c 1
 88 247 85 255 85 263 c 0
 85 286 103 304 126 304 c 0
126 278 m 0
 117 278 111 272 111 263 c 0
 111 254 117 248 126 248 c 0
 135 248 142 254 142 263 c 0
 142 272 135 278 126 278 c 0
EndSplineSet
Validated: 33
EndChar

StartChar: uni1A38
Encoding: 6712 6712 24
GlifName: uni1A_38
Width: 475
VWidth: 0
GlyphClass: 2
Flags: HMW
AnchorPoint: "Bottom_Sara_U" 324 -45 basechar 0
AnchorPoint: "Bottom_Sara_UU" 307 -45 basechar 0
AnchorPoint: "BottomSubjoinedConsonant" 233 -45 basechar 0
AnchorPoint: "BottomWithRightVerticalStem" 426 -46 basechar 0
AnchorPoint: "TopCenteredOnCenter" 228 352 basechar 0
AnchorPoint: "TopPositioningForSara_I" 169 352 basechar 0
AnchorPoint: "TopSara_II" 148 352 basechar 0
AnchorPoint: "TopRightAlignedMarks" 432 352 basechar 0
AnchorPoint: "TopPositioningForMaiKang" 233 352 basechar 0
AnchorPoint: "TopPositioningForMaiEekMaiKoo" 233 352 basechar 0
LayerCount: 3
Fore
SplineSet
391 630 m 0
 412 630 426 617 434 600 c 1
 433 598 l 1
 396 623 369 603 363 542 c 0
 355 466 377 371 404 308 c 0
 442 220 433 146 433 143 c 0
 428 56 339 -10 233 -10 c 1
 152 -8 44 28 36 126 c 0
 34 155 37 184 55 206 c 0
 69 223 77 231 93 240 c 1
 89 247 86 255 86 263 c 0
 86 286 104 304 127 304 c 0
 150 304 168 286 168 263 c 0
 168 249 160 230 141 224 c 0
 102 211 71 184 76 130 c 1
 82 41 211 29 233 29 c 0
 311 30 380 69 393 148 c 0
 394 152 400 214 367 292 c 0
 316 411 300 568 363 619 c 0
 371 625 380 630 391 630 c 0
127 278 m 0
 118 278 112 272 112 263 c 0
 112 254 118 248 127 248 c 0
 136 248 142 254 142 263 c 0
 142 272 136 278 127 278 c 0
EndSplineSet
Validated: 33
EndChar

StartChar: uni1A39
Encoding: 6713 6713 25
GlifName: uni1A_39
Width: 530
VWidth: 0
GlyphClass: 2
Flags: HMW
AnchorPoint: "Bottom_Sara_U" 298 -45 basechar 0
AnchorPoint: "Bottom_Sara_UU" 277 -45 basechar 0
AnchorPoint: "BottomSubjoinedConsonant" 212 -45 basechar 0
AnchorPoint: "BottomWithRightVerticalStem" 415 -45 basechar 0
AnchorPoint: "TopCenteredOnCenter" 214 352 basechar 0
AnchorPoint: "TopPositioningForSara_I" 254 352 basechar 0
AnchorPoint: "TopSara_II" 240 352 basechar 0
AnchorPoint: "TopRightAlignedMarks" 402 352 basechar 0
AnchorPoint: "TopPositioningForMaiKang" 276 352 basechar 0
AnchorPoint: "TopPositioningForMaiEekMaiKoo" 276 352 basechar 0
LayerCount: 3
Fore
SplineSet
75 68 m 0
 75 46 106 31 129 31 c 0
 186 32 186 71 213 72 c 0
 238 73 244 23 291 28 c 0
 374 36 378 144 378 170 c 0
 378 176 378 182 378 188 c 1
 332 176 282 191 280 245 c 0
 276 323 400 338 412 240 c 1
 434 249 465 277 494 311 c 1
 496 309 l 1
 490 278 454 229 417 207 c 1
 418 196 418 184 418 170 c 0
 416 135 413 98 397 66 c 0
 376 23 339 -10 287 -10 c 0
 232 -10 219 22 210 22 c 0
 205 22 192 -7 129 -9 c 0
 87 -11 35 20 35 69 c 0
 35 108 60 136 78 143 c 0
 81 144 87 146 87 148 c 0
 87 151 83 151 79 153 c 0
 60 160 35 189 35 222 c 0
 36 273 82 310 137 310 c 0
 138 310 141 310 142 310 c 0
 210 309 250 255 248 203 c 0
 247 184 230 162 207 162 c 0
 184 162 166 180 166 203 c 0
 166 223 181 240 200 244 c 1
 158 288 75 273 75 222 c 0
 75 181 135 182 139 148 c 0
 143 110 75 123 75 68 c 0
376 222 m 1
 374 244 368 269 343 269 c 0
 309 269 307 200 376 222 c 1
207 219 m 0
 198 219 192 212 192 203 c 0
 192 194 198 188 207 188 c 0
 216 188 222 194 222 203 c 0
 222 211 216 219 207 219 c 0
EndSplineSet
Validated: 33
EndChar

StartChar: uni1A3A
Encoding: 6714 6714 26
GlifName: uni1A_3A_
Width: 516
VWidth: 0
GlyphClass: 2
Flags: W
HStem: -9 40<82.7219 180.996> 22 50<181.254 240.452> 162 26<192.434 221.51> 598 32<180.657 354.839>
VStem: 35 40<41.0715 106.397 189.826 257.284> 166 26<188.434 218.495> 222 26<188.578 217.632>
AnchorPoint: "Bottom_Sara_U" 298 -45 basechar 0
AnchorPoint: "Bottom_Sara_UU" 277 -45 basechar 0
AnchorPoint: "BottomSubjoinedConsonant" 212 -45 basechar 0
AnchorPoint: "BottomWithRightVerticalStem" 415 -45 basechar 0
AnchorPoint: "TopCenteredOnCenter" 214 382 basechar 0
AnchorPoint: "TopPositioningForSara_I" 234 382 basechar 0
AnchorPoint: "TopSara_II" 232 382 basechar 0
AnchorPoint: "TopRightAlignedMarks" 422 482 basechar 0
AnchorPoint: "TopPositioningForMaiKang" 276 382 basechar 0
AnchorPoint: "TopPositioningForMaiEekMaiKoo" 276 382 basechar 0
LayerCount: 3
Fore
SplineSet
75 68 m 0xbe
 75 46 106 31 129 31 c 0xbe
 186 32 186 71 213 72 c 0
 238 73 241 23 288 28 c 0
 399 39 386 229 364 315 c 1
 304 307 145 301 79 369 c 0
 26 424 26 548 122 599 c 0
 165 622 216 630 265 630 c 0
 334 630 423 598 470 545 c 1
 468 542 l 1
 400 591 324 597 265 598 c 0
 223 599 176 584 141 565 c 0
 68 526 73 434 108 397 c 0
 164 339 327 351 355 354 c 1
 351 377 347 398 356 418 c 0
 384 482 474 465 481 401 c 0
 486 353 444 333 403 322 c 1
 431 211 417 108 397 66 c 0
 376 23 339 -10 287 -10 c 0
 232 -10 219 22 210 22 c 0x7e
 205 22 192 -7 129 -9 c 0
 87 -11 35 20 35 69 c 0
 35 108 60 136 78 143 c 0
 81 144 87 146 87 148 c 0
 87 151 83 151 79 153 c 0
 60 160 35 189 35 222 c 0
 36 273 82 310 137 310 c 0
 138 310 139 310 140 310 c 0
 208 309 250 255 248 203 c 0
 247 184 230 162 207 162 c 0
 184 162 166 180 166 203 c 0
 166 223 181 240 200 244 c 1
 158 288 75 273 75 222 c 0
 75 181 135 182 139 148 c 0
 143 110 75 123 75 68 c 0xbe
395 361 m 1
 463 371 444 424 413 420 c 0
 386 416 387 388 395 361 c 1
207 219 m 0
 198 219 192 212 192 203 c 0
 192 194 198 188 207 188 c 0
 216 188 222 194 222 203 c 0
 222 211 216 219 207 219 c 0
EndSplineSet
Validated: 33
EndChar

StartChar: uni1A3B
Encoding: 6715 6715 27
GlifName: uni1A_3B_
Width: 497
VWidth: 0
GlyphClass: 2
Flags: HMW
AnchorPoint: "Bottom_Sara_U" 339 -45 basechar 0
AnchorPoint: "Bottom_Sara_UU" 320 -45 basechar 0
AnchorPoint: "BottomSubjoinedConsonant" 252 -45 basechar 0
AnchorPoint: "BottomWithRightVerticalStem" 447 -45 basechar 0
AnchorPoint: "TopPositioningForSara_I" 303 352 basechar 0
AnchorPoint: "TopRightAlignedMarks" 433 352 basechar 0
AnchorPoint: "TopPositioningForMaiKang" 334 352 basechar 0
AnchorPoint: "TopPositioningForMaiEekMaiKoo" 334 352 basechar 0
AnchorPoint: "TopCenteredOnCenter" 250 352 basechar 0
AnchorPoint: "TopSara_II" 301 352 basechar 0
LayerCount: 3
Fore
SplineSet
66 257 m 0
 121 334 215 315 250 267 c 1
 292 327 382 323 431 256 c 0
 473 198 491 86 367 21 c 0
 352 13 358 7 386 12 c 1
 386 10 l 1
 386 10 306 -20 304 20 c 0
 303 36 324 41 347 55 c 0
 383 78 416 106 422 151 c 1
 426 207 387 269 334 269 c 0
 270 270 286 218 250 217 c 0
 212 216 235 270 156 269 c 0
 83 268 34 126 126 50 c 1
 127 69 147 82 165 82 c 0
 188 82 206 64 206 41 c 0
 206 18 188 -1 165 -1 c 0
 64 -2 -9 152 66 257 c 0
165 56 m 0
 156 56 149 50 149 41 c 0
 149 32 156 25 165 25 c 0
 174 25 180 32 180 41 c 0
 180 50 174 56 165 56 c 0
EndSplineSet
Validated: 33
EndChar

StartChar: uni1A3C
Encoding: 6716 6716 28
GlifName: uni1A_3C_
Width: 497
VWidth: 0
GlyphClass: 2
Flags: W
HStem: -1 26<149.646 179.501> 10 2<383.704 385> 56 26<149.367 179.597>
VStem: 38 40<272 537.549> 180 26<25.4994 55.4823>
AnchorPoint: "Bottom_Sara_U" 339 -45 basechar 0
AnchorPoint: "Bottom_Sara_UU" 320 -45 basechar 0
AnchorPoint: "BottomSubjoinedConsonant" 252 -45 basechar 0
AnchorPoint: "BottomWithRightVerticalStem" 447 -45 basechar 0
AnchorPoint: "TopPositioningForSara_I" 303 352 basechar 0
AnchorPoint: "TopRightAlignedMarks" 433 352 basechar 0
AnchorPoint: "TopPositioningForMaiKang" 334 352 basechar 0
AnchorPoint: "TopPositioningForMaiEekMaiKoo" 334 352 basechar 0
AnchorPoint: "TopCenteredOnCenter" 250 352 basechar 0
AnchorPoint: "TopSara_II" 301 352 basechar 0
LayerCount: 3
Fore
SplineSet
78 272 m 1xb8
 133 330 217 312 249 267 c 1
 291 327 381 323 430 256 c 0
 472 198 491 86 367 21 c 0
 352 13 357 7 385 12 c 1
 385 10 386 10 386 10 c 1x78
 386 10 305 -20 303 20 c 0
 302 36 324 41 347 55 c 0
 383 78 416 106 422 151 c 1
 426 207 387 269 334 269 c 0
 270 270 285 218 249 217 c 0
 211 216 235 270 156 269 c 0
 83 268 33 126 125 50 c 1
 126 69 146 82 164 82 c 0
 187 82 206 64 206 41 c 0
 206 18 187 -1 164 -1 c 0
 89 -1 19 88 38 191 c 1
 38 224 39 424 39 498 c 0
 39 626 300 691 458 548 c 1
 456 547 l 1
 456 547 366 603 243 592 c 0
 207 589 167 585 134 566 c 0
 103 548 79 529 79 498 c 0
 79 447 78 350 78 272 c 1xb8
164 56 m 0
 155 56 149 50 149 41 c 0
 149 32 155 25 164 25 c 0xb8
 173 25 180 32 180 41 c 0
 180 50 173 56 164 56 c 0
EndSplineSet
Validated: 33
EndChar

StartChar: uni1A3D
Encoding: 6717 6717 29
GlifName: uni1A_3D_
Width: 607
VWidth: 0
GlyphClass: 2
Flags: HMW
AnchorPoint: "Bottom_Sara_U" 424 -45 basechar 0
AnchorPoint: "Bottom_Sara_UU" 405 -45 basechar 0
AnchorPoint: "BottomSubjoinedConsonant" 376 -45 basechar 0
AnchorPoint: "BottomWithRightVerticalStem" 558 -45 basechar 0
AnchorPoint: "TopPositioningForSara_I" 420 352 basechar 0
AnchorPoint: "TopRightAlignedMarks" 546 352 basechar 0
AnchorPoint: "TopPositioningForMaiKang" 421 352 basechar 0
AnchorPoint: "TopPositioningForMaiEekMaiKoo" 421 352 basechar 0
AnchorPoint: "TopCenteredOnCenter" 292 352 basechar 0
AnchorPoint: "TopSara_II" 418 352 basechar 0
LayerCount: 3
Fore
SplineSet
463 -8 m 1
 463 -11 463 -11 449 -11 c 0
 425 -11 379 -6 386 23 c 0
 390 38 412 39 438 44 c 0
 541 65 566 190 482 250 c 0
 410 302 312 248 310 150 c 0
 308 63 238 -9 157 -10 c 0
 86 -11 36 37 35 55 c 0
 35 66 44 75 55 75 c 0
 62 75 67 71 71 66 c 1
 71 66 96 29 157 30 c 0
 213 31 269 86 270 151 c 1
 269 242 191 292 109 268 c 1
 118 261 121 251 121 241 c 0
 121 218 102 200 79 200 c 0
 56 200 38 218 38 241 c 0
 38 291 115 311 161 311 c 0
 214 311 263 279 290 231 c 1
 330 304 428 339 506 283 c 0
 573 235 591 149 553 82 c 1
 529 44 502 15 448 5 c 0
 432 2 435 -5 463 -8 c 1
79 226 m 0
 88 226 95 232 95 241 c 0
 95 250 88 256 79 256 c 0
 70 256 64 250 64 241 c 0
 64 232 70 226 79 226 c 0
EndSplineSet
Validated: 33
EndChar

StartChar: uni1A3E
Encoding: 6718 6718 30
GlifName: uni1A_3E_
Width: 467
VWidth: 0
GlyphClass: 2
Flags: HMW
AnchorPoint: "Bottom_Sara_U" 305 -45 basechar 0
AnchorPoint: "Bottom_Sara_UU" 288 -45 basechar 0
AnchorPoint: "BottomSubjoinedConsonant" 234 -45 basechar 0
AnchorPoint: "BottomWithRightVerticalStem" 424 -45 basechar 0
AnchorPoint: "TopCenteredOnCenter" 234 352 basechar 0
AnchorPoint: "TopPositioningForSara_I" 245 352 basechar 0
AnchorPoint: "TopSara_II" 239 352 basechar 0
AnchorPoint: "TopRightAlignedMarks" 404 352 basechar 0
AnchorPoint: "TopPositioningForMaiKang" 312 352 basechar 0
AnchorPoint: "TopPositioningForMaiEekMaiKoo" 312 352 basechar 0
LayerCount: 3
Fore
SplineSet
126 304 m 0
 171 304 183 239 140 224 c 0
 101 210 72 184 76 130 c 0
 82 49 195 28 233 29 c 0
 283 29 326 47 355 73 c 1
 329 97 297 115 268 103 c 1
 257 79 223 79 213 104 c 0
 196 147 297 191 380 104 c 1
 388 118 392 134 392 150 c 0
 392 188 368 223 331 244 c 0
 307 257 287 262 287 278 c 0
 288 317 362 292 369 291 c 1
 369 291 369 290 369 288 c 1
 348 291 332 289 352 278 c 1
 364 271 l 1
 406 242 433 199 433 150 c 0
 433 121 423 93 406 70 c 1
 446 4 433 -70 409 -137 c 1
 406 -136 l 1
 423 -48 414 -12 384 41 c 1
 382 43 l 1
 345 10 292 -10 233 -10 c 1
 153 -8 44 28 36 126 c 0
 34 155 36 184 54 206 c 0
 68 223 76 231 92 240 c 1
 88 247 85 255 85 263 c 0
 85 286 103 304 126 304 c 0
126 278 m 0
 117 278 111 272 111 263 c 0
 111 254 117 248 126 248 c 0
 135 248 142 254 142 263 c 0
 142 272 135 278 126 278 c 0
EndSplineSet
Validated: 33
EndChar

StartChar: uni1A3F
Encoding: 6719 6719 31
GlifName: uni1A_3F_
Width: 636
VWidth: 0
GlyphClass: 2
Flags: HMW
AnchorPoint: "Bottom_Sara_U" 467 -45 basechar 0
AnchorPoint: "Bottom_Sara_UU" 448 -45 basechar 0
AnchorPoint: "BottomSubjoinedConsonant" 437 -45 basechar 0
AnchorPoint: "BottomWithRightVerticalStem" 589 -45 basechar 0
AnchorPoint: "TopPositioningForSara_I" 430 352 basechar 0
AnchorPoint: "TopRightAlignedMarks" 558 352 basechar 0
AnchorPoint: "TopPositioningForMaiKang" 451 352 basechar 0
AnchorPoint: "TopPositioningForMaiEekMaiKoo" 451 352 basechar 0
AnchorPoint: "TopCenteredOnCenter" 315 352 basechar 0
AnchorPoint: "TopSara_II" 423 352 basechar 0
LayerCount: 3
Fore
SplineSet
188 -10 m 1
 40 -22 -10 149 79 227 c 1
 70 235 64 247 64 260 c 0
 64 283 82 301 105 301 c 0
 128 301 146 283 146 260 c 0
 146 246 139 234 129 226 c 0
 37 151 67 28 184 26 c 1
 343 26 331 223 252 265 c 1
 247 269 245 274 245 280 c 0
 245 291 254 300 265 300 c 0
 270 300 275 298 279 294 c 0
 331 259 348 206 349 151 c 0
 349 127 356 99 371 78 c 1
 403 41 457 12 512 43 c 0
 564 73 571 145 548 187 c 0
 503 268 425 233 417 266 c 0
 410 295 455 299 479 299 c 0
 487 299 490 302 493 299 c 0
 494 298 495 297 493 297 c 0
 465 292 462 286 478 283 c 0
 622 256 639 74 536 10 c 0
 466 -33 365 1 328 70 c 1
 296 -3 215 -11 188 -10 c 1
105 275 m 0
 96 275 90 269 90 260 c 0
 90 251 96 244 105 244 c 0
 114 244 120 251 120 260 c 0
 120 269 114 275 105 275 c 0
EndSplineSet
Validated: 33
EndChar

StartChar: uni1A40
Encoding: 6720 6720 32
GlifName: uni1A_40
Width: 457
VWidth: 0
GlyphClass: 2
Flags: HMW
AnchorPoint: "Bottom_Sara_U" 298 -45 basechar 0
AnchorPoint: "Bottom_Sara_UU" 277 -45 basechar 0
AnchorPoint: "BottomSubjoinedConsonant" 212 -45 basechar 0
AnchorPoint: "BottomWithRightVerticalStem" 415 -45 basechar 0
AnchorPoint: "TopCenteredOnCenter" 214 352 basechar 0
AnchorPoint: "TopPositioningForSara_I" 161 352 basechar 0
AnchorPoint: "TopSara_II" 129 352 basechar 0
AnchorPoint: "TopRightAlignedMarks" 402 352 basechar 0
AnchorPoint: "TopPositioningForMaiKang" 224 352 basechar 0
AnchorPoint: "TopPositioningForMaiEekMaiKoo" 224 352 basechar 0
LayerCount: 3
Fore
SplineSet
75 68 m 0
 75 46 106 31 129 31 c 0
 186 32 186 71 213 72 c 0
 238 73 241 23 288 28 c 0
 384 38 397 183 351 292 c 0
 296 420 288 573 346 620 c 0
 354 626 364 630 375 630 c 0
 396 630 409 617 417 600 c 1
 414 599 l 1
 376 624 352 597 347 543 c 0
 339 467 360 371 387 308 c 1
 406 255 421 207 417 150 c 0
 411 55 362 -12 288 -12 c 0
 233 -12 220 22 211 22 c 0
 206 22 193 -7 130 -9 c 0
 87 -11 35 22 35 69 c 0
 35 108 61 136 79 143 c 0
 82 144 87 146 87 148 c 0
 87 151 83 151 79 153 c 0
 60 160 36 189 36 222 c 0
 37 273 83 310 138 310 c 2
 140 310 l 1
 208 309 252 256 249 203 c 0
 248 184 231 162 208 162 c 0
 185 162 167 180 167 203 c 0
 167 223 181 240 200 244 c 1
 160 287 76 274 76 222 c 0
 76 182 135 183 139 148 c 0
 144 107 75 125 75 68 c 0
208 219 m 0
 199 219 193 212 193 203 c 0
 193 194 199 188 208 188 c 0
 217 188 223 194 223 203 c 0
 223 211 217 219 208 219 c 0
EndSplineSet
Validated: 33
EndChar

StartChar: uni1A41
Encoding: 6721 6721 33
GlifName: uni1A_41
Width: 407
VWidth: 0
GlyphClass: 2
Flags: HMW
AnchorPoint: "Bottom_Sara_U" 254 -45 basechar 0
AnchorPoint: "Bottom_Sara_UU" 237 -45 basechar 0
AnchorPoint: "BottomSubjoinedConsonant" 190 -45 basechar 0
AnchorPoint: "BottomWithRightVerticalStem" 359 -45 basechar 0
AnchorPoint: "TopCenteredOnCenter" 190 352 basechar 0
AnchorPoint: "TopPositioningForSara_I" 203 352 basechar 0
AnchorPoint: "TopSara_II" 216 352 basechar 0
AnchorPoint: "TopRightAlignedMarks" 358 352 basechar 0
AnchorPoint: "TopPositioningForMaiKang" 246 352 basechar 0
AnchorPoint: "TopPositioningForMaiEekMaiKoo" 246 352 basechar 0
LayerCount: 3
Fore
SplineSet
90 217 m 2
 90 275 132 309 194 309 c 2
 199 309 l 1
 336 306 362 192 368 166 c 0
 383 94 357 18 357 18 c 1
 354 18 l 1
 354 18 368 117 331 185 c 0
 300 243 259 268 199 269 c 0
 186 269 144 267 133 238 c 1
 219 235 279 189 277 106 c 1
 275 41 232 -10 163 -10 c 0
 86 -10 35 47 35 109 c 0
 35 132 53 150 76 150 c 0
 99 150 117 132 117 109 c 0
 117 89 103 72 84 68 c 1
 98 46 124 32 163 30 c 1
 222 30 237 76 237 106 c 0
 239 181 174 200 111 198 c 1
 90 197 l 1
 90 217 l 2
76 124 m 0
 67 124 61 118 61 109 c 0
 61 100 67 94 76 94 c 0
 85 94 91 100 91 109 c 0
 91 118 85 124 76 124 c 0
EndSplineSet
Validated: 33
EndChar

StartChar: uni1A42
Encoding: 6722 6722 34
GlifName: uni1A_42
Width: 447
VWidth: 0
GlyphClass: 2
Flags: W
HStem: -265 40<111.86 288.894> -193 26<183.434 213.689> -136 28<183.357 213.346> -71 36<123.978 294.081> 180 26<69.312 98.3196> 236 74<68.6819 163.172> 270 40<251.416 346.109>
VStem: 35 40<-193.103 -107.776> 99 26<206.518 235.425> 157 26<-166.566 -136.158> 303 4<-326 -323.705> 371 41<-103.27 244.929>
LayerCount: 3
Fore
SplineSet
298 270 m 0xfbf0
 242 270 244 222 215 222 c 0
 199 222 196 233 191 238 c 1
 169 275 114 284 91 261 c 1
 110 257 125 241 125 221 c 0
 125 198 106 180 83 180 c 0
 19 180 26 310 129 310 c 0xfdf0
 181 310 208 281 215 271 c 1
 222 278 247 311 299 310 c 1
 344 310 408 283 411 175 c 0
 412 120 412 66 412 11 c 0
 412 -15 412 -41 412 -67 c 0
 412 -105 405 -135 397 -155 c 0
 397 -155 436 -260 376 -329 c 1
 373 -327 l 1
 389 -287 390 -224 377 -191 c 1
 360 -216 332 -234 332 -234 c 0
 339 -286 307 -326 307 -326 c 1
 303 -323 l 1
 303 -323 318 -292 305 -247 c 1
 274 -260 242 -265 216 -265 c 0
 68 -265 35 -196 35 -150 c 0
 35 -74 117 -35 197 -35 c 2
 217 -35 l 1
 267 -38 317 -51 355 -89 c 1
 369 -104 l 1
 370 -93 371 -81 371 -67 c 2
 371 175 l 1
 369 228 350 270 298 270 c 0xfbf0
83 236 m 0
 74 236 68 230 68 221 c 0
 68 212 74 206 83 206 c 0
 92 206 99 212 99 221 c 0
 99 230 92 236 83 236 c 0
358 -145 m 1
 346 -122 312 -76 214 -71 c 0
 211 -71 208 -71 205 -71 c 0
 162 -71 75 -91 75 -150 c 0
 75 -210 151 -225 215 -225 c 0
 236 -225 265 -220 290 -210 c 1
 272 -178 252 -166 239 -161 c 1
 235 -179 217 -193 198 -193 c 0
 175 -193 157 -175 157 -152 c 0
 157 -126 178 -108 204 -108 c 0
 219 -108 279 -115 319 -194 c 1
 335 -182 351 -162 358 -145 c 1
198 -136 m 0
 189 -136 183 -143 183 -152 c 0
 183 -161 189 -167 198 -167 c 0
 207 -167 214 -161 214 -152 c 0
 214 -143 207 -136 198 -136 c 0
EndSplineSet
Validated: 33
EndChar

StartChar: uni1A43
Encoding: 6723 6723 35
GlifName: uni1A_43
Width: 593
VWidth: 0
GlyphClass: 2
Flags: W
HStem: -10 40<335.079 463.396> -3 26<138.898 167.24> 53 26<138.423 167.566> 270 40<129.078 251.28> 289 2<508.068 509>
VStem: 35 40<80.5708 215.259> 168 26<23.4903 52.5657>
AnchorPoint: "Bottom_Sara_U" 432 -45 basechar 0
AnchorPoint: "Bottom_Sara_UU" 413 -45 basechar 0
AnchorPoint: "BottomSubjoinedConsonant" 404 -45 basechar 0
AnchorPoint: "BottomWithRightVerticalStem" 548 -45 basechar 0
AnchorPoint: "TopPositioningForSara_I" 420 352 basechar 0
AnchorPoint: "TopRightAlignedMarks" 546 352 basechar 0
AnchorPoint: "TopPositioningForMaiKang" 421 352 basechar 0
AnchorPoint: "TopPositioningForMaiEekMaiKoo" 421 352 basechar 0
AnchorPoint: "TopCenteredOnCenter" 292 352 basechar 0
AnchorPoint: "TopSara_II" 418 352 basechar 0
LayerCount: 3
Fore
SplineSet
35 150 m 0x76
 35 237 100 310 193 310 c 1x76
 281 311 355 228 315 136 c 0
 309 122 305 114 309 94 c 0
 311 81 320 30 404 30 c 0
 456 30 522 82 518 146 c 0
 509 264 423 253 427 286 c 0
 432 326 510 291 510 291 c 1
 509 289 l 1
 481 296 477 290 491 281 c 0
 535 253 558 199 558 146 c 0
 559 56 479 -10 403 -10 c 0xae
 292 -10 247 74 278 152 c 0
 284 167 289 175 287 194 c 0
 281 243 235 270 194 270 c 0
 107 270 73 194 75 150 c 0
 76 115 81 87 116 56 c 1
 123 70 137 79 153 79 c 0
 176 79 194 61 194 38 c 0
 194 15 176 -2 153 -3 c 0
 124 -4 105 15 89 28 c 0
 61 50 35 90 35 150 c 0x76
153 53 m 0
 144 53 138 47 138 38 c 0
 138 29 144 23 153 23 c 0
 162 23 168 29 168 38 c 0
 168 47 162 53 153 53 c 0
EndSplineSet
Validated: 33
EndChar

StartChar: uni1A44
Encoding: 6724 6724 36
GlifName: uni1A_44
Width: 439
VWidth: 0
GlyphClass: 2
Flags: HMW
LayerCount: 3
Fore
SplineSet
299 270 m 0
 251 270 251 222 221 222 c 0
 205 222 202 233 197 238 c 1
 175 275 120 284 97 261 c 1
 116 257 131 241 131 221 c 0
 131 198 113 180 90 180 c 0
 26 180 33 310 136 310 c 0
 193 310 222 271 222 271 c 1
 228 277 253 310 299 310 c 0
 356 310 403 271 403 212 c 0
 403 178 388 136 332 115 c 1
 263 87 151 99 95 40 c 1
 153 40 164 40 210 40 c 0
 257 40 398 15 405 -111 c 0
 406 -125 405 -139 402 -151 c 0
 402 -151 443 -259 382 -329 c 1
 379 -327 l 1
 395 -287 396 -224 383 -191 c 1
 366 -216 338 -234 338 -234 c 0
 345 -286 313 -326 313 -326 c 1
 309 -323 l 1
 309 -323 324 -292 311 -247 c 1
 280 -260 248 -265 222 -265 c 0
 74 -265 41 -196 41 -150 c 0
 41 -25 267 5 362 -90 c 1
 341 -5 207 0 207 0 c 0
 154 0 138 0 55 0 c 2
 44 0 l 1
 35 0 l 1
 35 -2 l 1
 35 -2 34 3 35 10 c 0
 35 11 41 38 57 58 c 0
 144 166 363 104 363 212 c 0
 363 258 322 270 299 270 c 0
90 236 m 0
 81 236 75 230 75 221 c 0
 75 212 81 206 90 206 c 0
 99 206 105 212 105 221 c 0
 105 230 99 236 90 236 c 0
364 -145 m 1
 352 -122 318 -76 220 -71 c 0
 217 -71 214 -71 211 -71 c 0
 168 -71 81 -91 81 -150 c 0
 81 -210 157 -225 221 -225 c 0
 242 -225 271 -220 296 -210 c 1
 278 -178 258 -166 245 -161 c 1
 241 -179 223 -193 204 -193 c 0
 181 -193 163 -175 163 -152 c 0
 163 -126 184 -108 210 -108 c 0
 225 -108 285 -115 325 -194 c 1
 341 -182 357 -162 364 -145 c 1
204 -136 m 0
 195 -136 189 -143 189 -152 c 0
 189 -161 195 -167 204 -167 c 0
 213 -167 220 -161 220 -152 c 0
 220 -143 213 -136 204 -136 c 0
EndSplineSet
Validated: 33
EndChar

StartChar: uni1A45
Encoding: 6725 6725 37
GlifName: uni1A_45
Width: 393
VWidth: 0
GlyphClass: 2
Flags: HMW
AnchorPoint: "Bottom_Sara_U" 254 -45 basechar 0
AnchorPoint: "Bottom_Sara_UU" 237 -45 basechar 0
AnchorPoint: "BottomSubjoinedConsonant" 196 -45 basechar 0
AnchorPoint: "BottomWithRightVerticalStem" 349 -45 basechar 0
AnchorPoint: "TopCenteredOnCenter" 196 352 basechar 0
AnchorPoint: "TopPositioningForSara_I" 203 352 basechar 0
AnchorPoint: "TopSara_II" 216 352 basechar 0
AnchorPoint: "TopRightAlignedMarks" 338 352 basechar 0
AnchorPoint: "TopPositioningForMaiKang" 259 352 basechar 0
AnchorPoint: "TopPositioningForMaiEekMaiKoo" 259 352 basechar 0
LayerCount: 3
Fore
SplineSet
196 310 m 0
 285 310 358 238 358 150 c 0
 358 62 285 -10 196 -10 c 0
 107 -10 35 62 35 150 c 0
 35 238 107 310 196 310 c 0
197 271 m 0
 130 271 75 217 75 150 c 0
 75 83 130 28 197 28 c 0
 264 28 319 83 319 150 c 0
 319 217 264 271 197 271 c 0
EndSplineSet
Validated: 1
EndChar

StartChar: uni1A46
Encoding: 6726 6726 38
GlifName: uni1A_46
Width: 470
VWidth: 0
GlyphClass: 2
Flags: HMW
AnchorPoint: "Bottom_Sara_U" 275 -45 basechar 0
AnchorPoint: "Bottom_Sara_UU" 258 -45 basechar 0
AnchorPoint: "BottomSubjoinedConsonant" 239 -45 basechar 0
AnchorPoint: "BottomWithRightVerticalStem" 435 -45 basechar 0
AnchorPoint: "TopCenteredOnCenter" 234 352 basechar 0
AnchorPoint: "TopPositioningForSara_I" 274 352 basechar 0
AnchorPoint: "TopSara_II" 260 352 basechar 0
AnchorPoint: "TopRightAlignedMarks" 402 352 basechar 0
AnchorPoint: "TopPositioningForMaiKang" 296 352 basechar 0
AnchorPoint: "TopPositioningForMaiEekMaiKoo" 296 352 basechar 0
LayerCount: 3
Fore
SplineSet
383 369 m 1
 383 369 422 330 401 259 c 0
 400 254 398 249 396 245 c 1
 421 219 435 186 435 150 c 0
 435 101 408 58 366 29 c 2
 354 21 l 1
 335 11 349 7 371 11 c 1
 371 9 372 9 372 9 c 1
 372 9 290 -18 289 22 c 0
 289 38 310 43 334 56 c 0
 369 73 395 112 395 150 c 0
 395 170 387 190 375 207 c 1
 345 166 304 152 284 152 c 0
 269 152 253 165 253 181 c 0
 253 197 265 212 282 212 c 0
 299 212 302 199 315 204 c 0
 325 208 337 215 351 232 c 1
 322 255 282 271 235 271 c 0
 145 271 75 215 75 150 c 0
 75 122 81 89 111 57 c 1
 117 72 132 82 149 82 c 0
 172 82 190 64 190 41 c 0
 190 18 168 0 149 0 c 0
 99 -1 36 80 35 150 c 0
 34 237 127 310 235 310 c 0
 288 310 337 294 373 267 c 1
 400 325 379 367 379 367 c 1
 383 369 l 1
149 56 m 0
 140 56 134 50 134 41 c 0
 134 32 140 26 149 26 c 0
 158 26 164 32 164 41 c 0
 164 50 158 56 149 56 c 0
EndSplineSet
Validated: 33
EndChar

StartChar: uni1A47
Encoding: 6727 6727 39
GlifName: uni1A_47
Width: 607
VWidth: 0
GlyphClass: 2
Flags: W
HStem: -11 55<71.1097 197.077> 74 26<64.4343 94.5969> 94 56<411.998 488.594> 270 40<89.2188 214.797> 308 3<452.654 463>
VStem: 38 26<44.9144 73.5657> 95 26<44.3252 73.4823> 270 40<84.3614 211.562>
AnchorPoint: "Bottom_Sara_U" 424 -45 basechar 0
AnchorPoint: "Bottom_Sara_UU" 405 -45 basechar 0
AnchorPoint: "BottomSubjoinedConsonant" 376 -45 basechar 0
AnchorPoint: "BottomWithRightVerticalStem" 558 -45 basechar 0
AnchorPoint: "TopPositioningForSara_I" 420 352 basechar 0
AnchorPoint: "TopRightAlignedMarks" 546 352 basechar 0
AnchorPoint: "TopPositioningForMaiKang" 421 352 basechar 0
AnchorPoint: "TopPositioningForMaiEekMaiKoo" 421 352 basechar 0
AnchorPoint: "TopCenteredOnCenter" 292 352 basechar 0
AnchorPoint: "TopSara_II" 418 352 basechar 0
LayerCount: 3
Fore
SplineSet
449 311 m 2xaf
 463 311 l 1
 463 308 l 1
 435 305 432 298 448 295 c 0
 502 285 529 257 553 219 c 1
 583 165 578 100 541 51 c 1
 542 46 543 41 544 36 c 0
 556 -37 519 -73 519 -73 c 1
 516 -71 l 1
 516 -71 538 -31 517 26 c 1
 514 23 510 21 506 18 c 0
 436 -33 339 -12 290 69 c 1
 263 21 214 -11 161 -11 c 0
 115 -11 38 9 38 59 c 0
 38 82 56 100 79 100 c 0xcf
 102 100 121 82 121 59 c 0
 121 49 118 39 109 32 c 1
 196 8 269 61 270 150 c 1
 269 215 213 269 157 270 c 0
 96 271 72 234 72 234 c 1
 68 229 62 226 55 226 c 0
 44 226 35 235 35 246 c 0
 35 250 35 251 38 255 c 1
 40 258 l 1
 45 264 84 311 157 310 c 0xb7
 238 309 308 237 310 150 c 1
 310 48 425 -9 497 63 c 1
 464 108 441 92 427 94 c 0
 391 101 394 150 434 150 c 0
 452 150 495 141 522 97 c 1
 537 129 536 167 518 199 c 0
 505 221 488 246 438 256 c 0
 412 261 390 262 386 277 c 0
 379 306 425 311 449 311 c 2xaf
79 74 m 0
 70 74 64 68 64 59 c 0
 64 50 70 44 79 44 c 0
 88 44 95 50 95 59 c 0
 95 68 88 74 79 74 c 0
EndSplineSet
Validated: 33
EndChar

StartChar: uni1A48
Encoding: 6728 6728 40
GlifName: uni1A_48
Width: 607
VWidth: 0
GlyphClass: 2
Flags: W
HStem: -11 55<71.1097 197.077> 74 26<64.4343 94.5969> 270 40<90.0834 214.797> 308 3<452.654 463>
VStem: 38 26<44.9144 73.5657> 95 26<44.3252 73.4823> 270 40<84.3938 211.562>
AnchorPoint: "Bottom_Sara_U" 424 -45 basechar 0
AnchorPoint: "Bottom_Sara_UU" 405 -45 basechar 0
AnchorPoint: "BottomSubjoinedConsonant" 376 -45 basechar 0
AnchorPoint: "BottomWithRightVerticalStem" 558 -45 basechar 0
AnchorPoint: "TopPositioningForSara_I" 420 352 basechar 0
AnchorPoint: "TopRightAlignedMarks" 546 352 basechar 0
AnchorPoint: "TopPositioningForMaiKang" 421 352 basechar 0
AnchorPoint: "TopPositioningForMaiEekMaiKoo" 421 352 basechar 0
AnchorPoint: "TopCenteredOnCenter" 292 352 basechar 0
AnchorPoint: "TopSara_II" 418 352 basechar 0
LayerCount: 3
Fore
SplineSet
35 246 m 0xee
 35 264 87 311 157 310 c 0xee
 238 309 308 237 310 150 c 1
 310 57 407 -3 482 51 c 0
 565 111 542 235 438 256 c 0
 412 261 390 262 386 277 c 0
 379 306 425 311 449 311 c 2
 463 311 l 1
 463 308 l 1xde
 435 305 432 298 448 295 c 0
 502 285 529 257 553 219 c 1
 591 152 573 66 506 18 c 0
 436 -33 339 -12 290 69 c 1
 263 21 214 -11 161 -11 c 0
 115 -11 38 9 38 59 c 0
 38 82 56 100 79 100 c 0
 102 100 121 82 121 59 c 0
 121 49 118 39 109 32 c 1
 196 8 269 61 270 150 c 1
 269 215 213 269 157 270 c 0
 96 271 71 234 71 234 c 1
 67 229 62 226 55 226 c 0
 44 226 35 235 35 246 c 0xee
79 74 m 0
 70 74 64 68 64 59 c 0
 64 50 70 44 79 44 c 0
 88 44 95 50 95 59 c 0
 95 68 88 74 79 74 c 0
EndSplineSet
Validated: 33
EndChar

StartChar: uni1A49
Encoding: 6729 6729 41
GlifName: uni1A_49
Width: 590
VWidth: 0
GlyphClass: 2
Flags: HMW
AnchorPoint: "Bottom_Sara_U" 424 -45 basechar 0
AnchorPoint: "Bottom_Sara_UU" 405 -45 basechar 0
AnchorPoint: "BottomSubjoinedConsonant" 376 -45 basechar 0
AnchorPoint: "BottomWithRightVerticalStem" 558 -45 basechar 0
AnchorPoint: "TopPositioningForSara_I" 420 352 basechar 0
AnchorPoint: "TopRightAlignedMarks" 546 352 basechar 0
AnchorPoint: "TopPositioningForMaiKang" 421 352 basechar 0
AnchorPoint: "TopPositioningForMaiEekMaiKoo" 421 352 basechar 0
AnchorPoint: "TopCenteredOnCenter" 292 352 basechar 0
AnchorPoint: "TopSara_II" 418 352 basechar 0
LayerCount: 3
Fore
SplineSet
75 119 m 0
 75 66 119 30 191 30 c 0
 232 30 278 57 284 106 c 0
 288 142 257 162 266 214 c 1
 284 309 379 311 400 311 c 0
 476 311 557 244 555 154 c 0
 554 83 516 41 500 29 c 2
 487 19 l 1
 473 10 479 5 507 12 c 1
 508 10 507 10 507 10 c 1
 507 10 429 -26 424 14 c 0
 422 33 456 41 476 61 c 1
 487 70 514 98 515 155 c 0
 516 220 453 271 401 271 c 0
 350 271 315 253 306 206 c 0
 298 165 329 157 323 102 c 1
 314 31 249 -11 190 -10 c 1
 81 -10 35 60 35 119 c 0
 35 187 84 202 100 223 c 1
 83 228 71 244 71 262 c 0
 71 285 89 304 112 304 c 0
 146 304 183 256 121 192 c 0
 92 163 75 155 75 119 c 0
112 278 m 0
 103 278 97 271 97 262 c 0
 97 253 103 247 112 247 c 0
 121 247 127 253 127 262 c 0
 127 271 121 278 112 278 c 0
EndSplineSet
Validated: 33
EndChar

StartChar: uni1A4A
Encoding: 6730 6730 42
GlifName: uni1A_4A_
Width: 486
VWidth: 0
GlyphClass: 2
Flags: W
HStem: -330 40<138.286 366.879> -119 25<180.157 324.401> 80 43<183.805 255.797> 270 40<142.933 325.552>
VStem: 36 41<42.516 95.3295> 43 40<-246.547 1 44.3277 56.532> 217 3<51.9854 55> 256 41<46.542 78.6057> 403 40<-259.541 -165.535> 435 4<-10 -1.3754>
AnchorPoint: "Bottom_Sara_U" 257 -44 basechar 0
AnchorPoint: "Bottom_Sara_UU" 232 -45 basechar 0
AnchorPoint: "BottomSubjoinedConsonant" 238 -44 basechar 0
AnchorPoint: "BottomWithRightVerticalStem" 442 -45 basechar 0
AnchorPoint: "TopCenteredOnCenter" 240 352 basechar 0
AnchorPoint: "TopPositioningForSara_I" 302 352 basechar 0
AnchorPoint: "TopSara_II" 288 352 basechar 0
AnchorPoint: "TopRightAlignedMarks" 430 352 basechar 0
AnchorPoint: "TopPositioningForMaiKang" 324 352 basechar 0
AnchorPoint: "TopPositioningForMaiEekMaiKoo" 324 352 basechar 0
LayerCount: 3
Fore
SplineSet
36 57 m 0xfb
 36 99 73 127 73 136 c 0
 73 143 58 147 46 154 c 0
 33 162 34 173 37 187 c 1
 66 271 138 310 232 310 c 0
 289 310 339 299 380 258 c 0
 493 143 439 3 439 -10 c 1
 435 -10 l 1
 433 12 454 146 361 226 c 0
 322 260 280 270 232 270 c 1
 158 268 104 241 80 187 c 1
 74 176 115 177 118 146 c 0
 122 117 77 78 77 57 c 0xfb40
 77 35 105 41 116 51 c 0
 146 77 171 123 232 123 c 0
 275 123 297 89 297 66 c 0
 297 51 293 39 285 32 c 0
 266 15 223 10 217 53 c 1
 220 55 l 1
 228 32 251 43 253 46 c 0
 255 49 257 51 256 62 c 0
 256 66 253 80 231 80 c 0
 169 80 154 -13 83 1 c 1
 83 -202 l 2
 83 -275 193 -290 243 -290 c 0
 352 -290 400 -267 403 -218 c 1
 403 -139 311 -120 243 -119 c 0
 157 -117 89 -152 89 -152 c 1
 87 -150 l 1
 87 -150 160 -99 243 -94 c 0
 385 -87 443 -144 443 -218 c 0
 442 -264 417 -330 243 -330 c 0
 168 -330 43 -304 43 -202 c 2
 43 30 l 1xf780
 39 38 36 47 36 57 c 0xfb
EndSplineSet
Validated: 33
EndChar

StartChar: uni1A4B
Encoding: 6731 6731 43
GlifName: uni1A_4B_
Width: 488
VWidth: 0
GlyphClass: 2
Flags: W
HStem: 162 26<188.434 218.534> 169 25<287.541 317.446> 225 26<305 317.3> 269 41<305.475 385.411>
VStem: 35 40<42.6518 111.418 187.512 259.246> 87 52<134.638 161.281> 162 26<188.434 218.495> 219 26<188.578 218.24> 261 26<194.569 224.258> 318 26<194.473 224.767>
AnchorPoint: "Bottom_Sara_U" 339 -45 basechar 0
AnchorPoint: "Bottom_Sara_UU" 320 -45 basechar 0
AnchorPoint: "BottomSubjoinedConsonant" 252 -45 basechar 0
AnchorPoint: "BottomWithRightVerticalStem" 447 -45 basechar 0
AnchorPoint: "TopPositioningForSara_I" 303 352 basechar 0
AnchorPoint: "TopRightAlignedMarks" 433 352 basechar 0
AnchorPoint: "TopPositioningForMaiKang" 334 352 basechar 0
AnchorPoint: "TopPositioningForMaiEekMaiKoo" 334 352 basechar 0
AnchorPoint: "TopCenteredOnCenter" 250 352 basechar 0
AnchorPoint: "TopSara_II" 301 352 basechar 0
LayerCount: 3
Fore
SplineSet
342 310 m 0x7fc0
 458 310 480 144 426 51 c 1
 480 -36 430 -111 430 -111 c 2
 427 -110 l 1
 427 -110 443 -28 401 21 c 1
 337 -36 259 -9 259 47 c 0
 259 99 335 125 397 82 c 1
 428 152 417 259 353 269 c 0
 333 272 315 267 305 251 c 1
 326 250 344 232 344 210 c 0
 344 187 326 169 303 169 c 0
 280 169 261 187 261 210 c 0
 261 239 263 271 301 300 c 0
 311 307 324 310 339 310 c 0
 340 310 341 310 342 310 c 0x7fc0
136 310 m 0
 209 309 247 248 245 203 c 0
 244 184 226 162 203 162 c 0xbfc0
 180 162 162 180 162 203 c 0
 162 223 177 240 196 244 c 1
 156 286 73 276 75 222 c 0
 77 174 139 179 139 148 c 0
 139 115 73 129 75 68 c 0
 76 34 159 -7 256 70 c 1
 258 68 l 1
 195 -55 35 -17 35 69 c 0
 35 108 61 136 79 143 c 0
 82 144 87 146 87 148 c 0
 87 151 83 151 79 153 c 0
 60 160 35 189 35 222 c 0
 36 273 78 310 133 310 c 0
 134 310 135 310 136 310 c 0
303 225 m 0
 294 225 287 219 287 210 c 0
 287 201 294 194 303 194 c 0x7fc0
 312 194 318 201 318 210 c 0
 318 219 312 225 303 225 c 0
203 219 m 0
 194 219 188 212 188 203 c 0
 188 194 194 188 203 188 c 0xbfc0
 212 188 219 194 219 203 c 0
 219 211 212 219 203 219 c 0
330 64 m 0
 285 64 289 29 331 29 c 0
 347 29 362 37 375 49 c 1
 360 59 349 64 330 64 c 0
EndSplineSet
Validated: 33
EndChar

StartChar: uni1A4C
Encoding: 6732 6732 44
GlifName: uni1A_4C_
Width: 590
VWidth: 0
GlyphClass: 2
Flags: W
HStem: -330 40<135.628 429.707> -121 32<155.836 392.163> -10 40<113.918 250.452> 10 2<505.704 507.001> 271 40<331.89 460.079> 278 26<97.5177 126.481>
VStem: 36 40<-250.457 -168.17 64.8806 167.32> 71 26<247.298 277.597> 513 40<-237.551 42 80.8404 220.026>
AnchorPoint: "Bottom_Sara_U" 424 -45 basechar 0
AnchorPoint: "Bottom_Sara_UU" 405 -45 basechar 0
AnchorPoint: "BottomSubjoinedConsonant" 376 -45 basechar 0
AnchorPoint: "BottomWithRightVerticalStem" 558 -45 basechar 0
AnchorPoint: "TopPositioningForSara_I" 420 352 basechar 0
AnchorPoint: "TopRightAlignedMarks" 546 352 basechar 0
AnchorPoint: "TopPositioningForMaiKang" 421 352 basechar 0
AnchorPoint: "TopPositioningForMaiEekMaiKoo" 421 352 basechar 0
AnchorPoint: "TopCenteredOnCenter" 292 352 basechar 0
AnchorPoint: "TopSara_II" 418 352 basechar 0
LayerCount: 3
Fore
SplineSet
75 119 m 0xe580
 75 66 119 30 191 30 c 0xe580
 232 30 278 57 284 106 c 0
 288 142 257 162 266 214 c 1
 284 309 379 311 400 311 c 0
 476 311 557 244 555 154 c 0
 555 145 554 138 553 130 c 1
 553 -201 l 2
 553 -309 367 -330 293 -330 c 0
 74 -330 36 -259 36 -212 c 0
 36 -163 78 -81 293 -89 c 0
 382 -93 448 -118 496 -158 c 1
 495 -160 l 1
 429 -134 378 -121 293 -121 c 0
 159 -120 76 -151 76 -213 c 0
 76 -289 256 -290 293 -290 c 0
 353 -290 513 -272 513 -201 c 2
 513 42 l 1
 508 36 504 32 500 29 c 2
 487 19 l 1
 473 10 479 5 507 12 c 1
 508 10 507 10 507 10 c 1
 507 10 429 -26 424 14 c 0
 422 33 456 41 476 61 c 1
 487 70 514 98 515 155 c 0
 516 220 453 271 401 271 c 0xda80
 350 271 315 253 306 206 c 0
 298 165 329 157 323 102 c 1
 314 31 249 -11 190 -10 c 1
 81 -10 35 60 35 119 c 0
 35 187 84 202 100 223 c 1
 83 228 71 244 71 262 c 0
 71 285 89 304 112 304 c 0
 146 304 183 256 121 192 c 0
 92 163 75 155 75 119 c 0xe580
112 278 m 0
 103 278 97 271 97 262 c 0
 97 253 103 247 112 247 c 0
 121 247 127 253 127 262 c 0
 127 271 121 278 112 278 c 0
EndSplineSet
Validated: 33
EndChar

StartChar: uni1A4D
Encoding: 6733 6733 45
GlifName: uni1A_4D_
Width: 497
VWidth: 0
GlyphClass: 2
Flags: W
HStem: -1 26<150.574 179.482> 10 2<383.439 386> 56 26<150.367 179.566> 269 40<112.44 213.484 286.526 382.361>
VStem: 180 26<25.4031 55.5657> 304 159<20 149> 386 3<-261 -255.644>
LayerCount: 3
Fore
SplineSet
250 217 m 0x7c
 212 217 236 269 156 269 c 0
 82 269 36 123 126 50 c 1
 127 69 147 82 165 82 c 0
 188 82 206 64 206 41 c 0
 206 18 188 -1 165 -1 c 0
 63 -1 -8 152 66 257 c 0
 87 287 119 309 156 309 c 0
 210 309 238 285 250 267 c 1
 259 281 284 309 335 309 c 0
 404 309 465 238 463 149 c 0xbc
 461 94 419 48 367 21 c 0
 352 13 358 7 386 12 c 1
 386 10 l 1x7a
 386 10 306 -20 304 20 c 0
 303 36 324 41 347 55 c 0
 383 78 417 106 423 151 c 1
 427 205 388 269 334 269 c 0
 283 269 286 239 268 225 c 0
 264 222 258 217 250 217 c 0x7c
165 56 m 0
 156 56 150 50 150 41 c 0
 150 32 156 25 165 25 c 0
 174 25 180 32 180 41 c 0
 180 50 174 56 165 56 c 0
239 -32 m 1
 272 -31 306 -37 333 -57 c 0
 357 -76 377 -101 388 -129 c 1
 402 -170 400 -219 389 -261 c 0
 388 -261 387 -261 386 -261 c 1x3a
 388 -223 384 -183 369 -147 c 1
 332 -44 178 -42 140 -114 c 0
 139 -117 133 -121 138 -124 c 0
 147 -130 161 -135 162 -148 c 1
 166 -173 130 -200 134 -217 c 1
 144 -238 180 -193 183 -190 c 0
 232 -138 298 -174 289 -216 c 1
 287 -232 270 -241 255 -241 c 0
 242 -241 233 -228 231 -216 c 1
 232 -215 232 -216 234 -215 c 1
 239 -232 265 -221 256 -206 c 0
 252 -197 239 -199 231 -200 c 0
 212 -204 201 -222 188 -234 c 1
 177 -246 162 -257 145 -256 c 1
 109 -256 80 -217 119 -168 c 0
 121 -164 126 -161 127 -157 c 1
 124 -151 116 -151 111 -147 c 1
 85 -134 115 -88 124 -78 c 0
 152 -45 197 -32 239 -32 c 1
EndSplineSet
Validated: 33
EndChar

StartChar: uni1A4E
Encoding: 6734 6734 46
GlifName: uni1A_4E_
Width: 606
VWidth: 0
GlyphClass: 2
Flags: W
HStem: -176 40<412.21 484.868> -1 26<149.574 178.482> 10 2<382.439 385> 56 26<149.367 178.566> 269 40<111.44 212.484 285.526 381.361>
VStem: 179 26<25.4031 55.5657> 303 159<20 149> 340 3<-95.9993 -87.136> 343 3<-261 -255.644> 510 40<-107.659 242.735> 569 2<232 234.163>
LayerCount: 3
Fore
SplineSet
249 217 m 0xbce0
 211 217 235 269 155 269 c 0
 81 269 35 123 125 50 c 1
 126 69 146 82 164 82 c 0
 187 82 205 64 205 41 c 0
 205 18 187 -1 164 -1 c 0xdce0
 62 -1 -9 152 65 257 c 0
 86 287 118 309 155 309 c 0
 209 309 237 285 249 267 c 1
 258 281 283 309 334 309 c 0
 403 309 464 238 462 149 c 0
 460 94 418 48 366 21 c 0
 351 13 357 7 385 12 c 1
 385 10 l 1
 385 10 305 -20 303 20 c 0xbe60
 302 36 323 41 346 55 c 0
 382 78 416 106 422 151 c 1
 426 205 387 269 333 269 c 0
 282 269 285 239 267 225 c 0
 263 222 257 217 249 217 c 0xbce0
511 245 m 0
 511 263 501 300 528 300 c 0
 556 300 571 233 571 233 c 1
 569 232 l 1
 559 256 551 259 551 247 c 0
 550 156 550 66 550 -25 c 1
 547 -140 490 -176 450 -176 c 0
 393 -176 363 -130 355 -75 c 1
 352 -66 346 -72 343 -96 c 1x9ce0
 341 -96 340 -95 340 -95 c 1x9d60
 340 -95 337 -9 376 -20 c 1
 403 -30 385 -136 447 -136 c 0
 472 -136 507 -116 510 -24 c 1
 512 83 511 235 511 245 c 0
164 56 m 0
 155 56 149 50 149 41 c 0
 149 32 155 25 164 25 c 0xdc60
 173 25 179 32 179 41 c 0
 179 50 173 56 164 56 c 0
203 -32 m 2
 207 -32 l 1
 293 -33 386 -107 346 -261 c 0
 345 -261 344 -261 343 -261 c 1x9ce0
 345 -223 341 -183 326 -147 c 1
 298 -69 171 -23 119 -114 c 0
 117 -117 112 -121 117 -124 c 0
 126 -130 140 -135 141 -148 c 1
 145 -173 109 -200 113 -217 c 1
 123 -238 159 -193 162 -190 c 0
 211 -138 277 -174 268 -216 c 1
 266 -232 249 -241 234 -241 c 0
 221 -241 212 -229 210 -216 c 1
 211 -215 211 -216 213 -215 c 1
 218 -232 244 -221 235 -206 c 0
 231 -197 218 -199 210 -200 c 0
 191 -204 180 -222 167 -234 c 1
 156 -246 141 -257 124 -256 c 1
 88 -256 59 -217 98 -168 c 0
 100 -164 105 -161 106 -157 c 1
 103 -151 95 -151 90 -147 c 1
 64 -134 94 -88 103 -78 c 0
 130 -46 163 -32 203 -32 c 2
EndSplineSet
Validated: 33
EndChar

StartChar: uni1A4F
Encoding: 6735 6735 47
GlifName: uni1A_4F_
Width: 366
VWidth: 0
GlyphClass: 2
Flags: W
HStem: -330 33<159.531 387.672> 0 39<87.3541 252.972> 182 26<61.4994 91.4823> 226 84<133.604 153.966 184.946 205.213>
VStem: 35 40<-244.326 19> 35 26<208.68 238.316> 92 26<208.403 238.498> 285 40<72.2232 247.358>
LayerCount: 3
Fore
SplineSet
182 39 m 1xf7
 246 43 287 56 285 157 c 1
 286 192 280 258 241 268 c 0
 204 277 213 226 168 226 c 0
 137 226 132 259 115 268 c 0
 103 273 91 271 81 265 c 1
 102 263 118 245 118 224 c 0
 118 201 100 182 77 182 c 0
 54 182 35 201 35 224 c 1xf7
 34 237 36 311 114 308 c 1
 142 308 157 285 161 278 c 0
 176 253 171 280 195 298 c 0
 202 304 211 309 222 310 c 1
 228 310 l 1
 271 307 323 289 325 158 c 0
 327 21 257 4 186 0 c 1
 181 0 l 1
 130 1 97 9 75 19 c 1
 75 -116 l 2xfb
 75 -142 76 -161 76 -198 c 0
 76 -277 202 -297 276 -297 c 0
 445 -297 509 -249 509 -249 c 1
 510 -251 l 1
 510 -251 426 -330 275 -330 c 0
 184 -330 35 -312 36 -198 c 0
 37 -112 35 60 35 60 c 2
 35 76 50 80 54 80 c 0
 66 80 71 71 71 71 c 1
 74 68 l 1
 87 55 115 40 182 39 c 1xf7
77 239 m 0
 68 239 61 233 61 224 c 0
 61 215 68 208 77 208 c 0
 86 208 92 215 92 224 c 0
 92 233 86 239 77 239 c 0
EndSplineSet
Validated: 33
EndChar

StartChar: uni1A50
Encoding: 6736 6736 48
GlifName: uni1A_50
Width: 361
VWidth: 0
GlyphClass: 2
Flags: HMW
LayerCount: 3
Fore
SplineSet
182 39 m 1
 246 43 287 56 285 157 c 1
 286 192 280 258 241 268 c 0
 204 277 213 226 168 226 c 0
 137 226 132 259 115 268 c 0
 103 273 91 271 81 265 c 1
 102 263 118 245 118 224 c 0
 118 201 100 182 77 182 c 0
 54 182 35 201 35 224 c 2
 35 224 34 231 35 240 c 1
 35 299 36 445 36 499 c 0
 35 613 184 630 275 630 c 0
 419 630 510 512 510 512 c 1
 509 510 l 1
 509 510 405 595 276 596 c 0
 202 596 76 578 76 499 c 0
 76 462 75 442 75 416 c 2
 75 382 l 1
 73 300 l 1
 83 305 97 309 114 308 c 1
 142 308 157 285 161 278 c 0
 176 253 171 280 195 298 c 0
 202 304 211 309 222 310 c 1
 228 310 l 1
 271 307 323 289 325 158 c 0
 327 21 257 3 186 -1 c 1
 180 -1 l 1
 129 0 97 9 75 19 c 1
 75 -116 l 2
 75 -142 76 -161 76 -198 c 0
 76 -277 202 -297 276 -297 c 0
 445 -297 509 -249 509 -249 c 1
 510 -251 l 1
 510 -251 426 -330 275 -330 c 0
 184 -330 35 -312 36 -198 c 0
 37 -112 35 60 35 60 c 2
 35 76 50 80 54 80 c 0
 66 80 71 70 71 70 c 1
 74 68 l 1
 87 55 115 40 182 39 c 1
77 239 m 0
 68 239 61 233 61 224 c 0
 61 215 68 208 77 208 c 0
 86 208 92 215 92 224 c 0
 92 233 86 239 77 239 c 0
EndSplineSet
Validated: 33
EndChar

StartChar: uni1A51
Encoding: 6737 6737 49
GlifName: uni1A_51
Width: 362
VWidth: 0
GlyphClass: 2
Flags: W
HStem: -330 33<159.531 387.672> 182 26<269.518 298.482>
VStem: 35 40<-244.326 -33.9219 84.2721 246.478> 243 26<208.403 238.498> 299 26<208.403 238.166>
LayerCount: 3
Fore
SplineSet
75 157 m 1
 75 83 86 90 86 84 c 1
 128 21 186 44 186 11 c 0
 186 -5 169 -9 169 -9 c 1
 129 -15 75 -31 75 -65 c 2
 75 -116 l 2
 75 -142 76 -161 76 -198 c 0
 76 -277 202 -297 276 -297 c 0
 445 -297 509 -249 509 -249 c 1
 510 -251 l 1
 510 -251 426 -330 275 -330 c 0
 184 -330 35 -312 36 -198 c 0
 36 -158 35 -115 35 -63 c 0
 35 -32 54 -3 102 15 c 1
 57 40 35 71 35 158 c 1
 37 287 90 307 132 310 c 1
 139 310 l 1
 157 308 170 295 181 279 c 0
 199 253 189 278 215 297 c 0
 223 303 234 308 246 308 c 0
 330 311 324 231 325 224 c 1
 325 201 307 182 284 182 c 0
 261 182 243 201 243 224 c 0
 243 245 259 263 280 265 c 1
 264 275 242 273 232 256 c 0
 229 251 216 226 193 226 c 0
 147 226 157 277 120 268 c 0
 81 258 74 192 75 157 c 1
284 239 m 0
 275 239 269 233 269 224 c 0
 269 215 275 208 284 208 c 0
 293 208 299 215 299 224 c 0
 299 233 293 239 284 239 c 0
EndSplineSet
Validated: 33
EndChar

StartChar: uni1A52
Encoding: 6738 6738 50
GlifName: uni1A_52
Width: 771
VWidth: 0
GlyphClass: 2
Flags: W
HStem: -10 50<141.215 254.198> 71 26<225.569 255.482> 162 26<470.434 500.534> 169 25<569.541 599.446> 225 26<587 599.3> 269 41<155.331 250.988 587.475 669.303>
VStem: 35 38<88.6342 204.827 377.77 518.529> 200 25<40.4768 70.4591> 256 26<40.3565 70.5969> 317 40<39.1777 111.418 187.512 259.246> 369 52<134.638 161.281> 444 26<188.434 218.495> 501 26<188.578 218.24> 543 26<194.569 224.258> 600 26<194.473 224.767>
LayerCount: 3
Fore
SplineSet
626 310 m 0xdffe
 742 310 762 144 708 51 c 1
 762 -36 712 -111 712 -111 c 2
 710 -110 l 1
 710 -110 725 -28 683 21 c 1
 619 -36 541 -9 541 47 c 0
 541 99 617 125 679 82 c 1
 710 152 699 259 635 269 c 0
 615 272 597 267 587 251 c 1
 608 250 626 232 626 210 c 0
 626 187 608 169 585 169 c 0
 562 169 543 187 543 210 c 0
 543 239 545 271 583 300 c 0
 593 307 606 310 621 310 c 0
 622 310 625 310 626 310 c 0xdffe
419 310 m 0
 492 309 529 248 527 203 c 0
 526 184 508 162 485 162 c 0xeffe
 462 162 444 180 444 203 c 0
 444 223 459 240 478 244 c 1
 438 286 355 276 357 222 c 0
 359 174 421 179 421 148 c 0
 421 115 355 129 357 68 c 0
 358 34 436 -9 533 68 c 1
 536 67 l 1
 473 -56 317 -17 317 69 c 0
 317 108 343 136 361 143 c 0
 364 144 369 146 369 148 c 0
 369 151 365 151 361 153 c 0
 342 160 317 189 317 222 c 0
 318 273 359 310 414 310 c 0
 415 310 418 310 419 310 c 0
585 225 m 0
 576 225 569 219 569 210 c 0
 569 201 576 194 585 194 c 0xdffe
 594 194 600 201 600 210 c 0
 600 219 594 225 585 225 c 0
485 219 m 0
 476 219 470 212 470 203 c 0
 470 194 476 188 485 188 c 0xeffe
 494 188 501 194 501 203 c 0
 501 211 494 219 485 219 c 0
612 64 m 0
 567 64 571 29 613 29 c 0
 629 29 644 37 657 49 c 1
 642 59 631 64 612 64 c 0
150 290 m 1
 57 321 35 393 35 459 c 0
 35 654 388 701 574 501 c 1
 569 497 l 1
 569 497 452 593 266 592 c 0
 157 592 73 539 73 459 c 0
 73 342 140 331 235 309 c 1
 235 309 251 305 251 290 c 0
 251 275 235 271 235 271 c 1
 135 264 77 225 78 150 c 0
 79 74 130 16 208 30 c 1
 202 37 200 45 200 55 c 0
 200 78 218 97 241 97 c 0
 264 97 282 78 282 55 c 1
 276 8 220 -10 171 -10 c 0
 102 -10 33 54 36 151 c 0
 38 222 72 269 150 290 c 1
241 71 m 0
 232 71 225 64 225 55 c 0
 225 46 232 40 241 40 c 0
 250 40 256 46 256 55 c 0
 256 64 250 71 241 71 c 0
EndSplineSet
Validated: 33
EndChar

StartChar: uni1A53
Encoding: 6739 6739 51
GlifName: uni1A_53
Width: 602
VWidth: 0
GlyphClass: 2
Flags: W
HStem: -10 40<335.958 463.405> -3 26<138.898 167.24> 53 26<138.423 167.566> 270 40<129.078 251.28> 305 40<307.858 426 482 510.113> 596 33<283.712 467.264>
VStem: 35 40<80.5708 215.259> 168 26<23.4903 52.5657>
LayerCount: 3
Fore
SplineSet
35 150 m 0x77
 35 237 100 310 193 310 c 1x77
 281 311 355 228 315 136 c 0
 309 122 305 114 309 94 c 0
 320 31 384 29 404 30 c 0
 502 36 545 139 499 220 c 1
 477 255 457 268 440 305 c 1
 315 301 180 348 175 473 c 0
 174 504 183 542 210 573 c 1
 248 610 304 629 357 629 c 0
 520 629 595 535 595 535 c 1
 593 530 l 1
 578 538 514 596 364 596 c 0
 209 596 178 460 256 394 c 0
 281 373 332 345 426 345 c 1xaf
 420 382 435 415 463 431 c 0
 503 453 551 425 555 382 c 0
 558 346 529 318 482 310 c 1
 509 264 564 229 558 140 c 1
 554 53 478 -10 403 -10 c 0xb7
 292 -10 247 74 278 152 c 0
 284 167 289 175 287 194 c 0
 281 243 235 270 194 270 c 0
 107 270 73 194 75 150 c 0
 76 115 81 87 116 56 c 1
 123 70 137 79 153 79 c 0
 176 79 194 61 194 38 c 0
 194 15 176 -2 153 -3 c 0
 124 -4 105 15 89 28 c 0
 61 50 35 90 35 150 c 0x77
494 400 m 0
 478 400 458 383 467 348 c 1
 515 356 516 371 515 378 c 0
 514 391 505 400 494 400 c 0
153 53 m 0
 144 53 138 47 138 38 c 0
 138 29 144 23 153 23 c 0
 162 23 168 29 168 38 c 0
 168 47 162 53 153 53 c 0
EndSplineSet
Validated: 33
EndChar

StartChar: uni1A54
Encoding: 6740 6740 52
GlifName: uni1A_54
Width: 868
VWidth: 0
GlyphClass: 2
Flags: HMW
AnchorPoint: "Bottom_Sara_U" 710 -45 basechar 0
AnchorPoint: "Bottom_Sara_UU" 691 -45 basechar 0
AnchorPoint: "BottomSubjoinedConsonant" 682 -45 basechar 0
AnchorPoint: "BottomWithRightVerticalStem" 824 -45 basechar 0
AnchorPoint: "TopPositioningForSara_I" 690 352 basechar 0
AnchorPoint: "TopRightAlignedMarks" 816 352 basechar 0
AnchorPoint: "TopPositioningForMaiKang" 691 352 basechar 0
AnchorPoint: "TopPositioningForMaiEekMaiKoo" 691 352 basechar 0
AnchorPoint: "TopCenteredOnCenter" 540 352 basechar 0
AnchorPoint: "TopSara_II" 688 352 basechar 0
LayerCount: 3
Fore
SplineSet
35 246 m 0
 35 260 83 311 157 310 c 0
 238 309 309 237 311 150 c 1
 311 54 408 -2 482 51 c 0
 565 111 542 235 438 256 c 0
 412 261 391 262 387 277 c 0
 380 306 426 311 450 311 c 2
 463 311 l 1
 463 308 l 1
 435 305 432 298 448 295 c 0
 502 285 530 257 554 219 c 1
 569 192 575 161 572 131 c 1
 586 41 677 4 742 51 c 0
 825 111 802 235 698 256 c 0
 672 261 651 262 647 277 c 0
 640 306 686 311 710 311 c 2
 723 311 l 1
 723 308 l 1
 695 305 692 298 708 295 c 0
 762 285 790 257 814 219 c 1
 852 152 833 66 766 18 c 0
 683 -43 582 7 552 67 c 1
 541 48 525 32 506 18 c 0
 436 -33 339 -12 290 69 c 1
 263 21 214 -11 161 -11 c 0
 115 -11 38 9 38 59 c 0
 38 82 57 100 80 100 c 0
 103 100 121 82 121 59 c 0
 121 49 118 39 109 32 c 1
 196 8 270 61 271 150 c 1
 270 215 213 269 157 270 c 0
 96 271 72 234 72 234 c 1
 68 229 62 226 55 226 c 0
 44 226 35 235 35 246 c 0
80 74 m 0
 71 74 64 68 64 59 c 0
 64 50 71 44 80 44 c 0
 89 44 95 50 95 59 c 0
 95 68 89 74 80 74 c 0
EndSplineSet
Validated: 33
EndChar

StartChar: uni1A55
Encoding: 6741 6741 53
GlifName: uni1A_55
Width: 113
VWidth: 0
GlyphClass: 2
Flags: HMW
LayerCount: 3
Fore
SplineSet
306 631 m 0
 508 631 630 480 630 480 c 1
 628 478 l 1
 628 478 509 592 306 593 c 0
 203 594 168 576 133 560 c 0
 116 552 101 541 91 530 c 0
 81 519 75 507 75 492 c 2
 75 -20 l 1
 77 -113 83 -187 224 -192 c 1
 225 -196 l 1
 123 -209 35 -196 35 -20 c 2
 35 492 l 2
 35 517 46 540 61 557 c 0
 76 574 96 586 117 596 c 0
 176 626 232 631 306 631 c 0
EndSplineSet
Validated: 33
Substitution2: "prefPreBaseFormsinlanalookup0 subtable" uni1A55
EndChar

StartChar: uni1A60
Encoding: 6752 6752 54
GlifName: uni1A_60
Width: 387
VWidth: 0
GlyphClass: 2
Flags: W
HStem: -188 40<97 174 214 291> -9 40<150.376 174 213 236.624> 269 40<149.376 174 213 236.624>
VStem: 35 40<106.376 130 169 192.624> 174 40<-265 -188 -148 -71> 312 40<106.376 130 169 193.624>
LayerCount: 3
Fore
SplineSet
213 309 m 1
 228 307 242 303 256 297 c 1
 237 262 l 1
 229 265 220 268 211 269 c 1
 213 309 l 1
174 309 m 1
 175 269 l 1
 166 268 157 264 149 261 c 1
 130 297 l 1
 144 303 159 307 174 309 c 1
289 278 m 1
 301 269 312 258 321 246 c 1
 287 225 l 1
 281 232 275 238 268 244 c 1
 289 278 l 1
97 277 m 1
 118 244 l 1
 111 238 105 231 99 224 c 1
 65 246 l 1
 74 258 85 268 97 277 c 1
341 212 m 1
 347 198 350 184 352 169 c 1
 312 168 l 1
 311 177 308 186 305 194 c 1
 341 212 l 1
46 212 m 1
 81 193 l 1
 78 185 76 176 75 167 c 1
 35 169 l 1
 37 184 40 198 46 212 c 1
312 132 m 1
 352 130 l 1
 350 115 347 101 341 87 c 1
 305 106 l 1
 308 114 311 123 312 132 c 1
75 132 m 1
 76 123 79 114 82 106 c 1
 46 87 l 1
 40 100 37 115 35 130 c 1
 75 132 l 1
287 75 m 1
 321 54 l 1
 312 42 301 31 289 22 c 1
 268 56 l 1
 275 62 281 68 287 75 c 1
100 75 m 1
 106 68 112 62 119 56 c 1
 97 22 l 1
 85 31 75 42 66 54 c 1
 100 75 l 1
237 38 m 1
 256 3 l 1
 243 -3 228 -7 213 -9 c 1
 211 31 l 1
 220 32 229 35 237 38 c 1
150 38 m 1
 158 35 167 32 176 31 c 1
 174 -9 l 1
 159 -7 144 -3 131 3 c 1
 150 38 l 1
214 -71 m 1
 214 -148 l 1
 291 -148 l 1
 291 -188 l 1
 214 -188 l 1
 214 -265 l 1
 174 -265 l 1
 174 -188 l 1
 97 -188 l 1
 97 -148 l 1
 174 -148 l 1
 174 -71 l 1
 214 -71 l 1
EndSplineSet
Validated: 1
EndChar

StartChar: uni1A65
Encoding: 6757 6757 55
GlifName: uni1A_65
Width: 0
VWidth: 0
GlyphClass: 4
Flags: HMW
AnchorPoint: "TopPositioningForSara_I" -117 352 mark 0
LayerCount: 3
Fore
SplineSet
-119 536 m 0
 -82 536 -48 520 -24 489 c 0
 4 453 15 381 -43 346 c 1
 -45 348 l 1
 -16 384 -20 437 -48 465 c 1
 -67 486 -88 496 -118 496 c 0
 -150 496 -171 485 -192 469 c 0
 -219 448 -221 410 -202 392 c 0
 -191 382 -176 387 -173 398 c 0
 -169 410 -181 420 -197 414 c 1
 -199 416 l 1
 -179 447 -136 429 -139 390 c 0
 -141 368 -165 353 -186 353 c 0
 -228 352 -250 387 -250 428 c 0
 -250 459 -234 482 -218 497 c 0
 -189 525 -154 536 -119 536 c 0
EndSplineSet
Validated: 33
EndChar

StartChar: uni1A66
Encoding: 6758 6758 56
GlifName: uni1A_66
Width: 0
VWidth: 0
GlyphClass: 4
Flags: HMW
AnchorPoint: "TopSara_II" -155 352 mark 0
LayerCount: 3
Fore
SplineSet
-190 536 m 0
 -153 536 -119 520 -95 489 c 0
 -67 453 -56 381 -114 346 c 1
 -116 348 l 1
 -87 384 -91 437 -119 465 c 1
 -138 486 -159 496 -189 496 c 0
 -221 496 -242 485 -263 469 c 0
 -290 448 -292 410 -273 392 c 0
 -262 382 -247 387 -244 398 c 0
 -240 410 -253 421 -269 415 c 1
 -270 416 l 1
 -250 447 -207 429 -210 390 c 0
 -212 368 -236 353 -257 353 c 0
 -299 352 -321 387 -321 428 c 0
 -321 459 -305 482 -289 497 c 0
 -260 525 -225 536 -190 536 c 0
-36 525 m 0
 -28 525 -22 521 -19 515 c 0
 -14 505 -9 497 -5 480 c 0
 9 427 -15 361 -81 346 c 1
 -82 348 l 1
 -45 372 -27 421 -42 463 c 0
 -47 477 -50 483 -56 493 c 0
 -61 501 -61 512 -49 520 c 0
 -45 523 -40 525 -36 525 c 0
EndSplineSet
Validated: 33
EndChar

StartChar: uni1A67
Encoding: 6759 6759 57
GlifName: uni1A_67
Width: 0
VWidth: 0
GlyphClass: 4
Flags: HMW
AnchorPoint: "TopPositioningForSara_I" -132 352 mark 0
LayerCount: 3
Fore
SplineSet
-135 537 m 4
 -111 537 -86 532 -65 521 c 4
 -39 507 -20 487 -9 459 c 4
 -3 443 0 424 -1 411 c 4
 -3 371 -30 343 -68 357 c 4
 -92 366 -95 392 -90 409 c 4
 -86 423 -67 441 -39 444 c 5
 -39 446 -39 442 -39 442 c 5
 -53 433 -62 424 -65 414 c 4
 -70 399 -69 384 -56 381 c 4
 -44 378 -36 389 -33 401 c 4
 -25 437 -46 471 -79 486 c 4
 -96 494 -115 497 -134 497 c 4
 -166 496 -194 484 -215 468 c 4
 -242 447 -245 411 -226 393 c 4
 -215 383 -200 387 -197 398 c 4
 -193 410 -205 422 -221 416 c 5
 -223 417 l 5
 -203 448 -160 430 -163 391 c 4
 -165 369 -189 353 -210 353 c 4
 -252 352 -273 388 -273 429 c 4
 -273 460 -257 482 -241 497 c 4
 -212 525 -170 537 -135 537 c 4
EndSplineSet
Validated: 37
EndChar

StartChar: uni1A68
Encoding: 6760 6760 58
GlifName: uni1A_68
Width: 0
VWidth: 0
GlyphClass: 4
Flags: HMW
AnchorPoint: "TopPositioningForSara_I" -172 351 mark 0
LayerCount: 3
Fore
SplineSet
-175 536 m 1
 -168 536 l 2
 -168 536 -127 531 -105 520 c 0
 -85 510 -70 496 -57 477 c 1
 -25 487 -1 482 -1 482 c 1
 -1 479 l 1
 -19 472 -35 465 -48 456 c 1
 -40 440 -39 424 -40 411 c 0
 -42 371 -72 340 -109 356 c 0
 -135 367 -138 396 -132 412 c 0
 -124 435 -108 449 -89 461 c 1
 -99 474 -110 482 -118 485 c 0
 -136 491 -155 496 -174 496 c 0
 -206 495 -233 483 -254 467 c 0
 -281 446 -285 410 -266 392 c 0
 -255 382 -239 386 -236 397 c 0
 -232 409 -243 420 -259 414 c 1
 -262 416 l 1
 -242 447 -199 429 -202 390 c 0
 -204 368 -229 352 -250 352 c 0
 -292 351 -313 387 -313 428 c 0
 -313 459 -297 481 -281 496 c 0
 -252 524 -210 536 -175 536 c 1
-74 440 m 1
 -86 433 -96 424 -101 412 c 0
 -108 397 -108 385 -96 381 c 0
 -84 377 -75 389 -72 401 c 0
 -69 413 -68 421 -74 440 c 1
EndSplineSet
Validated: 33
EndChar

StartChar: uni1A69
Encoding: 6761 6761 59
GlifName: uni1A_69
Width: 0
VWidth: 0
GlyphClass: 4
Flags: HMW
AnchorPoint: "Bottom_Sara_U" -278 -45 mark 0
LayerCount: 3
Fore
SplineSet
-257 -158 m 0
 -257 -182 -185 -192 -154 -193 c 0
 -39 -198 -3 -181 -3 -181 c 1
 -1 -184 l 1
 -1 -184 -56 -216 -162 -216 c 0
 -233 -216 -297 -203 -297 -160 c 0
 -297 -61 l 1
 -257 -61 l 1
 -257 -158 l 0
EndSplineSet
Validated: 33
EndChar

StartChar: uni1A6A
Encoding: 6762 6762 60
GlifName: uni1A_6A_
Width: 0
VWidth: 0
GlyphClass: 4
Flags: HMW
AnchorPoint: "Bottom_Sara_UU" -312 -46 mark 0
LayerCount: 3
Fore
SplineSet
-367 -61 m 1
 -327 -61 l 1
 -327 -194 l 1
 -367 -194 l 1
 -367 -61 l 1
-257 -61 m 1
 -257 -62 l 1
 -257 -62 -256 -122 -257 -158 c 0
 -257 -182 -185 -192 -154 -193 c 0
 -39 -198 -3 -181 -3 -181 c 1
 -1 -184 l 1
 -1 -184 -56 -216 -162 -216 c 0
 -233 -216 -297 -203 -297 -160 c 0
 -297 -61 l 1
 -257 -61 l 1
EndSplineSet
Validated: 33
EndChar

StartChar: uni1A21.sub
Encoding: 57377 57377 61
GlifName: uni1A_21.sub
Width: 0
VWidth: 0
GlyphClass: 4
Flags: HMW
AnchorPoint: "BottomSubjoinedConsonant" -166 -45 mark 0
LayerCount: 3
Fore
SplineSet
-111 -45 m 0
 -10 -45 -1 -164 -33 -228 c 1
 1 -262 3 -299 -11 -327 c 0
 -12 -331 -15 -334 -19 -330 c 1
 -23 -291 -29 -271 -53 -256 c 1
 -117 -320 -258 -313 -299 -272 c 0
 -315 -256 -319 -229 -307 -210 c 0
 -271 -149 -138 -150 -61 -204 c 1
 -49 -176 -50 -128 -68 -99 c 1
 -81 -83 -103 -78 -122 -82 c 0
 -138 -85 -148 -99 -158 -111 c 0
 -166 -121 -183 -122 -191 -112 c 0
 -201 -100 -210 -86 -225 -81 c 0
 -239 -77 -256 -75 -269 -84 c 1
 -236 -93 -236 -144 -272 -151 c 0
 -290 -155 -309 -143 -313 -126 c 0
 -320 -96 -304 -63 -275 -51 c 0
 -241 -37 -198 -47 -174 -75 c 1
 -159 -57 -135 -45 -111 -45 c 0
-280 -107 m 0
 -285 -107 -290 -112 -290 -117 c 0
 -291 -126 -279 -131 -273 -125 c 0
 -266 -119 -271 -106 -280 -107 c 0
-194 -199 m 0
 -259 -199 -302 -235 -264 -254 c 0
 -221 -275 -123 -276 -79 -231 c 1
 -112 -208 -154 -199 -194 -199 c 0
EndSplineSet
Validated: 33
Ligature2: "SubjoinedConsonants-0 subtable" uni1A60 uni1A21
Ligature2: "SubjoinedConsonants subtable" uni1A60 uni1A21
LCarets2: 1 0
EndChar

StartChar: uni1A20.sub
Encoding: 57376 57376 62
GlifName: uni1A_20.sub
Width: 0
VWidth: 0
GlyphClass: 4
Flags: HMW
AnchorPoint: "BottomSubjoinedConsonant" -198 -45 mark 0
LayerCount: 3
Fore
SplineSet
-268 -48 m 0
 -241 -48 -215 -60 -197 -80 c 1
 -183 -65 -165 -54 -145 -50 c 0
 -105 -43 -64 -60 -37 -89 c 0
 -1 -126 7 -185 -13 -232 c 0
 -22 -255 -39 -275 -60 -287 c 1
 -54 -287 -47 -287 -41 -285 c 1
 -38 -282 -36 -286 -37 -289 c 1
 -52 -296 -67 -301 -84 -301 c 0
 -93 -302 -103 -298 -106 -289 c 0
 -111 -279 -102 -270 -94 -265 c 0
 -79 -256 -62 -246 -52 -231 c 0
 -39 -210 -35 -183 -40 -158 c 0
 -47 -121 -79 -90 -117 -85 c 1
 -142 -81 -170 -95 -178 -120 c 1
 -180 -166 -179 -213 -179 -259 c 0
 -180 -269 -177 -280 -179 -290 c 0
 -183 -306 -210 -305 -214 -289 c 1
 -216 -237 -214 -184 -215 -132 c 1
 -213 -116 -223 -100 -237 -93 c 1
 -259 -79 -289 -84 -310 -97 c 0
 -338 -112 -354 -143 -355 -174 c 0
 -356 -201 -349 -231 -327 -249 c 0
 -325 -250 -322 -255 -320 -253 c 0
 -313 -238 -295 -228 -279 -233 c 1
 -260 -237 -247 -258 -254 -277 c 1
 -258 -291 -272 -302 -286 -302 c 0
 -313 -304 -337 -288 -356 -271 c 0
 -387 -240 -396 -192 -388 -150 c 0
 -377 -94 -325 -49 -268 -48 c 0
-287 -256 m 0
 -291 -256 -294 -258 -296 -261 c 0
 -302 -269 -293 -280 -284 -276 c 1
 -274 -273 -277 -256 -287 -256 c 0
EndSplineSet
Validated: 33
Ligature2: "SubjoinedConsonants-0 subtable" uni1A60 uni1A20
Ligature2: "SubjoinedConsonants subtable" uni1A60 uni1A20
LCarets2: 1 0
EndChar

StartChar: uni1A23.sub
Encoding: 57379 57379 63
GlifName: uni1A_23.sub
Width: 0
VWidth: 0
GlyphClass: 4
Flags: HMW
AnchorPoint: "BottomSubjoinedConsonant" -170 -45 mark 0
LayerCount: 3
Fore
SplineSet
-319 -206 m 1
 -353 -98 -196 -9 -77 -69 c 1
 9 -111 21 -209 -42 -263 c 0
 -51 -272 -64 -279 -74 -286 c 1
 -70 -288 -64 -286 -59 -286 c 1
 -55 -284 -52 -287 -53 -291 c 1
 -71 -296 -90 -301 -108 -297 c 0
 -119 -295 -125 -283 -120 -273 c 0
 -114 -262 -100 -259 -90 -253 c 1
 -28 -224 -18 -143 -88 -104 c 0
 -166 -60 -272 -95 -286 -166 c 1
 -290 -195 -283 -226 -262 -248 c 1
 -244 -221 -207 -226 -198 -252 c 1
 -187 -282 -223 -316 -262 -289 c 0
 -291 -270 -310 -239 -319 -206 c 1
-231 -254 m 0
 -236 -254 -240 -258 -241 -262 c 0
 -244 -271 -231 -278 -224 -272 c 0
 -217 -267 -222 -253 -231 -254 c 0
EndSplineSet
Validated: 33
Ligature2: "SubjoinedConsonants-0 subtable" uni1A60 uni1A23
Ligature2: "SubjoinedConsonants subtable" uni1A60 uni1A23
LCarets2: 1 0
EndChar

StartChar: uni1A25.sub
Encoding: 57381 57381 64
GlifName: uni1A_25.sub
Width: 134
VWidth: 0
GlyphClass: 4
Flags: HMW
AnchorPoint: "BottomWithRightVerticalStem" 0 -45 mark 0
LayerCount: 3
Fore
SplineSet
-31 -216 m 1
 -4 -234 30 -239 46 -209 c 0
 53 -196 58 -175 58 -144 c 2
 58 212 l 2
 58 214 58 208 57 225 c 0
 56 263 14 259 14 281 c 0
 14 294 36 300 47 300 c 2
 51 300 l 2
 68 300 86 297 111 287 c 1
 111 285 l 1
 86 290 60 287 60 280 c 0
 60 271 96 269 98 227 c 1
 98 103 98 -20 98 -144 c 0
 98 -171 97 -258 22 -270 c 0
 -12 -275 -40 -261 -58 -247 c 1
 -99 -288 -161 -268 -184 -236 c 1
 -189 -242 -200 -249 -206 -255 c 0
 -235 -287 -325 -264 -312 -201 c 1
 -295 -141 -161 -132 -170 -93 c 0
 -171 -87 -176 -79 -183 -81 c 1
 -198 -83 -201 -102 -213 -109 c 1
 -227 -115 -239 -108 -244 -94 c 0
 -247 -84 -262 -68 -279 -75 c 1
 -250 -80 -244 -116 -263 -132 c 0
 -277 -145 -301 -141 -311 -125 c 1
 -319 -110 -317 -92 -311 -77 c 0
 -303 -55 -279 -45 -257 -47 c 1
 -241 -47 -228 -59 -221 -72 c 1
 -213 -59 -200 -45 -183 -45 c 2
 -181 -45 l 2
 -141 -45 -119 -101 -149 -133 c 1
 -188 -172 -269 -183 -278 -210 c 0
 -285 -229 -260 -242 -236 -234 c 1
 -220 -225 -187 -176 -158 -211 c 0
 -151 -219 -138 -231 -127 -235 c 1
 -83 -239 -36 -193 -55 -127 c 1
 -59 -107 -76 -95 -88 -81 c 1
 -97 -73 -93 -56 -81 -53 c 0
 -64 -50 -36 -65 -25 -75 c 1
 -26 -77 -26 -75 -28 -77 c 1
 -38 -73 -46 -71 -43 -77 c 1
 -23 -97 -15 -138 -15 -149 c 2
 -15 -163 l 1
 -16 -182 -22 -200 -31 -216 c 1
-284 -95 m 0
 -291 -95 -296 -101 -296 -108 c 0
 -296 -115 -291 -120 -284 -120 c 0
 -277 -120 -272 -115 -272 -108 c 0
 -272 -101 -277 -95 -284 -95 c 0
EndSplineSet
Validated: 33
Ligature2: "SubjoinedConsonants-0 subtable" uni1A60 uni1A25
Ligature2: "SubjoinedConsonants subtable" uni1A60 uni1A25
LCarets2: 1 0
EndChar

StartChar: uni1A26.sub
Encoding: 57382 57382 65
GlifName: uni1A_26.sub
Width: 0
VWidth: 0
GlyphClass: 4
Flags: HMW
AnchorPoint: "BottomSubjoinedConsonant" -167 -44 mark 0
LayerCount: 3
Fore
SplineSet
-297 -150 m 1
 -291 -160 -267 -160 -267 -181 c 1
 -264 -208 -304 -238 -298 -257 c 1
 -294 -264 -283 -263 -277 -259 c 0
 -263 -250 -253 -236 -241 -225 c 1
 -189 -170 -114 -207 -126 -256 c 1
 -131 -288 -189 -296 -192 -256 c 0
 -193 -251 -185 -248 -185 -255 c 1
 -182 -264 -170 -265 -163 -259 c 1
 -159 -253 -160 -244 -166 -239 c 1
 -175 -234 -187 -236 -196 -239 c 1
 -215 -248 -227 -265 -242 -279 c 1
 -254 -293 -273 -302 -292 -299 c 1
 -326 -296 -356 -254 -314 -201 c 1
 -312 -196 -306 -194 -306 -189 c 1
 -311 -183 -320 -182 -326 -177 c 1
 -349 -164 -325 -119 -305 -98 c 0
 -274 -64 -226 -50 -181 -50 c 1
 -143 -49 -104 -57 -73 -80 c 0
 0 -135 18 -234 -28 -327 c 1
 -32 -326 l 1
 -13 -239 -15 -166 -91 -110 c 1
 -155 -65 -271 -83 -297 -150 c 1
EndSplineSet
Validated: 33
Ligature2: "SubjoinedConsonants-0 subtable" uni1A60 uni1A26
Ligature2: "SubjoinedConsonants subtable" uni1A60 uni1A26
LCarets2: 1 0
EndChar

StartChar: uni1A27.sub
Encoding: 57383 57383 66
GlifName: uni1A_27.sub
Width: 0
VWidth: 0
GlyphClass: 4
Flags: HMW
AnchorPoint: "BottomSubjoinedConsonant" -137 -45 mark 0
LayerCount: 3
Fore
SplineSet
-143 -46 m 1
 -55 -46 -17 -106 -7 -143 c 0
 4 -183 -5 -228 -33 -258 c 0
 -97 -329 -218 -314 -260 -229 c 1
 -214 -175 l 1
 -250 -132 l 1
 -252 -127 -261 -123 -259 -118 c 0
 -237 -74 -192 -47 -143 -46 c 1
-216 -232 m 1
 -181 -275 -105 -282 -62 -238 c 1
 2 -177 -55 -79 -138 -81 c 0
 -168 -81 -197 -94 -216 -117 c 1
 -167 -175 l 1
 -216 -232 l 1
EndSplineSet
Validated: 33
Ligature2: "SubjoinedConsonants-0 subtable" uni1A60 uni1A27
Ligature2: "SubjoinedConsonants subtable" uni1A60 uni1A27
LCarets2: 1 0
EndChar

StartChar: uni1A28.sub
Encoding: 57384 57384 67
GlifName: uni1A_28.sub
Width: 0
VWidth: 0
GlyphClass: 4
Flags: HMW
AnchorPoint: "BottomSubjoinedConsonant" -168 -45 mark 0
LayerCount: 3
Fore
SplineSet
-98 -46 m 0
 -83 -46 -67 -50 -53 -56 c 1
 -48 -56 -49 -61 -51 -64 c 1
 -57 -62 -63 -60 -70 -61 c 1
 -54 -74 13 -117 -7 -204 c 1
 -23 -289 -128 -335 -209 -273 c 1
 -211 -274 -250 -319 -296 -293 c 0
 -322 -278 -323 -234 -298 -218 c 0
 -274 -202 -240 -207 -216 -222 c 1
 -194 -181 -209 -113 -254 -96 c 1
 -261 -127 -307 -115 -303 -87 c 0
 -299 -52 -230 -44 -189 -107 c 1
 -165 -147 -163 -199 -185 -240 c 1
 -190 -245 -182 -246 -179 -249 c 0
 -147 -272 -100 -271 -70 -245 c 1
 -37 -218 -13 -135 -97 -86 c 0
 -106 -81 -119 -75 -119 -63 c 0
 -119 -52 -108 -46 -98 -46 c 0
-265 -243 m 0
 -269 -243 -273 -243 -276 -245 c 1
 -284 -247 -286 -259 -278 -263 c 1
 -264 -268 -248 -261 -238 -251 c 1
 -246 -246 -256 -243 -265 -243 c 0
EndSplineSet
Validated: 33
Ligature2: "SubjoinedConsonants-0 subtable" uni1A60 uni1A28
Ligature2: "SubjoinedConsonants subtable" uni1A60 uni1A28
LCarets2: 1 0
EndChar

StartChar: uni1A29.sub
Encoding: 57385 57385 68
GlifName: uni1A_29.sub
Width: 0
VWidth: 0
GlyphClass: 4
Flags: HMW
AnchorPoint: "BottomSubjoinedConsonant" -180 -45 mark 0
LayerCount: 3
Fore
SplineSet
-182 -47 m 1
 -152 -48 -121 -52 -94 -65 c 0
 -9 -107 14 -195 -15 -283 c 1
 -19 -283 l 1
 -17 -202 -32 -136 -103 -97 c 0
 -151 -71 -264 -76 -302 -139 c 1
 -303 -143 -309 -147 -304 -150 c 0
 -294 -157 -278 -162 -277 -176 c 1
 -274 -196 -290 -197 -299 -213 c 0
 -303 -221 -310 -230 -308 -240 c 1
 -296 -261 -258 -214 -254 -210 c 0
 -203 -154 -126 -187 -136 -238 c 1
 -138 -256 -157 -267 -174 -267 c 1
 -188 -268 -200 -256 -202 -242 c 1
 -205 -238 -199 -232 -197 -235 c 1
 -195 -243 -186 -249 -178 -245 c 1
 -170 -244 -171 -234 -173 -228 c 0
 -176 -217 -189 -219 -198 -220 c 0
 -220 -224 -233 -245 -248 -259 c 1
 -260 -273 -276 -282 -295 -282 c 0
 -318 -283 -341 -267 -345 -244 c 0
 -349 -220 -336 -207 -317 -187 c 1
 -320 -181 -329 -179 -335 -175 c 1
 -352 -168 -352 -139 -317 -98 c 1
 -283 -62 -231 -48 -182 -47 c 1
-133 -163 m 1
 -138 -160 -146 -157 -151 -162 c 1
 -166 -170 -187 -158 -188 -141 c 1
 -190 -125 -173 -114 -158 -114 c 0
 -116 -114 -77 -153 -67 -194 c 1
 -57 -236 -69 -307 -106 -346 c 1
 -107 -345 -108 -343 -109 -342 c 1
 -67 -252 -96 -182 -133 -163 c 1
EndSplineSet
Validated: 33
Ligature2: "SubjoinedConsonants-0 subtable" uni1A60 uni1A29
Ligature2: "SubjoinedConsonants subtable" uni1A60 uni1A29
LCarets2: 1 0
EndChar

StartChar: uni1A2B.sub
Encoding: 57387 57387 69
GlifName: uni1A_2B_.sub
Width: 130
VWidth: 0
GlyphClass: 4
Flags: HMW
AnchorPoint: "BottomWithRightVerticalStem" 0 -44 mark 0
LayerCount: 3
Fore
SplineSet
46 310 m 0
 65 310 83 306 100 298 c 1
 100 297 100 296 100 296 c 0
 75 301 61 297 61 290 c 0
 61 281 83 284 84 238 c 2
 84 -160 l 2
 82 -236 61 -298 -18 -300 c 0
 -75 -301 -100 -274 -111 -258 c 1
 -144 -285 -191 -295 -234 -286 c 0
 -273 -277 -308 -253 -326 -219 c 1
 -280 -168 l 1
 -325 -114 l 1
 -303 -72 -254 -46 -191 -49 c 0
 -124 -52 -83 -91 -70 -138 c 0
 -61 -168 -67 -201 -84 -228 c 1
 -69 -250 -54 -264 -17 -263 c 0
 34 -262 44 -209 45 -160 c 2
 46 235 l 2
 45 273 15 270 15 292 c 0
 15 305 35 310 46 310 c 0
-197 -80 m 0
 -200 -80 -204 -80 -207 -80 c 0
 -236 -81 -262 -93 -282 -113 c 1
 -233 -168 l 1
 -282 -220 l 1
 -243 -265 -174 -262 -128 -226 c 0
 -103 -203 -93 -168 -106 -137 c 0
 -119 -106 -150 -81 -197 -80 c 0
EndSplineSet
Ligature2: "SubjoinedConsonants-0 subtable" uni1A60 uni1A2B
Ligature2: "SubjoinedConsonants subtable" uni1A60 uni1A2B
LCarets2: 1 0
EndChar

StartChar: uni1A2C.sub
Encoding: 57388 57388 70
GlifName: uni1A_2C_.sub
Width: 130
VWidth: 0
GlyphClass: 4
Flags: HMW
AnchorPoint: "BottomWithRightVerticalStem" 0 -46 mark 0
LayerCount: 3
Fore
SplineSet
25 291 m 0
 25 299 30 311 56 311 c 0
 72 311 86 305 106 297 c 0
 106 296 105 295 105 295 c 1
 80 296 74 294 72 288 c 0
 70 279 90 279 92 237 c 1
 92 -108 l 2
 92 -156 89 -234 -14 -234 c 0
 -50 -234 -83 -224 -102 -211 c 1
 -119 -227 -143 -234 -166 -235 c 1
 -194 -235 -223 -234 -248 -220 c 1
 -248 -232 -249 -235 -247 -248 c 1
 -246 -282 -198 -294 -109 -296 c 0
 -16 -298 32 -292 105 -255 c 1
 107 -257 l 1
 57 -308 -16 -330 -109 -330 c 0
 -205 -330 -285 -316 -283 -240 c 0
 -281 -185 -291 -170 -275 -162 c 1
 -266 -156 -254 -162 -249 -171 c 0
 -230 -207 -155 -206 -129 -187 c 0
 -111 -173 -109 -160 -107 -138 c 1
 -107 -119 -106 -90 -126 -80 c 0
 -137 -76 -143 -111 -171 -115 c 0
 -187 -117 -201 -105 -208 -92 c 0
 -213 -81 -228 -76 -239 -81 c 1
 -204 -93 -209 -136 -236 -147 c 0
 -254 -155 -277 -143 -282 -124 c 1
 -287 -100 -281 -72 -261 -57 c 1
 -245 -46 -223 -42 -205 -48 c 1
 -191 -52 -183 -65 -175 -77 c 1
 -171 -75 -158 -44 -130 -44 c 1
 -80 -47 -71 -96 -71 -128 c 0
 -71 -150 -75 -158 -80 -179 c 1
 -68 -187 -46 -196 -15 -196 c 0
 44 -196 52 -164 52 -108 c 0
 52 41 53 155 53 188 c 1
 53 210 l 1
 53 212 53 218 52 235 c 0
 51 273 25 270 25 291 c 0
-248 -105 m 2
 -249 -105 l 2
 -254 -105 -258 -108 -259 -113 c 0
 -261 -122 -248 -128 -242 -122 c 1
 -235 -117 -240 -105 -248 -105 c 2
EndSplineSet
Validated: 33
Ligature2: "SubjoinedConsonants-0 subtable" uni1A60 uni1A2C
Ligature2: "SubjoinedConsonants subtable" uni1A60 uni1A2C
LCarets2: 1 0
EndChar

StartChar: uni1A2D.sub
Encoding: 57389 57389 71
GlifName: uni1A_2D_.sub
Width: 0
VWidth: 0
GlyphClass: 4
Flags: W
VStem: -297 293
AnchorPoint: "BottomSubjoinedConsonant" -153 -45 mark 0
LayerCount: 3
Fore
SplineSet
-260 -175 m 1
 -290 -165 -308 -127 -297 -97 c 0
 -281 -50 -215 -32 -171 -59 c 0
 -149 -73 -132 -97 -130 -123 c 1
 -128 -139 -136 -155 -150 -162 c 0
 -167 -172 -190 -162 -196 -144 c 1
 -204 -126 -192 -104 -174 -99 c 1
 -203 -70 -264 -81 -265 -117 c 1
 -266 -129 -256 -138 -246 -144 c 1
 -236 -151 -222 -156 -217 -168 c 0
 -212 -180 -219 -194 -231 -199 c 1
 -243 -205 -260 -210 -264 -224 c 0
 -276 -262 -225 -272 -196 -256 c 0
 -183 -250 -176 -233 -161 -232 c 0
 -148 -231 -142 -244 -134 -252 c 0
 -121 -267 -98 -270 -81 -261 c 0
 -57 -248 -43 -221 -38 -195 c 1
 -29 -121 -73 -102 -88 -79 c 0
 -95 -68 -85 -53 -73 -54 c 0
 -55 -55 -39 -65 -25 -75 c 0
 -21 -76 -22 -79 -24 -82 c 1
 -29 -79 -34 -77 -40 -76 c 0
 -42 -75 -44 -76 -42 -78 c 0
 -24 -97 5 -131 -4 -202 c 1
 -10 -240 -31 -278 -68 -294 c 0
 -126 -318 -159 -276 -162 -275 c 1
 -175 -290 -195 -297 -214 -299 c 1
 -279 -308 -327 -243 -283 -191 c 0
 -277 -183 -269 -178 -260 -175 c 1
-165 -122 m 0
 -170 -122 -174 -126 -174 -131 c 0
 -175 -140 -164 -146 -158 -140 c 0
 -151 -134 -156 -121 -165 -122 c 0
EndSplineSet
Validated: 33
Ligature2: "SubjoinedConsonants-0 subtable" uni1A60 uni1A2D
Ligature2: "SubjoinedConsonants subtable" uni1A60 uni1A2D
LCarets2: 1 0
EndChar

StartChar: uni1A2E.sub
Encoding: 57390 57390 72
GlifName: uni1A_2E_.sub
Width: 0
VWidth: 0
GlyphClass: 4
Flags: HMW
AnchorPoint: "BottomSubjoinedConsonant" -148 -45 mark 0
LayerCount: 3
Fore
SplineSet
-41 -183 m 1
 -73 -206 -129 -209 -156 -178 c 1
 -174 -207 -224 -205 -250 -196 c 1
 -270 -191 -287 -171 -289 -157 c 1
 -290 -142 -278 -126 -255 -120 c 1
 -279 -113 -294 -96 -287 -80 c 0
 -279 -60 -245 -48 -212 -48 c 2
 -202 -48 l 1
 -166 -49 -133 -66 -126 -87 c 0
 -122 -96 -126 -115 -139 -121 c 0
 -154 -129 -173 -126 -182 -116 c 1
 -188 -108 -192 -88 -178 -82 c 1
 -198 -76 -253 -79 -251 -91 c 1
 -249 -101 -231 -99 -220 -104 c 1
 -209 -107 -203 -118 -206 -125 c 0
 -212 -138 -266 -140 -249 -160 c 1
 -237 -170 -214 -171 -196 -167 c 0
 -176 -163 -162 -136 -132 -161 c 0
 -114 -177 -61 -174 -45 -137 c 0
 -39 -123 -40 -107 -51 -95 c 0
 -61 -84 -75 -85 -87 -76 c 0
 -96 -70 -90 -54 -78 -52 c 1
 -59 -44 -37 -51 -22 -61 c 1
 -17 -62 -24 -62 -27 -64 c 0
 -29 -65 -40 -62 -33 -67 c 1
 -17 -73 -2 -96 -4 -111 c 1
 -3 -164 -4 -217 -4 -270 c 1
 3 -336 -216 -346 -273 -307 c 0
 -299 -289 -295 -258 -269 -241 c 0
 -238 -222 -159 -194 -42 -246 c 1
 -42 -224 -41 -205 -41 -183 c 1
-156 -87 m 0
 -162 -87 -167 -91 -167 -97 c 0
 -167 -103 -162 -108 -156 -108 c 0
 -150 -108 -146 -103 -146 -97 c 0
 -146 -91 -150 -87 -156 -87 c 0
-142 -238 m 0
 -173 -238 -204 -240 -230 -251 c 1
 -317 -299 -96 -315 -48 -276 c 0
 -37 -266 -43 -263 -41 -252 c 1
 -72 -242 -107 -238 -142 -238 c 0
EndSplineSet
Validated: 33
Ligature2: "SubjoinedConsonants-0 subtable" uni1A60 uni1A2E
Ligature2: "SubjoinedConsonants subtable" uni1A60 uni1A2E
LCarets2: 1 0
EndChar

StartChar: uni1A2F.sub
Encoding: 57391 57391 73
GlifName: uni1A_2F_.sub
Width: 0
VWidth: 0
GlyphClass: 4
Flags: HMW
AnchorPoint: "BottomSubjoinedConsonant" -214 -45 mark 0
LayerCount: 3
Fore
SplineSet
-151 -47 m 0
 -111 -47 -67 -69 -67 -117 c 0
 -67 -176 -155 -176 -222 -192 c 0
 -253 -199 -286 -207 -311 -229 c 1
 -288 -229 -246 -230 -223 -230 c 0
 -106 -231 -40 -256 -5 -331 c 1
 -5 -331 -9 -331 -11 -330 c 0
 -64 -279 -91 -266 -221 -265 c 0
 -269 -265 -311 -264 -363 -264 c 1
 -363 -238 -347 -211 -327 -196 c 0
 -290 -168 -242 -163 -198 -153 c 0
 -142 -141 -98 -142 -104 -108 c 0
 -108 -85 -140 -80 -162 -84 c 0
 -178 -87 -188 -101 -198 -113 c 0
 -206 -123 -222 -123 -230 -113 c 0
 -239 -101 -249 -88 -264 -83 c 0
 -278 -79 -295 -79 -308 -87 c 1
 -297 -90 -288 -99 -285 -110 c 0
 -280 -128 -292 -149 -310 -153 c 1
 -328 -158 -347 -145 -351 -128 c 0
 -358 -99 -342 -66 -314 -54 c 0
 -280 -40 -237 -49 -214 -77 c 1
 -199 -59 -175 -47 -151 -47 c 0
-318 -109 m 0
 -323 -109 -328 -113 -328 -118 c 0
 -329 -127 -318 -133 -312 -127 c 0
 -305 -122 -309 -108 -318 -109 c 0
EndSplineSet
Validated: 33
Ligature2: "SubjoinedConsonants-0 subtable" uni1A60 uni1A2F
Ligature2: "SubjoinedConsonants subtable" uni1A60 uni1A2F
LCarets2: 1 0
EndChar

StartChar: uni1A30.sub
Encoding: 57392 57392 74
GlifName: uni1A_30.sub
Width: 141
VWidth: 0
GlyphClass: 4
Flags: HMW
AnchorPoint: "BottomWithRightVerticalStem" 0 -45 mark 0
LayerCount: 3
Fore
SplineSet
60 200 m 2
 60 283 33 254 32 285 c 0
 32 294 39 300 52 300 c 0
 72 300 102 296 118 286 c 1
 118 284 l 1
 91 289 82 284 82 277 c 0
 82 267 102 267 104 220 c 1
 104 94 104 -32 104 -158 c 0
 104 -271 54 -301 -20 -301 c 0
 -84 -301 -109 -237 -118 -236 c 0
 -127 -235 -146 -302 -229 -301 c 0
 -365 -299 -365 -203 -292 -168 c 0
 -255 -150 -186 -129 -191 -102 c 0
 -192 -95 -198 -86 -206 -88 c 1
 -223 -90 -226 -112 -239 -120 c 1
 -255 -126 -268 -118 -273 -103 c 0
 -277 -92 -293 -75 -312 -83 c 1
 -281 -88 -273 -127 -294 -145 c 0
 -309 -159 -335 -154 -346 -137 c 1
 -355 -121 -353 -101 -346 -84 c 0
 -337 -60 -311 -48 -287 -51 c 1
 -270 -51 -255 -64 -247 -79 c 1
 -238 -64 -227 -49 -208 -49 c 2
 -201 -49 l 2
 -156 -49 -134 -111 -168 -148 c 1
 -216 -196 -312 -198 -295 -237 c 0
 -288 -254 -255 -261 -225 -260 c 0
 -170 -257 -158 -214 -145 -199 c 0
 -129 -181 -104 -182 -90 -200 c 0
 -83 -209 -61 -258 -18 -260 c 0
 42 -262 60 -217 60 -147 c 2
 60 200 l 2
-317 -105 m 0
 -325 -105 -330 -110 -330 -118 c 0
 -330 -126 -325 -132 -317 -132 c 0
 -309 -132 -303 -126 -303 -118 c 0
 -303 -110 -309 -105 -317 -105 c 0
EndSplineSet
Validated: 33
Ligature2: "SubjoinedConsonants-0 subtable" uni1A60 uni1A30
Ligature2: "SubjoinedConsonants subtable" uni1A60 uni1A30
LCarets2: 1 0
EndChar

StartChar: uni1A31.sub
Encoding: 57393 57393 75
GlifName: uni1A_31.sub
Width: 0
VWidth: 0
GlyphClass: 4
Flags: HMW
AnchorPoint: "BottomSubjoinedConsonant" -212 -45 mark 0
LayerCount: 3
Fore
SplineSet
-306 -45 m 0
 -231 -45 -205 -112 -221 -177 c 0
 -225 -196 -239 -213 -241 -233 c 0
 -243 -247 -235 -262 -221 -266 c 1
 -208 -271 -192 -264 -185 -253 c 1
 -162 -223 -219 -187 -203 -112 c 0
 -197 -84 -176 -58 -148 -51 c 1
 -77 -27 -2 -94 -8 -183 c 1
 -11 -258 -65 -275 -63 -281 c 0
 -61 -285 -47 -283 -42 -282 c 1
 -42 -284 l 1
 -57 -290 -73 -296 -89 -296 c 1
 -112 -298 -126 -272 -92 -255 c 0
 -17 -220 -43 -101 -103 -84 c 1
 -120 -78 -138 -81 -152 -92 c 0
 -169 -104 -170 -127 -169 -146 c 1
 -169 -182 -121 -229 -156 -275 c 1
 -194 -332 -284 -297 -277 -231 c 1
 -276 -201 -232 -144 -263 -100 c 1
 -302 -55 -367 -94 -375 -160 c 0
 -378 -186 -375 -213 -363 -236 c 1
 -351 -224 -329 -223 -316 -235 c 1
 -301 -247 -300 -271 -313 -285 c 0
 -325 -298 -349 -301 -363 -290 c 1
 -464 -200 -402 -45 -306 -45 c 0
-340 -252 m 0
 -346 -252 -350 -258 -349 -263 c 1
 -349 -272 -338 -275 -332 -269 c 0
 -325 -263 -331 -251 -340 -252 c 0
EndSplineSet
Validated: 33
Ligature2: "SubjoinedConsonants-0 subtable" uni1A60 uni1A31
Ligature2: "SubjoinedConsonants subtable" uni1A60 uni1A31
LCarets2: 1 0
EndChar

StartChar: uni1A32.sub
Encoding: 57394 57394 76
GlifName: uni1A_32.sub
Width: 0
VWidth: 0
GlyphClass: 4
Flags: HMW
AnchorPoint: "BottomSubjoinedConsonant" -205 -45 mark 0
LayerCount: 3
Fore
SplineSet
-284 -46 m 0
 -256 -45 -228 -53 -206 -70 c 1
 -190 -58 -172 -50 -153 -47 c 0
 -109 -39 -61 -57 -34 -92 c 0
 -13 -118 -2 -154 -7 -188 c 1
 -10 -215 -20 -242 -39 -261 c 0
 -45 -268 -54 -274 -61 -280 c 1
 -57 -281 -51 -280 -46 -279 c 1
 -42 -277 -40 -279 -40 -283 c 1
 -57 -290 -74 -296 -93 -294 c 0
 -103 -293 -111 -284 -109 -274 c 0
 -106 -262 -93 -257 -84 -251 c 1
 -63 -240 -51 -218 -46 -196 c 1
 -36 -160 -51 -119 -81 -97 c 1
 -110 -75 -152 -74 -181 -95 c 1
 -157 -126 -149 -169 -159 -207 c 0
 -170 -253 -210 -292 -257 -301 c 0
 -300 -310 -346 -293 -374 -260 c 0
 -407 -223 -416 -166 -395 -121 c 1
 -376 -77 -332 -47 -284 -46 c 0
-279 -80 m 0
 -282 -80 -290 -80 -293 -80 c 0
 -331 -83 -362 -115 -369 -152 c 1
 -378 -190 -361 -233 -328 -254 c 0
 -298 -274 -255 -271 -227 -248 c 1
 -196 -223 -184 -177 -198 -140 c 1
 -210 -105 -241 -79 -279 -80 c 0
EndSplineSet
Validated: 33
Ligature2: "SubjoinedConsonants-0 subtable" uni1A60 uni1A32
Ligature2: "SubjoinedConsonants subtable" uni1A60 uni1A32
LCarets2: 1 0
EndChar

StartChar: uni1A33.sub
Encoding: 57395 57395 77
GlifName: uni1A_33.sub
Width: 0
VWidth: 0
GlyphClass: 4
Flags: HMW
AnchorPoint: "BottomSubjoinedConsonant" -169 -44 mark 0
LayerCount: 3
Fore
SplineSet
-328 -150 m 0
 -307 -43 -145 -21 -72 -75 c 1
 -46 -96 -24 -124 -12 -155 c 0
 4 -200 -1 -255 -13 -301 c 1
 -15 -301 -16 -300 -17 -300 c 1
 -14 -239 -20 -194 -44 -152 c 1
 -112 -45 -262 -75 -289 -147 c 1
 -281 -155 -269 -157 -263 -166 c 0
 -256 -178 -261 -194 -268 -205 c 0
 -277 -218 -287 -232 -286 -248 c 0
 -286 -260 -276 -269 -264 -268 c 1
 -237 -270 -247 -233 -215 -218 c 0
 -199 -210 -179 -217 -169 -231 c 0
 -161 -242 -157 -260 -143 -265 c 1
 -127 -269 -114 -255 -110 -241 c 1
 -137 -244 -163 -207 -136 -182 c 0
 -123 -169 -101 -169 -89 -182 c 1
 -79 -191 -75 -205 -76 -218 c 1
 -75 -243 -84 -270 -103 -287 c 1
 -119 -303 -146 -306 -165 -293 c 0
 -179 -283 -185 -266 -195 -253 c 1
 -209 -239 -211 -286 -241 -297 c 0
 -262 -305 -289 -302 -305 -285 c 0
 -324 -264 -322 -231 -310 -207 c 0
 -307 -199 -298 -193 -297 -185 c 1
 -301 -179 -310 -179 -316 -175 c 1
 -325 -171 -330 -160 -328 -150 c 0
-113 -197 m 0
 -117 -197 -121 -199 -122 -202 c 0
 -126 -210 -115 -220 -107 -214 c 0
 -99 -209 -104 -196 -113 -197 c 0
EndSplineSet
Validated: 33
Ligature2: "SubjoinedConsonants-0 subtable" uni1A60 uni1A33
Ligature2: "SubjoinedConsonants subtable" uni1A60 uni1A33
LCarets2: 1 0
EndChar

StartChar: uni1A34.sub
Encoding: 57396 57396 78
GlifName: uni1A_34.sub
Width: 0
VWidth: 0
GlyphClass: 4
Flags: HMW
AnchorPoint: "BottomSubjoinedConsonant" -191 -44 mark 0
LayerCount: 3
Fore
SplineSet
-183 -45 m 1
 -152 -45 -121 -48 -92 -60 c 0
 -50 -76 -16 -112 -4 -155 c 0
 -2 -160 -2 -163 -8 -163 c 1
 -37 -82 -161 -51 -254 -93 c 1
 -300 -123 -311 -144 -311 -194 c 0
 -311 -216 -297 -238 -284 -248 c 0
 -258 -268 -224 -271 -193 -271 c 1
 -127 -268 -104 -256 -110 -245 c 1
 -118 -234 -132 -232 -143 -226 c 0
 -153 -221 -160 -208 -155 -197 c 0
 -146 -175 -97 -162 -112 -151 c 0
 -126 -141 -143 -136 -160 -137 c 1
 -158 -141 -156 -146 -155 -150 c 0
 -150 -171 -168 -192 -189 -192 c 1
 -227 -196 -247 -134 -192 -115 c 0
 -92 -79 -35 -158 -101 -199 c 0
 -105 -201 -109 -202 -103 -204 c 1
 -61 -226 -63 -277 -107 -294 c 0
 -138 -306 -172 -309 -205 -308 c 1
 -236 -306 -270 -303 -297 -285 c 1
 -329 -269 -350 -230 -350 -189 c 0
 -350 -128 -320 -91 -288 -74 c 1
 -256 -56 -220 -44 -183 -45 c 1
-190 -146 m 0
 -195 -146 -200 -150 -201 -155 c 0
 -203 -164 -190 -171 -183 -164 c 0
 -176 -158 -181 -145 -190 -146 c 0
EndSplineSet
Validated: 33
Ligature2: "SubjoinedConsonants-0 subtable" uni1A60 uni1A34
Ligature2: "SubjoinedConsonants subtable" uni1A60 uni1A34
LCarets2: 1 0
EndChar

StartChar: uni1A35.sub
Encoding: 57397 57397 79
GlifName: uni1A_35.sub
Width: 0
VWidth: 0
GlyphClass: 4
Flags: HMW
AnchorPoint: "BottomSubjoinedConsonant" -150 -45 mark 0
LayerCount: 3
Fore
SplineSet
-198 -296 m 1
 -285 -264 -299 -175 -273 -123 c 0
 -251 -77 -201 -47 -150 -47 c 1
 -70 -45 -2 -116 -13 -192 c 0
 -19 -240 -55 -280 -99 -296 c 1
 -148 -254 l 1
 -198 -296 l 1
-150 -83 m 1
 -248 -83 -287 -207 -204 -254 c 1
 -186 -238 -166 -223 -148 -207 c 1
 -93 -254 l 1
 -5 -199 -55 -81 -150 -83 c 1
EndSplineSet
Validated: 33
Ligature2: "SubjoinedConsonants-0 subtable" uni1A60 uni1A35
Ligature2: "SubjoinedConsonants subtable" uni1A60 uni1A35
LCarets2: 1 0
EndChar

StartChar: uni1A36.sub
Encoding: 57398 57398 80
GlifName: uni1A_36.sub
Width: 0
VWidth: 0
GlyphClass: 4
Flags: HMW
AnchorPoint: "BottomSubjoinedConsonant" -161 -45 mark 0
LayerCount: 3
Fore
SplineSet
-268 -301 m 1
 -268 -300 -270 -299 -269 -298 c 1
 -109 -263 -60 -221 -49 -157 c 0
 -45 -133 -53 -114 -66 -98 c 1
 -66 -118 -86 -130 -104 -130 c 0
 -127 -130 -145 -112 -145 -89 c 0
 -145 -66 -126 -48 -104 -47 c 0
 -43 -43 -3 -111 -11 -160 c 0
 -30 -286 -168 -290 -268 -301 c 1
-89 -89 m 0
 -89 -80 -96 -73 -104 -73 c 0
 -113 -73 -119 -80 -119 -89 c 0
 -119 -98 -113 -104 -104 -104 c 0
 -95 -104 -89 -98 -89 -89 c 0
EndSplineSet
Validated: 33
Ligature2: "SubjoinedConsonants-0 subtable" uni1A60 uni1A36
Ligature2: "SubjoinedConsonants subtable" uni1A60 uni1A36
LCarets2: 1 0
EndChar

StartChar: uni1A37.sub
Encoding: 57399 57399 81
GlifName: uni1A_37.sub
Width: 129
VWidth: 0
GlyphClass: 4
Flags: HMW
AnchorPoint: "BottomWithRightVerticalStem" 0 -46 mark 0
LayerCount: 3
Fore
SplineSet
52 300 m 0
 71 300 89 295 106 287 c 1
 106 285 l 0
 81 290 67 287 67 280 c 0
 67 271 89 273 90 227 c 0
 92 128 92 31 92 -68 c 0
 92 -155 70 -209 -12 -210 c 0
 -91 -210 -110 -154 -117 -154 c 0
 -124 -154 -134 -212 -213 -211 c 0
 -264 -210 -318 -185 -318 -128 c 0
 -318 -93 -303 -69 -282 -55 c 0
 -269 -46 -251 -45 -238 -54 c 0
 -221 -64 -219 -90 -232 -104 c 1
 -244 -119 -269 -120 -282 -106 c 1
 -293 -153 -258 -177 -212 -178 c 0
 -181 -179 -162 -163 -150 -135 c 0
 -143 -119 -132 -111 -117 -111 c 0
 -97 -111 -94 -122 -85 -135 c 0
 -69 -159 -48 -173 -11 -172 c 0
 46 -170 52 -123 53 -68 c 0
 53 30 54 127 52 225 c 0
 51 263 21 259 21 281 c 0
 21 294 41 300 52 300 c 0
-258 -71 m 0
 -265 -71 -270 -80 -267 -86 c 0
 -266 -87 l 0
 -264 -91 -258 -93 -254 -91 c 0
 -246 -88 -246 -75 -254 -72 c 0
 -255 -71 -257 -71 -258 -71 c 0
EndSplineSet
Validated: 33
Ligature2: "SubjoinedConsonants-0 subtable" uni1A60 uni1A37
Ligature2: "SubjoinedConsonants-0 subtable" uni1A60 uni1A38
Ligature2: "SubjoinedConsonants subtable" uni1A60 uni1A38
Ligature2: "SubjoinedConsonants subtable" uni1A60 uni1A37
LCarets2: 1 0
EndChar

StartChar: uni1A39.sub
Encoding: 57401 57401 82
GlifName: uni1A_39.sub
Width: 163
VWidth: 0
GlyphClass: 4
Flags: HMW
AnchorPoint: "BottomWithRightVerticalStem" 0 -46 mark 0
LayerCount: 3
Fore
SplineSet
-254 -176 m 1
 -288 -165 -301 -125 -291 -98 c 0
 -280 -67 -249 -47 -217 -47 c 0
 -216 -47 -210 -47 -209 -47 c 0
 -136 -47 -96 -137 -142 -163 c 0
 -159 -173 -183 -163 -189 -145 c 1
 -197 -127 -186 -105 -167 -100 c 1
 -197 -70 -259 -81 -259 -117 c 1
 -260 -130 -250 -139 -240 -145 c 1
 -230 -153 -216 -157 -211 -169 c 0
 -205 -181 -213 -195 -225 -200 c 0
 -237 -206 -253 -211 -257 -225 c 0
 -260 -235 -253 -247 -244 -254 c 0
 -236 -261 -212 -265 -187 -265 c 0
 -160 -265 -132 -253 -118 -226 c 0
 -110 -211 -100 -202 -85 -202 c 0
 -42 -202 -61 -263 15 -261 c 0
 66 -260 76 -207 77 -158 c 1
 77 -23 79 111 78 246 c 1
 32 234 -18 249 -20 303 c 0
 -22 336 4 367 43 367 c 0
 84 367 107 335 112 298 c 1
 134 307 166 333 195 367 c 1
 198 362 l 1
 188 332 152 287 115 265 c 1
 115 124 116 -18 116 -158 c 1
 114 -234 94 -296 15 -298 c 0
 -64 -300 -78 -244 -85 -244 c 0
 -92 -244 -106 -297 -189 -299 c 0
 -279 -302 -317 -239 -277 -192 c 0
 -271 -184 -263 -179 -254 -176 c 1
43 327 m 0
 7 327 10 258 76 280 c 1
 75 301 68 327 43 327 c 0
-157 -122 m 1
 -162 -122 -167 -126 -167 -132 c 1
 -169 -141 -157 -146 -151 -140 c 1
 -144 -135 -148 -122 -157 -122 c 1
EndSplineSet
Validated: 33
Ligature2: "SubjoinedConsonants-0 subtable" uni1A60 uni1A39
Ligature2: "SubjoinedConsonants subtable" uni1A60 uni1A39
LCarets2: 1 0
EndChar

StartChar: uni1A3B.sub
Encoding: 57403 57403 83
GlifName: uni1A_3B_.sub
Width: 0
VWidth: 0
GlyphClass: 4
Flags: W
AnchorPoint: "BottomSubjoinedConsonant" -216 -45 mark 0
LayerCount: 3
Fore
SplineSet
-373 -105 m 0
 -331 -26 -247 -41 -217 -77 c 1
 -215 -82 -213 -77 -211 -75 c 0
 -185 -44 -135 -40 -101 -60 c 0
 -45 -93 -3 -203 -98 -270 c 0
 -106 -276 -116 -281 -124 -287 c 1
 -123 -289 -118 -288 -116 -288 c 0
 -112 -289 -105 -284 -103 -288 c 0
 -101 -293 -107 -293 -110 -294 c 0
 -126 -299 -145 -304 -162 -299 c 0
 -174 -296 -178 -278 -168 -270 c 0
 -156 -260 -141 -255 -129 -246 c 0
 -105 -230 -83 -208 -78 -179 c 1
 -72 -123 -121 -67 -172 -89 c 0
 -187 -96 -190 -114 -203 -122 c 0
 -214 -129 -229 -124 -236 -113 c 0
 -272 -51 -350 -90 -353 -166 c 1
 -353 -198 -341 -233 -316 -254 c 1
 -311 -225 -257 -220 -249 -257 c 0
 -244 -277 -259 -298 -279 -300 c 0
 -356 -305 -421 -196 -373 -105 c 0
-283 -255 m 0
 -288 -255 -292 -259 -293 -264 c 0
 -295 -273 -284 -279 -277 -273 c 0
 -270 -267 -274 -254 -283 -255 c 0
EndSplineSet
Validated: 33
Ligature2: "SubjoinedConsonants-0 subtable" uni1A60 uni1A3B
Ligature2: "SubjoinedConsonants subtable" uni1A60 uni1A3B
LCarets2: 1 0
EndChar

StartChar: uni1A3D.sub
Encoding: 57405 57405 84
GlifName: uni1A_3D_.sub
Width: 0
VWidth: 0
GlyphClass: 4
Flags: HMW
AnchorPoint: "BottomSubjoinedConsonant" -245 -45 mark 0
LayerCount: 3
Fore
SplineSet
-434 -72 m 1
 -391 -38 -297 -31 -252 -108 c 1
 -214 -42 -115 -22 -58 -94 c 1
 -5 -158 -34 -250 -98 -280 c 0
 -109 -286 -123 -287 -135 -291 c 1
 -133 -294 -127 -294 -123 -295 c 1
 -118 -295 -115 -297 -116 -302 c 1
 -149 -304 -180 -299 -180 -279 c 1
 -183 -241 -87 -281 -67 -186 c 0
 -60 -153 -77 -118 -104 -99 c 1
 -129 -80 -165 -79 -191 -95 c 1
 -218 -110 -233 -142 -234 -172 c 1
 -234 -220 -261 -266 -303 -288 c 1
 -374 -328 -461 -270 -452 -244 c 0
 -449 -232 -432 -227 -423 -237 c 1
 -385 -290 -288 -269 -272 -190 c 0
 -266 -158 -276 -122 -302 -101 c 0
 -326 -81 -359 -76 -389 -84 c 1
 -376 -98 -382 -123 -398 -133 c 1
 -434 -158 -473 -101 -434 -72 c 1
-416 -94 m 0
 -420 -94 -424 -97 -425 -101 c 0
 -429 -110 -417 -118 -410 -112 c 0
 -403 -107 -407 -93 -416 -94 c 0
EndSplineSet
Validated: 33
Ligature2: "SubjoinedConsonants-0 subtable" uni1A60 uni1A3D
Ligature2: "SubjoinedConsonants subtable" uni1A60 uni1A3D
LCarets2: 1 0
EndChar

StartChar: uni1A3E.sub
Encoding: 57406 57406 85
GlifName: uni1A_3E_.sub
Width: 0
VWidth: 0
GlyphClass: 4
Flags: HMW
AnchorPoint: "BottomSubjoinedConsonant" -285 -45 mark 0
LayerCount: 3
Fore
SplineSet
-4 -249 m 0
 -123 -333 -384 -323 -398 -176 c 0
 -404 -113 -363 -75 -338 -60 c 0
 -322 -50 -306 -46 -285 -47 c 0
 -266 -48 -244 -66 -244 -89 c 0
 -244 -112 -262 -130 -285 -130 c 0
 -305 -130 -321 -115 -325 -96 c 1
 -341 -111 -362 -134 -358 -173 c 0
 -351 -244 -201 -313 -5 -246 c 1
 -4 -247 -4 -248 -4 -249 c 0
-300 -89 m 0
 -300 -98 -294 -104 -285 -104 c 0
 -276 -104 -270 -98 -270 -89 c 0
 -270 -80 -276 -73 -285 -73 c 0
 -293 -73 -300 -80 -300 -89 c 0
EndSplineSet
Validated: 33
Ligature2: "SubjoinedConsonants-0 subtable" uni1A60 uni1A3E
Ligature2: "SubjoinedConsonants subtable" uni1A60 uni1A3E
LCarets2: 1 0
EndChar

StartChar: uni1A3F.sub
Encoding: 57407 57407 86
GlifName: uni1A_3F_.sub
Width: 125
VWidth: 0
GlyphClass: 4
Flags: HMW
AnchorPoint: "BottomWithRightVerticalStem" 0 -45 mark 0
LayerCount: 3
Fore
SplineSet
64 310 m 0
 80 310 93 304 113 296 c 1
 113 295 112 294 112 294 c 0
 87 295 81 293 79 287 c 0
 77 278 98 279 100 237 c 1
 100 -66 l 1
 98 -173 23 -214 -69 -215 c 0
 -161 -216 -240 -158 -203 -67 c 1
 -201 -68 l 1
 -219 -148 -145 -182 -73 -180 c 0
 -1 -178 56 -150 60 -70 c 1
 60 234 l 1
 59 272 32 269 32 290 c 0
 32 300 41 308 52 309 c 0
 56 310 60 310 64 310 c 0
119 -61 m 1025
79 -60 m 1025
EndSplineSet
Validated: 33
Ligature2: "SubjoinedConsonants-0 subtable" uni1A60 uni1A3F
Ligature2: "SubjoinedConsonants subtable" uni1A60 uni1A3F
LCarets2: 1 0
EndChar

StartChar: uni1A41.sub
Encoding: 57409 57409 87
GlifName: uni1A_41.sub
Width: 0
VWidth: 0
GlyphClass: 4
Flags: HMW
AnchorPoint: "BottomSubjoinedConsonant" -170 -45 mark 0
LayerCount: 3
Fore
SplineSet
-168 -48 m 0
 -51 -48 -2 -155 -36 -273 c 1
 -36 -278 -39 -279 -44 -278 c 1
 -30 -175 -71 -81 -167 -84 c 0
 -183 -85 -203 -88 -211 -104 c 1
 -199 -105 -137 -107 -111 -157 c 0
 -92 -193 -96 -242 -124 -273 c 0
 -173 -329 -286 -295 -292 -213 c 1
 -300 -173 -242 -154 -227 -193 c 0
 -219 -211 -229 -234 -248 -239 c 1
 -226 -272 -138 -285 -135 -209 c 0
 -131 -138 -201 -137 -249 -140 c 1
 -250 -121 -250 -101 -240 -84 c 0
 -226 -59 -196 -48 -168 -48 c 0
-258 -196 m 0
 -263 -196 -267 -200 -268 -204 c 0
 -270 -212 -259 -220 -252 -214 c 0
 -245 -209 -249 -195 -258 -196 c 0
EndSplineSet
Validated: 33
Ligature2: "SubjoinedConsonants-0 subtable" uni1A60 uni1A41
Ligature2: "SubjoinedConsonants subtable" uni1A60 uni1A41
LCarets2: 1 0
EndChar

StartChar: uni1A43.sub
Encoding: 57411 57411 88
GlifName: uni1A_43.sub
Width: 122
VWidth: 0
GlyphClass: 4
Flags: HMW
AnchorPoint: "BottomWithRightVerticalStem" 0 -46 mark 0
LayerCount: 3
Fore
SplineSet
36 300 m 0
 53 300 72 297 97 287 c 1
 97 286 96 285 96 285 c 0
 71 290 46 287 46 280 c 0
 46 271 83 269 85 227 c 1
 85 -101 l 2
 85 -132 79 -166 61 -193 c 0
 43 -220 12 -240 -31 -240 c 0
 -55 -240 -81 -234 -103 -216 c 0
 -125 -198 -140 -169 -142 -132 c 0
 -144 -98 -180 -71 -213 -71 c 0
 -231 -71 -251 -75 -268 -87 c 0
 -285 -99 -301 -118 -301 -146 c 0
 -301 -165 -299 -187 -284 -205 c 1
 -280 -187 -263 -174 -244 -174 c 0
 -221 -174 -203 -192 -203 -215 c 0
 -203 -238 -221 -256 -244 -256 c 0
 -246 -256 -251 -255 -252 -256 c 0
 -306 -247 -335 -208 -335 -146 c 0
 -334 -109 -317 -78 -293 -59 c 0
 -269 -40 -240 -31 -212 -31 c 0
 -159 -31 -106 -72 -102 -130 c 0
 -100 -158 -91 -174 -78 -185 c 0
 -65 -196 -48 -200 -32 -200 c 0
 0 -200 16 -189 28 -171 c 0
 40 -153 45 -127 45 -101 c 2
 45 225 l 1
 44 263 0 259 0 281 c 0
 1 292 14 300 36 300 c 0
-244 -200 m 0
 -253 -200 -260 -206 -260 -215 c 0
 -260 -224 -253 -230 -244 -230 c 0
 -235 -230 -229 -224 -229 -215 c 0
 -229 -206 -235 -200 -244 -200 c 0
EndSplineSet
Ligature2: "SubjoinedConsonants-0 subtable" uni1A60 uni1A43
Ligature2: "SubjoinedConsonants subtable" uni1A60 uni1A43
LCarets2: 1 0
EndChar

StartChar: uni1A45.sub
Encoding: 57413 57413 89
GlifName: uni1A_45.sub
Width: 0
VWidth: 0
GlyphClass: 4
Flags: HMW
AnchorPoint: "BottomSubjoinedConsonant" -145 -45 mark 0
LayerCount: 3
Fore
SplineSet
-277 -175 m 0
 -277 -98 -211 -46 -139 -46 c 0
 -62 -46 -3 -106 -3 -173 c 0
 -3 -240 -59 -304 -140 -304 c 0
 -211 -304 -277 -252 -277 -175 c 0
-141 -268 m 0
 -84 -268 -39 -226 -39 -177 c 0
 -39 -128 -78 -80 -137 -80 c 0
 -138 -80 -143 -80 -144 -80 c 0
 -184 -80 -242 -111 -242 -174 c 0
 -242 -225 -198 -268 -141 -268 c 0
EndSplineSet
Validated: 1
Ligature2: "SubjoinedConsonants-0 subtable" uni1A60 uni1A45
Ligature2: "SubjoinedConsonants subtable" uni1A60 uni1A45
LCarets2: 1 0
EndChar

StartChar: uni1A46.sub
Encoding: 57414 57414 90
GlifName: uni1A_46.sub
Width: 0
VWidth: 0
GlyphClass: 4
Flags: HMW
AnchorPoint: "BottomSubjoinedConsonant" -164 -45 mark 0
LayerCount: 3
Fore
SplineSet
-326 -176 m 0
 -326 -102 -247 -48 -164 -48 c 1
 -125 -48 -86 -59 -55 -82 c 1
 -48 -67 -44 -50 -44 -33 c 0
 -44 -25 -46 -20 -48 -13 c 1
 -46 -10 -45 -12 -42 -10 c 1
 -30 -26 -25 -42 -25 -61 c 0
 -25 -75 -28 -89 -33 -102 c 1
 -10 -129 -2 -155 -2 -178 c 0
 -2 -253 -74 -287 -74 -287 c 1
 -70 -289 -63 -287 -58 -287 c 1
 -53 -285 -53 -288 -53 -292 c 1
 -71 -298 -85 -300 -96 -300 c 0
 -115 -300 -124 -292 -123 -280 c 1
 -123 -257 -71 -260 -47 -212 c 0
 -41 -202 -39 -191 -39 -180 c 0
 -39 -165 -43 -150 -52 -137 c 1
 -74 -165 -102 -179 -123 -179 c 0
 -146 -179 -152 -162 -152 -154 c 0
 -152 -141 -142 -127 -128 -127 c 0
 -123 -127 l 0
 -115 -127 -112 -133 -105 -134 c 1
 -93 -132 -82 -122 -74 -113 c 1
 -101 -93 -132 -84 -163 -84 c 0
 -220 -84 -290 -117 -290 -181 c 0
 -290 -206 -281 -231 -264 -249 c 1
 -255 -236 -243 -230 -232 -230 c 0
 -214 -230 -198 -246 -198 -265 c 0
 -198 -282 -212 -300 -234 -300 c 0
 -271 -300 -326 -241 -326 -176 c 0
-232 -255 m 0
 -236 -255 -243 -260 -243 -266 c 0
 -243 -272 -237 -276 -232 -276 c 0
 -229 -276 -223 -274 -223 -266 c 0
 -223 -260 -227 -255 -232 -255 c 0
EndSplineSet
Validated: 33
Ligature2: "SubjoinedConsonants-0 subtable" uni1A60 uni1A46
Ligature2: "SubjoinedConsonants subtable" uni1A60 uni1A46
LCarets2: 1 0
EndChar

StartChar: uni1A47.sub
Encoding: 57415 57415 91
GlifName: uni1A_47.sub
Width: 136
VWidth: 0
GlyphClass: 4
Flags: HMW
AnchorPoint: "BottomWithRightVerticalStem" 0 -44 mark 0
LayerCount: 3
Fore
SplineSet
-292 -230 m 24
 -299 -230 -305 -236 -305 -243 c 24
 -305 -250 -299 -257 -292 -257 c 24
 -284 -257 -278 -251 -278 -243 c 24
 -278 -236 -285 -230 -292 -230 c 24
49 -274 m 1
 -10 -321 -93 -301 -127 -241 c 1
 -147 -275 -185 -300 -225 -301 c 1
 -302 -301 -336 -260 -324 -232 c 0
 -317 -214 -293 -204 -276 -214 c 1
 -258 -223 -250 -248 -264 -264 c 1
 -213 -281 -154 -250 -146 -191 c 1
 -137 -146 -167 -98 -211 -85 c 0
 -239 -77 -272 -83 -293 -104 c 1
 -316 -131 -336 -105 -326 -89 c 1
 -304 -62 -269 -46 -234 -46 c 2
 -224 -46 l 1
 -172 -50 -128 -92 -114 -141 c 1
 -108 -158 -110 -176 -107 -193 c 0
 -102 -225 -78 -252 -47 -261 c 1
 -20 -270 12 -261 32 -241 c 1
 28 -235 10 -215 -6 -219 c 0
 -21 -223 -41 -215 -42 -198 c 1
 -44 -184 -31 -173 -18 -172 c 0
 11 -170 38 -187 54 -210 c 1
 58 -199 60 -185 60 -172 c 0
 60 -39 61 90 60 224 c 0
 60 262 28 258 28 280 c 0
 28 293 48 299 59 299 c 0
 78 299 96 294 113 286 c 0
 113 285 109 282 109 282 c 1
 84 287 74 286 74 279 c 0
 74 270 97 273 97 227 c 0
 98 127 95 -83 96 -172 c 0
 96 -200 88 -229 71 -251 c 1
 78 -279 74 -304 57 -328 c 1
 54 -328 55 -328 52 -326 c 1
 56 -301 57 -292 49 -274 c 1
EndSplineSet
Validated: 33
Ligature2: "SubjoinedConsonants-0 subtable" uni1A60 uni1A47
Ligature2: "SubjoinedConsonants subtable" uni1A60 uni1A47
LCarets2: 1 0
EndChar

StartChar: uni1A48.sub
Encoding: 57416 57416 92
GlifName: uni1A_48.sub
Width: 139
VWidth: 0
GlyphClass: 4
Flags: HMW
AnchorPoint: "BottomWithRightVerticalStem" 0 -45 mark 0
LayerCount: 3
Fore
SplineSet
-289 -231 m 24
 -296 -231 -303 -237 -303 -244 c 0
 -303 -252 -296 -258 -288 -258 c 24
 -281 -258 -275 -251 -275 -244 c 24
 -275 -237 -282 -231 -289 -231 c 24
62 300 m 0
 81 300 99 295 116 287 c 1
 116 285 l 0
 91 290 77 286 77 279 c 0
 77 270 96 273 97 227 c 1
 96 95 99 -68 99 -178 c 0
 99 -240 58 -287 4 -299 c 0
 -45 -311 -99 -286 -124 -242 c 1
 -144 -277 -183 -301 -224 -302 c 0
 -253 -302 -282 -296 -305 -279 c 0
 -319 -269 -328 -250 -321 -233 c 0
 -314 -215 -290 -205 -273 -215 c 1
 -255 -224 -248 -249 -262 -265 c 1
 -241 -271 -216 -270 -195 -260 c 1
 -168 -248 -147 -222 -143 -193 c 1
 -134 -147 -165 -100 -209 -86 c 0
 -237 -78 -269 -84 -290 -105 c 1
 -295 -112 -301 -118 -310 -117 c 0
 -323 -116 -330 -100 -323 -90 c 1
 -301 -62 -266 -47 -231 -47 c 0
 -229 -47 -226 -47 -224 -47 c 0
 -172 -50 -127 -89 -112 -137 c 0
 -106 -153 -106 -170 -105 -187 c 0
 -101 -216 -85 -244 -58 -257 c 1
 -31 -271 4 -267 27 -248 c 0
 44 -235 63 -214 63 -181 c 0
 63 -96 64 140 62 225 c 0
 61 263 31 259 31 281 c 0
 31 294 51 300 62 300 c 0
EndSplineSet
Validated: 33
Ligature2: "SubjoinedConsonants-0 subtable" uni1A60 uni1A48
Ligature2: "SubjoinedConsonants subtable" uni1A60 uni1A48
LCarets2: 1 0
EndChar

StartChar: uni1A49.sub
Encoding: 57417 57417 93
GlifName: uni1A_49.sub
Width: 0
VWidth: 0
GlyphClass: 4
Flags: HMW
AnchorPoint: "BottomSubjoinedConsonant" -215 -45 mark 0
LayerCount: 3
Fore
SplineSet
-222 -86 m 0
 -187 -36 -61 -16 -13 -136 c 1
 -2 -176 -12 -222 -37 -255 c 0
 -45 -266 -57 -274 -67 -283 c 1
 -59 -285 -46 -274 -46 -286 c 1
 -63 -293 -81 -299 -99 -297 c 0
 -110 -296 -119 -284 -114 -274 c 0
 -107 -262 -93 -258 -83 -250 c 1
 -58 -235 -45 -205 -44 -177 c 1
 -41 -142 -63 -110 -93 -94 c 1
 -132 -69 -196 -85 -203 -128 c 1
 -211 -162 -178 -175 -193 -228 c 0
 -204 -268 -242 -296 -283 -301 c 1
 -318 -304 -355 -297 -383 -275 c 0
 -419 -248 -431 -193 -408 -154 c 0
 -399 -139 -382 -131 -370 -119 c 1
 -407 -104 -393 -52 -358 -52 c 1
 -341 -51 -326 -65 -323 -81 c 1
 -317 -102 -330 -123 -344 -138 c 1
 -355 -152 -372 -161 -380 -178 c 1
 -390 -203 -381 -234 -359 -249 c 0
 -315 -280 -236 -272 -226 -212 c 1
 -218 -179 -263 -143 -222 -86 c 0
-358 -74 m 0
 -365 -74 -371 -80 -371 -87 c 0
 -371 -94 -365 -100 -358 -100 c 0
 -351 -100 -344 -94 -344 -87 c 0
 -344 -80 -351 -74 -358 -74 c 0
EndSplineSet
Validated: 33
Ligature2: "SubjoinedConsonants-0 subtable" uni1A60 uni1A49
Ligature2: "SubjoinedConsonants subtable" uni1A60 uni1A49
LCarets2: 1 0
EndChar

StartChar: uni1A4A.sub
Encoding: 57418 57418 94
GlifName: uni1A_4A_.sub
Width: 0
VWidth: 0
GlyphClass: 4
Flags: HMW
AnchorPoint: "BottomSubjoinedConsonant" -163 -44 mark 0
LayerCount: 3
Fore
SplineSet
-161 -302 m 0
 -218 -302 -317 -292 -317 -251 c 2
 -317 -168 l 1
 -342 -134 -299 -123 -299 -120 c 0
 -299 -110 -329 -113 -322 -97 c 1
 -300 -64 -243 -46 -169 -46 c 0
 -124 -46 -97 -57 -65 -73 c 1
 -32 -93 -3 -122 -7 -182 c 1
 -10 -182 l 1
 -21 -132 -46 -114 -74 -99 c 1
 -105 -86 -131 -76 -169 -76 c 1
 -227 -78 -254 -87 -276 -100 c 1
 -281 -105 -243 -110 -257 -124 c 1
 -270 -142 -291 -144 -291 -148 c 0
 -291 -157 -270 -156 -260 -151 c 0
 -234 -138 -206 -121 -169 -119 c 0
 -130 -117 -104 -147 -122 -177 c 1
 -141 -205 -178 -182 -181 -162 c 1
 -178 -159 l 1
 -171 -164 -151 -172 -151 -158 c 0
 -152 -140 -193 -152 -204 -156 c 0
 -221 -163 -261 -190 -286 -187 c 1
 -286 -239 l 2
 -286 -267 -211 -274 -161 -274 c 0
 -136 -274 -97 -272 -73 -268 c 0
 -56 -265 -18 -257 -60 -243 c 0
 -82 -235 -117 -227 -160 -227 c 0
 -228 -226 -278 -238 -278 -238 c 1
 -281 -234 l 1
 -281 -234 -226 -208 -161 -206 c 0
 -85 -204 -7 -216 -7 -256 c 1
 -9 -288 -58 -302 -161 -302 c 0
EndSplineSet
Validated: 33
Ligature2: "SubjoinedConsonants-0 subtable" uni1A60 uni1A4A
Ligature2: "SubjoinedConsonants subtable" uni1A60 uni1A4A
LCarets2: 1 0
EndChar

StartChar: uni1A4B.sub
Encoding: 57419 57419 95
GlifName: uni1A_4B_.sub
Width: 0
VWidth: 0
GlyphClass: 4
Flags: HMW
AnchorPoint: "BottomSubjoinedConsonant" -321 -61 mark 0
LayerCount: 3
Fore
SplineSet
-320 -98 m 24
 -329 -98 -336 -104 -336 -114 c 0
 -336 -125 -329 -130 -320 -130 c 24
 -311 -130 -304 -123 -304 -114 c 24
 -304 -105 -311 -98 -320 -98 c 24
-320 -73 m 0
 -297 -73 -278 -91 -278 -114 c 0
 -278 -137 -297 -156 -320 -156 c 0
 -329 -156 -338 -152 -345 -147 c 1
 -342 -171 -322 -180 -300 -183 c 1
 -259 -185 -234 -135 -234 -135 c 1
 -234 -135 -228 -122 -219 -120 c 0
 -210 -118 -202 -130 -202 -130 c 1
 -202 -130 -174 -165 -129 -167 c 0
 -52 -170 -6 -134 -6 -134 c 1
 -3 -138 l 1
 -3 -138 -53 -198 -129 -199 c 0
 -165 -199 -194 -184 -211 -173 c 1
 -226 -194 -256 -225 -302 -223 c 0
 -340 -222 -367 -202 -376 -166 c 0
 -388 -118 -361 -73 -320 -73 c 0
EndSplineSet
Validated: 33
Ligature2: "SubjoinedConsonants-0 subtable" uni1A60 uni1A4B
Ligature2: "SubjoinedConsonants subtable" uni1A60 uni1A4B
LCarets2: 1 0
EndChar

StartChar: uni1A56
Encoding: 6742 6742 96
GlifName: uni1A_56
Width: 0
VWidth: 0
GlyphClass: 2
Flags: HMW
AnchorPoint: "BottomSubjoinedConsonant" -210 -45 mark 0
LayerCount: 3
Fore
SplineSet
-285 -46 m 2
 -221 -46 -172 -101 -182 -160 c 1
 -183 -176 -217 -223 -173 -251 c 1
 -116 -284 -50 -244 -41 -192 c 1
 -39 -166 -45 -139 -60 -118 c 0
 -71 -102 -90 -96 -104 -84 c 1
 -115 -76 -112 -58 -101 -53 c 0
 -83 -44 -54 -52 -35 -65 c 1
 -39 -70 l 1
 -45 -67 -52 -67 -57 -68 c 1
 -22 -90 -4 -132 -2 -172 c 0
 1 -216 -24 -259 -60 -282 c 0
 -93 -304 -136 -307 -173 -294 c 1
 -219 -280 -251 -223 -224 -167 c 0
 -214 -147 -221 -122 -236 -106 c 0
 -282 -58 -384 -94 -375 -183 c 1
 -374 -205 -365 -226 -349 -241 c 1
 -340 -226 -317 -220 -301 -229 c 0
 -284 -238 -277 -263 -288 -279 c 1
 -297 -294 -319 -300 -335 -295 c 0
 -385 -279 -444 -197 -399 -112 c 1
 -379 -72 -338 -47 -294 -46 c 1
 -285 -46 l 2
-319 -251 m 0
 -325 -251 -329 -255 -329 -261 c 0
 -329 -267 -325 -271 -319 -271 c 0
 -313 -271 -308 -267 -308 -261 c 0
 -308 -255 -313 -251 -319 -251 c 0
EndSplineSet
Validated: 33
EndChar

StartChar: uni1A57
Encoding: 6743 6743 97
GlifName: uni1A_57
Width: 131
VWidth: 0
GlyphClass: 4
Flags: HMW
AnchorPoint: "BottomWithRightVerticalStem" 0 -45 mark 0
LayerCount: 3
Fore
SplineSet
36 300 m 0
 53 300 72 297 97 287 c 1
 97 286 96 285 96 285 c 0
 71 290 46 287 46 280 c 0
 46 271 83 269 85 227 c 1
 85 -101 l 2
 85 -111 84 -121 83 -131 c 1
 105 -169 100 -213 100 -213 c 1
 100 -213 98 -211 97 -211 c 1
 91 -193 86 -177 76 -161 c 1
 72 -172 67 -183 61 -193 c 0
 43 -220 12 -240 -31 -240 c 0
 -55 -240 -81 -234 -103 -216 c 0
 -125 -198 -140 -169 -142 -132 c 0
 -144 -98 -180 -71 -213 -71 c 0
 -231 -71 -251 -75 -268 -87 c 0
 -285 -99 -301 -118 -301 -146 c 0
 -301 -165 -299 -187 -284 -205 c 1
 -280 -187 -263 -174 -244 -174 c 0
 -221 -174 -203 -192 -203 -215 c 0
 -203 -238 -221 -256 -244 -256 c 0
 -246 -256 -251 -255 -252 -256 c 0
 -306 -247 -335 -208 -335 -146 c 0
 -334 -109 -317 -78 -293 -59 c 0
 -269 -40 -240 -31 -212 -31 c 0
 -159 -31 -106 -72 -102 -130 c 0
 -100 -158 -91 -174 -78 -185 c 0
 -65 -196 -48 -200 -32 -200 c 0
 0 -200 16 -189 28 -171 c 0
 36 -159 41 -144 43 -127 c 1
 38 -124 32 -122 25 -120 c 1
 25 -126 24 -132 22 -138 c 0
 14 -159 -11 -169 -32 -161 c 0
 -53 -153 -62 -129 -55 -108 c 0
 -46 -83 -10 -69 29 -85 c 0
 35 -87 40 -89 45 -92 c 1
 44 225 l 1
 43 263 0 259 0 281 c 0
 1 292 18 300 36 300 c 0
-17 -108 m 0
 -23 -108 -29 -111 -31 -117 c 0
 -34 -125 -30 -134 -22 -137 c 0
 -14 -140 -5 -137 -2 -129 c 0
 1 -121 -3 -112 -11 -109 c 0
 -13 -108 -15 -108 -17 -108 c 0
-244 -200 m 0
 -253 -200 -260 -206 -260 -215 c 0
 -260 -224 -253 -230 -244 -230 c 0
 -235 -230 -229 -224 -229 -215 c 0
 -229 -206 -235 -200 -244 -200 c 0
EndSplineSet
Validated: 33
EndChar

StartChar: uni1A58
Encoding: 6744 6744 98
GlifName: uni1A_58
Width: 0
VWidth: 0
GlyphClass: 4
Flags: HMW
AnchorPoint: "TopPositioningForSara_I" -535 352 mark 0
LayerCount: 3
Fore
SplineSet
-469 568 m 0
 -384 568 -346 524 -319 487 c 0
 -306 470 -289 430 -259 431 c 1
 -273 435 -284 453 -283 478 c 0
 -282 508 -256 535 -220 535 c 0
 -185 535 -162 510 -160 475 c 0
 -159 458 -169 439 -183 432 c 1
 -132 413 -54 456 -6 508 c 1
 -4 506 l 1
 -33 453 -96 401 -150 393 c 0
 -169 390 -192 394 -213 406 c 1
 -223 400 -234 393 -253 394 c 0
 -304 395 -319 424 -347 464 c 0
 -372 499 -394 525 -468 529 c 0
 -537 533 -595 493 -620 422 c 1
 -592 448 -567 461 -520 463 c 0
 -436 466 -403 409 -404 378 c 0
 -406 342 -451 331 -457 373 c 1
 -455 375 l 1
 -447 361 -431 365 -432 376 c 0
 -433 403 -464 426 -519 425 c 0
 -619 423 -651 351 -651 351 c 1
 -654 352 l 1
 -657 408 -638 472 -611 502 c 0
 -579 538 -544 568 -469 568 c 0
-222 497 m 0
 -237 497 -246 481 -246 473 c 0
 -246 459 -239 452 -220 445 c 1
 -203 453 -199 461 -198 473 c 0
 -197 485 -208 497 -222 497 c 0
EndSplineSet
Validated: 33
EndChar

StartChar: uni1A59
Encoding: 6745 6745 99
GlifName: uni1A_59
Width: 0
VWidth: 0
GlyphClass: 4
Flags: HMW
AnchorPoint: "TopRightAlignedMarks" -171 352 mark 0
LayerCount: 3
Fore
SplineSet
-283 509 m 1
 -277 500 -252 496 -252 477 c 1
 -249 449 -291 418 -285 399 c 1
 -270 378 -237 423 -226 432 c 1
 -206 453 -174 466 -145 458 c 1
 -119 452 -101 424 -108 398 c 1
 -115 366 -172 360 -175 399 c 0
 -176 404 -168 408 -168 401 c 1
 -165 392 -152 391 -145 397 c 1
 -142 403 -143 413 -149 418 c 1
 -158 423 -170 421 -180 418 c 1
 -200 409 -211 390 -227 376 c 1
 -240 362 -259 353 -279 356 c 1
 -306 358 -350 392 -301 457 c 1
 -299 462 -293 464 -293 469 c 1
 -298 476 -308 477 -314 482 c 1
 -323 487 -326 498 -323 508 c 0
 -306 570 -249 612 -166 612 c 0
 -68 613 -2 541 -2 468 c 0
 -2 408 -29 364 -65 341 c 0
 -69 338 -73 338 -74 344 c 1
 -38 381 -25 424 -28 467 c 0
 -32 529 -112 607 -224 564 c 0
 -250 554 -273 535 -283 509 c 1
EndSplineSet
Validated: 33
EndChar

StartChar: uni1A5A
Encoding: 6746 6746 100
GlifName: uni1A_5A_
Width: 0
VWidth: 0
GlyphClass: 4
Flags: HMW
AnchorPoint: "TopRightAlignedMarks" -173 353 mark 0
LayerCount: 3
Fore
SplineSet
-108 612 m 0
 -40 612 -2 544 -2 489 c 1
 0 417 -82 377 -84 376 c 1
 -77 372 -61 384 -63 372 c 1
 -76 367 -90 363 -105 363 c 0
 -125 363 -132 370 -132 382 c 0
 -132 385 -132 387 -130 390 c 0
 -121 401 -105 404 -94 413 c 1
 -60 433 -38 460 -38 492 c 0
 -38 534 -70 576 -109 576 c 0
 -153 576 -145 535 -173 535 c 0
 -203 535 -191 576 -244 576 c 0
 -283 576 -307 534 -309 500 c 1
 -310 467 -298 432 -273 410 c 1
 -270 424 -255 432 -240 432 c 0
 -212 432 -205 408 -205 398 c 0
 -205 387 -212 363 -241 363 c 0
 -295 363 -345 424 -345 492 c 0
 -345 555 -304 612 -242 612 c 0
 -215 612 -190 601 -176 585 c 1
 -174 581 -172 581 -170 585 c 1
 -155 603 -131 612 -108 612 c 0
-240 388 m 0
 -234 388 -230 393 -230 399 c 0
 -230 404 -233 408 -238 408 c 0
 -241 408 l 0
 -246 408 -250 404 -250 398 c 0
 -250 393 -245 388 -240 388 c 0
EndSplineSet
Validated: 33
EndChar

StartChar: uni1A5B
Encoding: 6747 6747 101
GlifName: uni1A_5B_
Width: 0
VWidth: 0
GlyphClass: 4
Flags: HMW
AnchorPoint: "BottomWithRightVerticalStem" -8 -45 mark 0
LayerCount: 3
Fore
SplineSet
-25 73 m 1
 -25 -202 l 2
 -25 -253 -58 -287 -97 -305 c 0
 -136 -323 -190 -330 -225 -330 c 0
 -258 -330 -312 -327 -351 -313 c 1
 -395 -295 -424 -268 -425 -218 c 1
 -425 -179 -407 -144 -374 -122 c 0
 -341 -100 -286 -91 -225 -94 c 0
 -142 -99 -69 -150 -69 -150 c 1
 -72 -152 l 1
 -72 -152 -139 -117 -225 -119 c 0
 -280 -120 -326 -132 -354 -153 c 0
 -376 -170 -385 -190 -385 -218 c 1
 -383 -250 -366 -264 -337 -275 c 0
 -307 -286 -256 -290 -225 -290 c 0
 -196 -290 -145 -284 -115 -269 c 0
 -85 -254 -65 -236 -65 -202 c 2
 -65 44 l 1
 -49 56 -43 61 -25 73 c 1
EndSplineSet
Validated: 33
EndChar

StartChar: uni1A5C
Encoding: 6748 6748 102
GlifName: uni1A_5C_
Width: 0
VWidth: 0
GlyphClass: 4
Flags: HMW
AnchorPoint: "BottomSubjoinedConsonant" -168 -45 mark 0
LayerCount: 3
Fore
SplineSet
-249 -48 m 1
 -215 -45 -196 -97 -231 -114 c 1
 -248 -120 -266 -129 -276 -145 c 0
 -288 -165 -289 -190 -280 -211 c 0
 -256 -262 -141 -293 -69 -234 c 1
 -87 -214 -123 -197 -133 -212 c 1
 -148 -241 -189 -220 -181 -195 c 0
 -170 -163 -103 -151 -48 -208 c 1
 -48 -208 -16 -158 -65 -114 c 0
 -79 -100 -99 -95 -115 -84 c 0
 -126 -77 -122 -58 -110 -54 c 0
 -93 -48 -67 -56 -52 -63 c 1
 -52 -65 l 1
 -57 -64 -61 -64 -66 -64 c 0
 -67 -64 -74 -63 -72 -65 c 0
 15 -114 8 -196 -22 -237 c 1
 -6 -265 0 -290 -5 -328 c 1
 -10 -328 l 1
 -13 -301 -33 -268 -44 -261 c 1
 -127 -334 -292 -303 -318 -212 c 0
 -324 -188 -324 -161 -314 -139 c 0
 -306 -123 -293 -110 -278 -101 c 1
 -279 -98 -281 -94 -281 -90 c 0
 -285 -70 -269 -48 -249 -48 c 1
-247 -73 m 0
 -252 -73 -256 -76 -257 -80 c 0
 -260 -89 -248 -97 -241 -91 c 1
 -233 -86 -238 -72 -247 -73 c 0
EndSplineSet
Validated: 33
EndChar

StartChar: uni1A5D
Encoding: 6749 6749 103
GlifName: uni1A_5D_
Width: 0
VWidth: 0
GlyphClass: 4
Flags: HMW
AnchorPoint: "BottomSubjoinedConsonant" -169 -45 mark 0
LayerCount: 3
Fore
SplineSet
-250 -48 m 1
 -217 -45 -197 -97 -230 -113 c 0
 -242 -119 -255 -123 -265 -132 c 0
 -296 -157 -304 -230 -222 -256 c 1
 -143 -286 -55 -251 -41 -189 c 0
 -34 -161 -47 -130 -68 -112 c 0
 -82 -99 -101 -94 -116 -83 c 0
 -126 -75 -123 -58 -111 -54 c 0
 -94 -48 -68 -55 -53 -63 c 1
 -53 -65 l 1
 -60 -64 -68 -63 -74 -65 c 1
 -63 -72 -51 -79 -42 -88 c 0
 22 -145 7 -236 -71 -279 c 0
 -161 -329 -297 -294 -319 -211 c 0
 -325 -187 -326 -160 -315 -138 c 1
 -306 -123 -294 -110 -279 -101 c 1
 -279 -98 -282 -94 -282 -91 c 0
 -287 -71 -271 -48 -250 -48 c 1
-248 -73 m 0
 -253 -73 -257 -76 -258 -81 c 0
 -260 -90 -249 -97 -242 -91 c 1
 -234 -86 -239 -72 -248 -73 c 0
EndSplineSet
Validated: 33
EndChar

StartChar: uni1A5E
Encoding: 6750 6750 104
GlifName: uni1A_5E_
Width: 0
VWidth: 0
GlyphClass: 4
Flags: HMW
AnchorPoint: "BottomSubjoinedConsonant" -228 -45 mark 0
LayerCount: 3
Fore
SplineSet
-363 -265 m 1
 -308 -281 -251 -245 -244 -193 c 1
 -235 -147 -266 -100 -310 -86 c 0
 -338 -78 -370 -84 -391 -105 c 1
 -396 -112 -402 -118 -411 -117 c 0
 -424 -116 -431 -100 -424 -90 c 0
 -366 -16 -243 -41 -213 -137 c 1
 -203 -164 -216 -230 -159 -257 c 0
 -132 -271 -97 -267 -74 -248 c 1
 -16 -205 -37 -124 -83 -102 c 1
 -101 -92 -122 -93 -141 -87 c 0
 -153 -84 -155 -68 -148 -59 c 0
 -137 -45 -107 -45 -88 -50 c 1
 -88 -52 l 1
 -94 -53 -114 -58 -104 -58 c 1
 -77 -63 -51 -77 -33 -99 c 1
 32 -171 -14 -279 -97 -299 c 0
 -146 -311 -200 -286 -225 -242 c 1
 -245 -277 -284 -301 -325 -302 c 1
 -402 -302 -434 -262 -422 -233 c 0
 -415 -215 -391 -205 -374 -215 c 1
 -356 -224 -349 -249 -363 -265 c 1
-390 -235 m 0
 -395 -235 -399 -239 -400 -243 c 0
 -402 -252 -391 -259 -384 -253 c 1
 -376 -248 -381 -234 -390 -235 c 0
EndSplineSet
Validated: 33
EndChar

StartChar: uni1A61
Encoding: 6753 6753 105
GlifName: uni1A_61
Width: 252
VWidth: 0
GlyphClass: 2
Flags: W
HStem: 29 26<61.4343 91.5274> 86 40<61.9252 91.9949> 169 26<61.4343 91.5274> 226 40<61.9252 91.9949>
VStem: 35 26<55.17 85.3368 195.17 225.337> 92 25<55.5539 85.5599 195.554 225.56>
LayerCount: 3
Fore
SplineSet
100 266 m 0
 101 266 102 266 103 266 c 0
 197 265 218 169 218 169 c 1
 218 169 217 170 216 169 c 1
 189 201 155 234 113 228 c 1
 116 223 117 216 117 210 c 0
 117 187 99 169 76 169 c 0
 53 169 35 188 35 210 c 0
 35 248 66 265 100 266 c 0
76 226 m 0
 67 226 61 219 61 210 c 0
 61 201 67 195 76 195 c 0
 85 195 92 201 92 210 c 0
 92 219 85 226 76 226 c 0
100 126 m 0
 101 126 102 126 103 126 c 0
 197 125 218 29 218 29 c 1
 218 29 217 30 216 29 c 1
 189 61 155 94 113 88 c 1
 116 83 117 76 117 70 c 0
 117 47 99 29 76 29 c 0
 53 29 35 48 35 70 c 0
 35 108 66 125 100 126 c 0
76 86 m 0
 67 86 61 79 61 70 c 0
 61 61 67 55 76 55 c 0
 85 55 92 61 92 70 c 0
 92 79 85 86 76 86 c 0
EndSplineSet
Validated: 33
EndChar

StartChar: uni1A63
Encoding: 6755 6755 106
GlifName: uni1A_63
Width: 324
VWidth: 0
GlyphClass: 2
Flags: HMW
AnchorPoint: "BottomSubjoinedConsonant" 142 -45 basechar 0
AnchorPoint: "BottomWithRightVerticalStem" 293 -45 basechar 0
AnchorPoint: "TopCenteredOnCenter" 115 352 basechar 0
AnchorPoint: "TopRightAlignedMarks" 261 352 basechar 0
AnchorPoint: "TopPositioningForMaiEekMaiKoo" 190 352 basechar 0
AnchorPoint: "TopPositioningForMaiKang" -39 352 basechar 0
LayerCount: 3
Fore
SplineSet
115 310 m 4
 209 310 285 238 285 150 c 4
 285 62 209 0 115 0 c 4
 92 0 75 0 110 -8 c 5
 110 -10 l 5
 110 -10 23 -7 37 31 c 5
 47 51 82 39 113 37 c 4
 185 32 245 84 245 151 c 4
 245 218 186 272 114 272 c 4
 90 272 68 265 49 255 c 5
 26 244 9 273 30 289 c 5
 55 302 84 310 115 310 c 4
EndSplineSet
EndChar

StartChar: uni1A64
Encoding: 6756 6756 107
GlifName: uni1A_64
Width: 125
VWidth: 0
GlyphClass: 2
Flags: HMW
AnchorPoint: "BottomSubjoinedConsonant" 42 -45 basechar 0
AnchorPoint: "BottomWithRightVerticalStem" 125 -45 basechar 0
AnchorPoint: "TopCenteredOnCenter" -54 352 basechar 0
AnchorPoint: "TopRightAlignedMarks" 138 352 basechar 0
LayerCount: 3
Fore
SplineSet
-52 629 m 0
 -14 629 21 619 47 596 c 0
 73 573 90 539 90 497 c 0
 91 418 89 206 90 57 c 0
 90 22 83 10 71 0 c 0
 63 -7 53 -12 41 -12 c 0
 18 -12 0 6 0 29 c 0
 0 52 18 71 41 71 c 0
 44 71 47 71 50 70 c 1
 50 113 50 422 49 497 c 0
 48 525 42 545 22 567 c 0
 10 580 -9 591 -48 596 c 0
 -119 604 -169 569 -169 569 c 1
 -171 572 l 1
 -143 607 -98 629 -52 629 c 0
41 45 m 0
 32 45 25 38 25 29 c 0
 25 20 32 14 41 14 c 0
 50 14 56 20 56 29 c 0
 56 38 50 45 41 45 c 0
EndSplineSet
Validated: 33
EndChar

StartChar: uni1A62
Encoding: 6754 6754 108
GlifName: uni1A_62
Width: 0
VWidth: 0
GlyphClass: 4
Flags: HMW
AnchorPoint: "TopCenteredOnCenter" -314 352 mark 0
LayerCount: 3
Fore
SplineSet
-6 525 m 1
 -5 523 l 1
 -297 386 l 1
 -297 386 -319 376 -327 397 c 0
 -335 418 -315 425 -315 425 c 1
 -6 525 l 1
EndSplineSet
Validated: 33
EndChar

StartChar: uni1A6B
Encoding: 6763 6763 109
GlifName: uni1A_6B_
Width: 0
VWidth: 0
GlyphClass: 4
Flags: HMW
AnchorPoint: "TopPositioningForMaiEekMaiKoo" -88 352 mark 0
LayerCount: 3
Fore
SplineSet
-159 459 m 0
 -150 484 -115 498 -76 482 c 0
 5 450 -1 352 -1 352 c 1
 -1 352 -5 352 -6 352 c 0
 -19 392 -38 437 -80 447 c 1
 -80 414 -108 394 -136 405 c 0
 -157 413 -166 438 -159 459 c 0
-107 438 m 0
 -100 456 -128 468 -135 449 c 0
 -142 430 -114 420 -107 438 c 0
EndSplineSet
Validated: 33
EndChar

StartChar: uni1A6C
Encoding: 6764 6764 110
GlifName: uni1A_6C_
Width: 0
VWidth: 0
GlyphClass: 4
Flags: W
HStem: -187 139
AnchorPoint: "BottomSubjoinedConsonant" -293 -45 mark 0
LayerCount: 3
Fore
SplineSet
-289 -48 m 0
 -268 -50 -252 -68 -254 -89 c 0
 -257 -121 -295 -132 -318 -113 c 1
 -317 -135 -300 -146 -280 -150 c 1
 -243 -155 -215 -112 -215 -112 c 1
 -215 -112 -209 -100 -200 -99 c 0
 -191 -98 -186 -109 -186 -109 c 1
 -186 -109 -163 -144 -122 -149 c 0
 -51 -158 -6 -129 -6 -129 c 1
 -4 -133 l 1
 -4 -133 -56 -185 -125 -179 c 0
 -158 -176 -182 -160 -197 -148 c 1
 -213 -166 -243 -192 -285 -187 c 0
 -319 -183 -343 -161 -348 -128 c 0
 -355 -83 -327 -45 -289 -48 c 0
-291 -72 m 0
 -298 -72 -306 -76 -306 -84 c 0
 -308 -102 -280 -106 -278 -87 c 0
 -277 -79 -283 -73 -291 -72 c 0
EndSplineSet
Validated: 33
EndChar

StartChar: uni1A6D
Encoding: 6765 6765 111
GlifName: uni1A_6D_
Width: 145
VWidth: 0
GlyphClass: 4
Flags: HMW
AnchorPoint: "BottomWithRightVerticalStem" 0 -44 mark 0
LayerCount: 3
Fore
SplineSet
126 630 m 0
 147 630 161 617 169 600 c 1
 167 599 l 1
 158 605 140 614 124 604 c 0
 105 593 100 565 98 543 c 1
 94 414 97 388 97 260 c 2
 97 -88 l 2
 97 -168 41 -216 -32 -216 c 0
 -118 -216 -179 -159 -170 -102 c 0
 -167 -81 -148 -64 -126 -64 c 0
 -103 -64 -86 -82 -85 -105 c 0
 -85 -127 -103 -147 -126 -145 c 1
 -107 -170 -69 -180 -32 -180 c 1
 18 -176 57 -142 57 -88 c 2
 57 258 l 2
 57 388 49 407 62 549 c 1
 67 575 77 603 98 620 c 0
 106 626 115 630 126 630 c 0
-126 -90 m 0
 -135 -90 -141 -96 -141 -105 c 0
 -141 -114 -135 -120 -126 -120 c 0
 -117 -120 -111 -114 -111 -105 c 0
 -111 -96 -117 -90 -126 -90 c 0
EndSplineSet
Validated: 33
EndChar

StartChar: uni1A6E
Encoding: 6766 6766 112
GlifName: uni1A_6E_
Width: 355
VWidth: 0
GlyphClass: 2
Flags: W
HStem: -10 35<134.213 228.438> 71 26<246.518 275.482> 276 34<137.901 258.511>
VStem: 35 40<80.8993 219.127> 220 26<40.1665 70.5969> 276 26<40.334 70.5969>
LayerCount: 3
Fore
SplineSet
192 310 m 0
 242 310 282 286 321 238 c 1
 316 238 l 1
 267 269 239 277 191 276 c 0
 127 275 75 217 75 150 c 0
 75 83 127 25 191 25 c 0
 203 25 217 27 229 30 c 1
 223 37 220 45 220 55 c 0
 220 78 238 97 261 97 c 0
 284 97 302 78 302 55 c 1
 301 47 301 35 283 19 c 0
 257 -3 225 -10 192 -10 c 0
 107 -10 35 62 35 150 c 0
 35 238 105 310 192 310 c 0
261 71 m 0
 252 71 246 64 246 55 c 0
 246 46 252 40 261 40 c 0
 270 40 276 46 276 55 c 0
 276 64 270 71 261 71 c 0
EndSplineSet
Validated: 33
EndChar

StartChar: uni1A6F
Encoding: 6767 6767 113
GlifName: uni1A_6F_
Width: 668
VWidth: 0
GlyphClass: 2
Flags: W
HStem: -10 35<134.213 228.438 447.213 541.438> 71 26<246.518 275.482 559.518 589.431> 277 33<134.312 256.648 451.219 569.648>
VStem: 35 40<80.8993 219.285> 220 26<40.1665 70.5969> 276 26<40.334 70.5969> 348 40<80.8993 219.127> 533 26<40.1665 70.5969> 590 25<40.4536 70.4591>
LayerCount: 3
Fore
SplineSet
192 310 m 0
 242 310 282 286 321 238 c 1
 317 238 l 1
 268 269 236 278 188 277 c 0
 124 276 75 217 75 150 c 0
 75 83 127 25 191 25 c 0
 203 25 217 27 229 30 c 1
 223 37 220 45 220 55 c 0
 220 78 238 97 261 97 c 0
 284 97 302 78 302 55 c 1
 301 47 301 35 283 19 c 0
 257 -3 225 -10 192 -10 c 0
 107 -10 35 62 35 150 c 0
 35 238 105 310 192 310 c 0
505 310 m 0
 555 310 595 286 634 238 c 1
 630 237 l 1
 581 268 552 277 504 276 c 0
 440 275 388 217 388 150 c 0
 388 83 440 25 504 25 c 0
 516 25 530 27 542 30 c 1
 536 37 533 45 533 55 c 0
 533 78 551 97 574 97 c 0
 597 97 615 78 615 55 c 1
 614 47 614 35 596 19 c 0
 570 -3 538 -10 505 -10 c 0
 420 -10 348 62 348 150 c 0
 348 238 418 310 505 310 c 0
261 71 m 0
 252 71 246 64 246 55 c 0
 246 46 252 40 261 40 c 0
 270 40 276 46 276 55 c 0
 276 64 270 71 261 71 c 0
574 71 m 0
 565 71 559 64 559 55 c 0
 559 46 565 40 574 40 c 0
 583 40 590 46 590 55 c 0
 590 64 583 71 574 71 c 0
EndSplineSet
Validated: 33
EndChar

StartChar: uni1A70
Encoding: 6768 6768 114
GlifName: uni1A_70
Width: 317
VWidth: 0
GlyphClass: 2
Flags: W
HStem: -10 50<141.215 247.313> 71 26<225.569 255.482> 271 38<164.521 250.988> 592 38<163.5 391.812>
VStem: 35 38<88.6342 204.827 377.215 518.542> 200 25<40.4768 70.4591> 256 26<40.334 70.5969>
LayerCount: 3
Fore
SplineSet
266 630 m 0
 372 631 491 590 574 501 c 1
 569 497 l 1
 569 497 452 593 266 592 c 0
 206 592 157 576 124 552 c 0
 91 528 73 496 73 459 c 0
 73 401 89 371 116 350 c 0
 143 329 192 319 235 309 c 1
 235 309 251 305 251 290 c 0
 251 275 235 271 235 271 c 1
 135 264 77 225 78 150 c 0
 79 74 130 16 208 30 c 1
 202 37 200 45 200 55 c 0
 200 78 218 97 241 97 c 0
 264 97 282 78 282 55 c 1
 281 47 281 35 263 19 c 0
 237 -3 204 -10 171 -10 c 0
 102 -10 33 54 36 151 c 0
 38 222 72 269 150 290 c 1
 129 297 110 306 93 320 c 0
 58 348 35 393 35 459 c 0
 35 509 60 552 101 582 c 0
 142 612 199 629 266 630 c 0
241 71 m 0
 232 71 225 64 225 55 c 0
 225 46 232 40 241 40 c 0
 250 40 256 46 256 55 c 0
 256 64 250 71 241 71 c 0
EndSplineSet
Validated: 33
EndChar

StartChar: uni1A71
Encoding: 6769 6769 115
GlifName: uni1A_71
Width: 277
VWidth: 0
GlyphClass: 2
Flags: HMW
LayerCount: 3
Fore
SplineSet
65 629 m 1
 168 628 243 549 242 438 c 0
 241 340 194 309 151 269 c 0
 121 242 79 212 79 149 c 0
 79 97 99 63 145 41 c 1
 144 64 163 82 185 82 c 0
 208 82 227 64 227 41 c 0
 227 18 209 1 185 0 c 0
 153 -1 136 6 111 20 c 0
 76 40 38 82 39 149 c 0
 40 219 80 259 126 299 c 0
 163 331 204 364 204 438 c 0
 204 519 160 595 57 598 c 0
 -42 601 -95 549 -95 549 c 1
 -97 552 l 1
 -97 552 -47 629 65 629 c 1
185 56 m 0
 176 56 170 50 170 41 c 0
 170 32 176 26 185 26 c 0
 194 26 201 32 201 41 c 0
 201 50 194 56 185 56 c 0
EndSplineSet
Validated: 33
EndChar

StartChar: uni1A72
Encoding: 6770 6770 116
GlifName: uni1A_72
Width: 275
VWidth: 0
GlyphClass: 2
Flags: HMW
LayerCount: 3
Fore
SplineSet
62 629 m 0
 165 628 241 549 240 438 c 0
 239 340 192 309 149 269 c 0
 119 242 77 212 77 149 c 0
 77 97 96 63 142 41 c 1
 141 64 161 82 183 82 c 0
 206 82 224 64 224 41 c 0
 224 18 207 1 183 0 c 0
 151 -1 133 6 108 20 c 0
 73 40 36 82 37 149 c 0
 38 219 78 259 124 299 c 0
 161 331 202 364 202 438 c 0
 202 519 157 595 54 598 c 0
 33 599 12 597 -9 590 c 0
 -37 581 -73 558 -81 525 c 0
 -88 495 -83 468 -59 469 c 0
 -38 470 -33 497 -48 509 c 1
 -45 512 l 1
 -28 503 -21 486 -24 470 c 0
 -27 454 -45 444 -62 445 c 0
 -110 449 -116 501 -105 537 c 0
 -94 573 -62 600 -22 617 c 0
 3 628 35 629 62 629 c 0
183 56 m 0
 174 56 168 50 168 41 c 0
 168 32 174 26 183 26 c 0
 192 26 198 32 198 41 c 0
 198 50 192 56 183 56 c 0
EndSplineSet
Validated: 33
EndChar

StartChar: uni1A73
Encoding: 6771 6771 117
GlifName: uni1A_73
Width: 0
VWidth: 0
GlyphClass: 4
Flags: HMW
AnchorPoint: "TopPositioningForMaiEekMaiKoo" -91 352 mark 0
LayerCount: 3
Fore
SplineSet
-90 510 m 0
 -59 510 -35 487 -35 456 c 0
 -35 440 -41 424 -53 413 c 0
 -57 410 -62 408 -67 404 c 1
 -52 389 -30 373 -6 358 c 1
 -9 354 l 1
 -45 370 -71 380 -90 391 c 1
 -109 380 -136 370 -172 354 c 1
 -174 358 l 1
 -150 373 -128 389 -113 404 c 1
 -120 408 -129 415 -132 419 c 0
 -141 428 -145 441 -145 456 c 0
 -145 487 -121 510 -90 510 c 0
-90 476 m 0
 -102 476 -110 468 -110 456 c 0
 -110 444 -102 435 -90 435 c 0
 -78 435 -70 444 -70 456 c 0
 -70 468 -78 476 -90 476 c 0
EndSplineSet
Validated: 1
EndChar

StartChar: uni1A74
Encoding: 6772 6772 118
GlifName: uni1A_74
Width: 0
VWidth: 0
GlyphClass: 4
Flags: HMW
AnchorPoint: "TopPositioningForMaiKang" -66 352 mark 0
LayerCount: 3
Fore
SplineSet
-66 484 m 0
 -31 484 -3 456 -3 421 c 0
 -3 386 -31 358 -66 358 c 0
 -101 358 -129 386 -129 421 c 0
 -129 456 -101 484 -66 484 c 0
-66 449 m 0
 -82 449 -94 437 -94 421 c 0
 -94 405 -82 393 -66 393 c 0
 -50 393 -38 405 -38 421 c 0
 -38 437 -50 449 -66 449 c 0
EndSplineSet
Validated: 1
EndChar

StartChar: uni1A75
Encoding: 6773 6773 119
GlifName: uni1A_75
Width: 0
VWidth: 0
GlyphClass: 4
Flags: HMW
AnchorPoint: "TopPositioningForMaiEekMaiKoo" -22 352 mark 0
LayerCount: 3
Fore
SplineSet
-42 517 m 1
 -2 517 l 1
 -2 386 l 1
 -42 386 l 1
 -42 517 l 1
EndSplineSet
Validated: 1
EndChar

StartChar: uni1A76
Encoding: 6774 6774 120
GlifName: uni1A_76
Width: 0
VWidth: 0
GlyphClass: 4
Flags: HMW
AnchorPoint: "TopCenteredOnCenter" -300 352 mark 0
LayerCount: 3
Fore
SplineSet
-3 477 m 1
 -2 474 l 1
 -309 382 l 1
 -300 389 -298 407 -299 413 c 0
 -300 423 -308 433 -319 442 c 1
 -294 450 -286 427 -278 428 c 2
 -3 477 l 1
EndSplineSet
Validated: 33
EndChar

StartChar: uni1A77
Encoding: 6775 6775 121
GlifName: uni1A_77
Width: 0
VWidth: 0
GlyphClass: 4
Flags: HMW
AnchorPoint: "TopPositioningForMaiEekMaiKoo" -104 352 mark 0
LayerCount: 3
Fore
SplineSet
-101 466 m 0
 -89 466 -86 452 -86 452 c 1
 -78 426 -49 400 -12 384 c 0
 -8 382 -5 379 -3 375 c 0
 -1 371 -1 366 -3 362 c 0
 -5 358 -8 356 -12 354 c 0
 -16 352 -20 352 -24 354 c 0
 -56 368 -85 394 -102 420 c 1
 -121 393 -150 369 -179 354 c 0
 -183 352 -187 352 -191 353 c 0
 -195 354 -198 357 -200 361 c 0
 -202 365 -202 370 -201 374 c 0
 -200 378 -197 381 -193 383 c 0
 -159 400 -125 427 -117 452 c 1
 -117 452 -113 466 -101 466 c 0
EndSplineSet
Validated: 1
EndChar

StartChar: uni1A78
Encoding: 6776 6776 122
GlifName: uni1A_78
Width: 0
VWidth: 0
GlyphClass: 4
Flags: HMW
AnchorPoint: "TopRightAlignedMarks" -22 353 mark 0
LayerCount: 3
Fore
SplineSet
-27 553 m 0
 -14 553 -3 542 -3 529 c 2
 -3 398 l 2
 -3 378 -15 363 -23 359 c 0
 -29 355 -36 355 -43 355 c 0
 -50 355 -58 357 -65 363 c 0
 -85 379 -117 417 -117 417 c 1
 -117 417 -120 423 -116 428 c 0
 -112 433 -105 428 -105 428 c 1
 -48 385 l 1
 -38 382 -34 389 -35 398 c 2
 -36 507 l 1
 -45 511 -50 519 -50 529 c 0
 -50 542 -40 553 -27 553 c 0
EndSplineSet
Validated: 1
EndChar

StartChar: uni1A79
Encoding: 6777 6777 123
GlifName: uni1A_79
Width: 0
VWidth: 0
GlyphClass: 4
Flags: HMW
AnchorPoint: "TopRightAlignedMarks" -49 351 mark 0
LayerCount: 3
Fore
SplineSet
-58 560 m 1
 -54 560 l 2
 -42 560 -30 556 -22 549 c 0
 -14 542 -8 531 -6 520 c 0
 -1 492 1 461 -12 434 c 0
 -17 425 -26 417 -38 412 c 0
 -52 407 -62 410 -73 416 c 1
 -74 400 -65 376 -47 376 c 0
 -30 376 -31 383 -20 388 c 1
 -16 389 -10 392 -5 388 c 0
 1 382 -1 375 -5 368 c 1
 -17 355 -32 351 -49 351 c 0
 -73 352 -89 373 -94 397 c 0
 -98 416 -97 433 -97 433 c 1
 -97 433 -97 446 -89 450 c 0
 -81 454 -73 444 -73 444 c 1
 -73 444 -60 433 -48 438 c 0
 -38 443 -32 454 -31 465 c 0
 -29 481 -28 488 -33 514 c 0
 -36 528 -45 533 -54 533 c 0
 -62 532 -67 522 -69 515 c 0
 -71 507 -76 499 -85 501 c 1
 -93 503 -99 511 -97 520 c 1
 -97 520 -95 529 -89 538 c 0
 -83 547 -75 560 -58 560 c 1
EndSplineSet
Validated: 33
EndChar

StartChar: uni1A7A
Encoding: 6778 6778 124
GlifName: uni1A_7A_
Width: 0
VWidth: 0
GlyphClass: 4
Flags: HMW
AnchorPoint: "TopRightAlignedMarks" -179 352 mark 0
LayerCount: 3
Fore
SplineSet
-134 562 m 0
 -86 561 -47 529 -22 486 c 0
 -2 451 2 377 -6 327 c 1
 -8 327 l 1
 -14 403 -32 509 -113 529 c 0
 -135 534 -170 532 -196 513 c 1
 -124 499 -97 444 -102 408 c 0
 -106 381 -128 359 -154 354 c 0
 -183 348 -245 364 -245 404 c 0
 -245 420 -232 433 -216 433 c 0
 -200 433 -187 420 -187 404 c 0
 -187 396 -193 387 -201 383 c 1
 -177 377 -141 371 -134 410 c 1
 -129 458 -195 491 -245 499 c 1
 -230 534 -184 562 -134 562 c 0
-216 413 m 0
 -221 413 -225 409 -225 404 c 0
 -225 399 -221 396 -216 396 c 0
 -211 396 -207 399 -207 404 c 0
 -207 409 -211 413 -216 413 c 0
EndSplineSet
Validated: 33
EndChar

StartChar: uni1A7B
Encoding: 6779 6779 125
GlifName: uni1A_7B_
Width: 0
VWidth: 0
GlyphClass: 4
Flags: HMW
AnchorPoint: "TopRightAlignedMarks" -120 351 mark 0
LayerCount: 3
Fore
SplineSet
-115 388 m 0
 -115 379 -109 373 -101 373 c 0
 -93 373 -87 379 -87 388 c 0
 -87 397 -93 403 -101 403 c 0
 -109 403 -115 397 -115 388 c 0
-135 481 m 0
 -135 533 -113 563 -62 563 c 0
 -38 563 -12 546 -2 520 c 1
 -3 519 -5 519 -6 518 c 1
 -20 531 -32 544 -61 541 c 0
 -98 537 -98 501 -98 480 c 0
 -98 426 -98 470 -98 425 c 1
 -70 423 -59 393 -69 370 c 0
 -79 349 -106 349 -120 358 c 1
 -132 368 -135 379 -135 393 c 0
 -135 445 -135 444 -135 481 c 0
EndSplineSet
Validated: 33
EndChar

StartChar: uni1A7C
Encoding: 6780 6780 126
GlifName: uni1A_7C_
Width: 0
VWidth: 0
GlyphClass: 4
Flags: HMW
AnchorPoint: "TopRightAlignedMarks" -186 352 mark 0
LayerCount: 3
Fore
SplineSet
-4 614 m 1
 -3 612 l 1
 -20 606 -35 575 -34 556 c 2
 -32 468 l 1
 -32 468 -31 459 -39 457 c 0
 -47 455 -53 463 -53 463 c 1
 -66 491 -91 536 -144 537 c 0
 -162 537 -184 532 -199 519 c 1
 -171 518 -138 504 -121 487 c 0
 -99 465 -89 434 -95 404 c 0
 -102 371 -133 351 -166 352 c 0
 -201 352 -253 387 -253 433 c 0
 -253 449 -240 462 -224 462 c 0
 -208 462 -195 449 -195 433 c 0
 -195 420 -205 408 -217 405 c 1
 -203 392 -183 383 -166 383 c 0
 -148 383 -129 395 -126 410 c 0
 -122 430 -128 450 -143 465 c 0
 -158 480 -183 492 -217 493 c 2
 -237 494 l 1
 -233 520 -223 539 -195 556 c 1
 -178 564 -159 568 -141 568 c 0
 -107 567 -77 544 -58 517 c 1
 -58 556 l 2
 -58 584 -34 611 -4 614 c 1
-224 442 m 0
 -229 442 -233 438 -233 433 c 0
 -233 428 -229 425 -224 425 c 0
 -219 425 -215 428 -215 433 c 0
 -215 438 -219 442 -224 442 c 0
EndSplineSet
Validated: 33
EndChar

StartChar: uni1A7F
Encoding: 6783 6783 127
GlifName: uni1A_7F_
Width: 132
VWidth: 0
GlyphClass: 2
Flags: W
HStem: -116 62<36.4041 95.5959>
VStem: 35 62<-114.596 -55.4041>
LayerCount: 3
Fore
SplineSet
97 -85 m 0
 97 -102 83 -116 66 -116 c 0
 49 -116 35 -102 35 -85 c 0
 35 -68 49 -54 66 -54 c 0
 83 -54 97 -68 97 -85 c 0
EndSplineSet
Validated: 1
EndChar

StartChar: uni1A80
Encoding: 6784 6784 128
GlifName: uni1A_80
Width: 393
VWidth: 0
GlyphClass: 2
Flags: W
HStem: -10 38<133.602 259.476> 271 39<132.354 262.528>
VStem: 35 40<84.361 215.492> 319 39<84.361 213.71>
LayerCount: 3
Fore
SplineSet
196 310 m 4
 285 310 358 238 358 150 c 4
 358 62 285 -10 196 -10 c 4
 107 -10 35 62 35 150 c 4
 35 238 107 310 196 310 c 4
197 271 m 4
 130 271 75 217 75 150 c 4
 75 83 130 28 197 28 c 4
 264 28 319 83 319 150 c 4
 319 217 264 271 197 271 c 4
EndSplineSet
Validated: 1
EndChar

StartChar: uni1A81
Encoding: 6785 6785 129
GlifName: uni1A_81
Width: 355
VWidth: 0
GlyphClass: 2
Flags: W
HStem: -10 34<95.4922 218.099> 203 26<79.5689 109.482> 275 35<127.562 221.787>
VStem: 54 25<229.541 259.546> 110 26<229.403 259.833> 281 40<80.8729 219.101>
LayerCount: 3
Fore
SplineSet
164 -10 m 0
 114 -10 78 8 39 56 c 1
 39 62 l 1
 88 31 117 23 165 24 c 0
 229 25 281 83 281 150 c 0
 281 217 229 275 165 275 c 0
 153 275 139 273 127 270 c 1
 133 263 136 255 136 245 c 0
 136 222 118 203 95 203 c 0
 72 203 54 222 54 245 c 1
 55 253 55 265 73 281 c 0
 99 303 131 310 164 310 c 0
 249 310 321 238 321 150 c 0
 321 62 251 -10 164 -10 c 0
95 229 m 0
 104 229 110 236 110 245 c 0
 110 254 104 260 95 260 c 0
 86 260 79 254 79 245 c 0
 79 236 86 229 95 229 c 0
EndSplineSet
Validated: 33
EndChar

StartChar: uni1A82
Encoding: 6786 6786 130
GlifName: uni1A_82
Width: 337
VWidth: 0
GlyphClass: 2
Flags: W
HStem: -321 4<96 100.57> 203 26<61.5177 91.4311> 275 35<109.404 203.218>
VStem: 35 26<229.403 259.666> 92 25<229.541 259.523> 262 40<-251.518 217.34>
LayerCount: 3
Fore
SplineSet
146 310 m 0
 231 310 302 240 302 152 c 1
 302 80 l 1
 302 34 303 -126 302 -177 c 0
 301 -269 234 -360 96 -321 c 1
 96 -317 l 1
 194 -319 260 -280 262 -171 c 1
 262 80 l 1
 262 150 l 1
 262 217 210 275 146 275 c 0
 134 275 121 273 109 270 c 1
 115 263 117 255 117 245 c 0
 117 222 99 203 76 203 c 0
 53 203 35 222 35 245 c 1
 36 253 36 265 54 281 c 0
 80 303 113 310 146 310 c 0
76 260 m 0
 67 260 61 254 61 245 c 0
 61 236 67 229 76 229 c 0
 85 229 92 236 92 245 c 0
 92 254 85 260 76 260 c 0
EndSplineSet
Validated: 33
EndChar

StartChar: uni1A83
Encoding: 6787 6787 131
GlifName: uni1A_83
Width: 337
VWidth: 0
GlyphClass: 2
Flags: W
HStem: -322 4<282.977 289> -10 34<90.7057 200.62> 203 26<61.4343 91.5274> 275 35<109.404 203.218>
VStem: 35 26<229.434 259.687> 48 43<-163.788 0> 92 25<229.554 259.472> 262 40<80.5311 217>
LayerCount: 3
Fore
SplineSet
146 310 m 0xfb
 231 310 302 238 302 150 c 0
 302 62 233 -10 146 -10 c 0
 126 -10 108 -7 91 0 c 1
 89 -33 85 -87 96 -139 c 0
 128 -288 290 -318 290 -318 c 1
 289 -322 l 1
 289 -322 117 -320 66 -174 c 0
 52 -133 44 -59 48 45 c 1xf7
 81 28 109 24 146 24 c 0
 210 25 262 82 262 149 c 0
 262 216 210 275 146 275 c 0
 134 275 121 273 109 270 c 1
 115 263 117 254 117 244 c 0
 117 221 99 203 76 203 c 0
 53 203 35 221 35 244 c 1
 36 252 36 265 54 281 c 0
 80 303 113 310 146 310 c 0xfb
76 260 m 0
 67 260 61 253 61 244 c 0xfb
 61 235 67 229 76 229 c 0
 85 229 92 235 92 244 c 0
 92 253 85 260 76 260 c 0
EndSplineSet
Validated: 33
EndChar

StartChar: uni1A84
Encoding: 6788 6788 132
GlifName: uni1A_84
Width: 337
VWidth: 0
GlyphClass: 2
Flags: W
HStem: -322 4<49 54.9805> -10 34<135.024 246.295> 203 26<246.434 275.566> 275 35<134.213 228.438>
VStem: 35 40<80.5311 217> 220 26<229.434 259.811> 246 43<-163.788 0> 276 26<229.434 259.687>
LayerCount: 3
Fore
SplineSet
192 310 m 0xfa
 225 310 257 303 283 281 c 0
 301 265 301 252 302 244 c 1
 302 221 284 203 261 203 c 0
 238 203 220 221 220 244 c 0xfd
 220 254 223 263 229 270 c 1
 217 273 203 275 191 275 c 0
 127 275 75 216 75 149 c 0
 75 82 127 25 191 24 c 0
 228 24 256 28 289 45 c 1
 293 -59 285 -133 271 -174 c 0
 220 -320 49 -322 49 -322 c 1
 48 -318 l 1
 48 -318 209 -288 241 -139 c 0
 252 -87 248 -33 246 0 c 1
 229 -7 212 -10 192 -10 c 0
 105 -10 35 62 35 150 c 0
 35 238 107 310 192 310 c 0xfa
261 260 m 0
 252 260 246 253 246 244 c 0
 246 235 252 229 261 229 c 0
 270 229 276 235 276 244 c 0
 276 253 270 260 261 260 c 0
EndSplineSet
Validated: 33
EndChar

StartChar: uni1A85
Encoding: 6789 6789 133
GlifName: uni1A_85
Width: 360
VWidth: 0
GlyphClass: 2
Flags: W
HStem: -320 4<122 126.416> 182 26<61.4994 91.4823>
VStem: 35 26<208.819 238.441> 92 26<208.403 238.498> 285 40<-253.333 249.191>
LayerCount: 3
Fore
SplineSet
195 298 m 0
 221 320 259 309 285 289 c 1
 309 267 324 228 325 158 c 0
 326 47 325 -66 325 -177 c 1
 324 -269 258 -359 120 -320 c 1
 122 -316 l 1
 220 -318 283 -280 285 -171 c 1
 285 -70 285 44 285 155 c 0
 286 190 280 258 241 268 c 0
 220 273 216 261 212 256 c 0
 208 251 205 244 198 238 c 0
 191 232 180 226 168 226 c 0
 156 226 146 233 140 239 c 0
 134 245 131 251 128 256 c 0
 125 261 121 265 115 268 c 0
 103 273 91 271 81 265 c 1
 102 263 118 245 118 224 c 0
 118 201 100 182 77 182 c 0
 54 182 35 199 35 222 c 0
 35 224 l 2
 35 227 l 1
 35 227 33 246 41 267 c 0
 47 282 62 312 113 310 c 0
 125 310 137 303 145 297 c 0
 153 291 157 284 161 278 c 0
 170 263 169 265 179 279 c 0
 183 285 187 292 195 298 c 0
77 239 m 0
 68 239 61 233 61 224 c 0
 61 215 68 208 77 208 c 0
 86 208 92 215 92 224 c 0
 92 233 86 239 77 239 c 0
EndSplineSet
Validated: 33
EndChar

StartChar: uni1A86
Encoding: 6790 6790 134
GlifName: uni1A_86
Width: 337
VWidth: 0
GlyphClass: 2
Flags: W
HStem: -10 40<77.8899 130.51> 215 26<246.434 276.527> 272 37<246.004 276.426>
VStem: 36 40<31.5339 557.074> 136 40<40.2827 258.907> 220 26<241.434 271.752> 277 25<241.554 271.559>
LayerCount: 3
Fore
SplineSet
165 630 m 0
 229 630 268 605 297 566 c 1
 293 563 l 1
 293 563 246 604 163 595 c 0
 131 592 112 577 97 559 c 0
 82 541 75 517 75 499 c 2
 76 58 l 2
 76 53 79 46 84 40 c 0
 89 34 95 30 106 30 c 0
 116 30 123 34 128 40 c 0
 133 46 136 54 136 60 c 2
 135 208 l 2
 135 230 141 254 155 273 c 0
 169 292 191 306 218 309 c 0
 248 313 271 305 284 294 c 0
 290 289 293 283 296 278 c 0
 300 272 302 264 302 256 c 0
 302 233 284 215 261 215 c 0
 238 215 220 233 220 256 c 0
 220 263 222 270 225 276 c 1
 211 272 197 264 187 249 c 0
 180 238 175 223 175 208 c 2
 176 60 l 2
 176 43 170 26 158 13 c 0
 146 0 128 -10 106 -10 c 0
 84 -10 66 0 54 13 c 0
 42 26 36 42 36 58 c 2
 35 499 l 2
 35 527 45 558 66 584 c 0
 87 610 122 630 165 630 c 0
261 272 m 0
 252 272 246 265 246 256 c 0
 246 247 252 241 261 241 c 0
 270 241 277 247 277 256 c 0
 277 265 270 272 261 272 c 0
518 -331 m 1024
EndSplineSet
Validated: 33
EndChar

StartChar: uni1A87
Encoding: 6791 6791 135
GlifName: uni1A_87
Width: 525
VWidth: 0
GlyphClass: 2
Flags: W
HStem: -321 5<484.433 489> 182 26<63.0684 92.3196>
VStem: 93 26<208.499 238.414> 287 40<-253.333 246.563>
LayerCount: 3
Fore
SplineSet
196 298 m 0
 222 320 260 309 286 289 c 1
 310 267 325 228 326 158 c 0
 327 49 327 -59 327 -171 c 1
 329 -280 391 -318 489 -316 c 1
 490 -321 l 1
 352 -360 288 -269 287 -177 c 1
 287 -70 285 45 286 157 c 0
 287 192 280 258 241 268 c 0
 220 273 217 261 213 256 c 0
 209 251 205 244 198 238 c 0
 191 232 181 226 169 226 c 0
 157 226 147 233 141 239 c 0
 135 245 132 251 129 256 c 0
 126 261 122 265 116 268 c 0
 104 273 91 271 81 265 c 1
 102 263 119 245 119 224 c 0
 119 201 100 182 77 182 c 0
 36 181 26 229 42 264 c 0
 48 279 60 312 111 310 c 0
 123 310 138 303 146 297 c 0
 154 291 158 284 162 278 c 0
 171 263 170 265 180 279 c 0
 184 285 188 292 196 298 c 0
77 239 m 0
 68 239 62 233 62 224 c 0
 62 215 68 208 77 208 c 0
 86 208 93 215 93 224 c 0
 93 233 86 239 77 239 c 0
EndSplineSet
Validated: 33
EndChar

StartChar: uni1A89
Encoding: 6793 6793 136
GlifName: uni1A_89
Width: 358
VWidth: 0
GlyphClass: 2
Flags: W
HStem: -10 38<246.004 276.426> 59 26<246.518 276.431> 269 40<81.0702 130.51>
VStem: 35 40<-255.403 259.717> 135 40<41.9219 259.717> 220 26<28.17 58.5969> 277 25<28.4179 58.4591>
LayerCount: 3
Fore
SplineSet
178 -331 m 0
 135 -331 87 -311 66 -285 c 0
 45 -259 35 -228 35 -200 c 2
 36 241 l 2
 36 257 42 273 54 286 c 0
 66 299 84 309 106 309 c 0
 128 309 146 299 158 286 c 0
 170 273 176 256 176 239 c 2
 175 91 l 2
 175 76 180 62 187 51 c 0
 197 36 211 28 225 24 c 1
 222 30 220 36 220 43 c 0
 220 66 238 85 261 85 c 0
 284 85 302 66 302 43 c 0
 302 35 300 27 296 21 c 0
 293 16 290 11 284 6 c 0
 271 -5 248 -14 218 -10 c 0
 191 -7 169 8 155 27 c 0
 141 46 135 69 135 91 c 2
 136 239 l 2
 136 245 133 254 128 260 c 0
 123 266 116 269 106 269 c 0
 95 269 89 266 84 260 c 0
 79 254 76 246 76 241 c 2
 75 -200 l 2
 75 -218 82 -241 97 -259 c 0
 112 -277 147 -295 179 -298 c 0
 262 -307 319 -263 319 -263 c 1
 323 -266 l 1
 294 -305 242 -331 178 -331 c 0
261 28 m 0
 270 28 277 34 277 43 c 0
 277 52 270 59 261 59 c 0
 252 59 246 52 246 43 c 0
 246 34 252 28 261 28 c 0
EndSplineSet
Validated: 33
EndChar

StartChar: uni1A88
Encoding: 6792 6792 137
GlifName: uni1A_88
Width: 402
VWidth: 0
GlyphClass: 2
Flags: W
HStem: 0 26<110.376 139.566> 57 26<110.346 139.482> 262 38<130.344 271.656>
VStem: 35 35<71.6365 201.855> 140 26<26.4343 56.5969> 333 34<70.0383 197.484>
LayerCount: 3
Fore
SplineSet
367 135 m 0
 367 85 334 20 272 -10 c 1
 270 -7 l 1
 317 37 335 83 333 136 c 0
 331 200 287 263 201 262 c 0
 115 261 72 203 70 143 c 0
 69 112 81 76 94 62 c 1
 99 75 115 83 125 83 c 0
 148 83 166 64 166 41 c 0
 166 18 148 0 125 0 c 0
 115 0 103 4 88 16 c 0
 54 43 35 91 35 139 c 0
 35 220 95 300 201 300 c 0
 307 300 367 222 367 135 c 0
140 41 m 0
 140 50 134 57 125 57 c 0
 116 57 110 50 110 41 c 0
 110 32 116 26 125 26 c 0
 134 26 140 32 140 41 c 0
EndSplineSet
Validated: 33
EndChar

StartChar: uni1A90
Encoding: 6800 6800 138
GlifName: uni1A_90
Width: 393
VWidth: 0
GlyphClass: 2
Flags: W
HStem: -10 38<133.602 259.476> 271 39<132.354 262.528>
VStem: 35 40<84.361 215.492> 319 39<84.361 213.71>
LayerCount: 3
Fore
SplineSet
196 310 m 0
 285 310 358 238 358 150 c 0
 358 62 285 -10 196 -10 c 0
 107 -10 35 62 35 150 c 0
 35 238 107 310 196 310 c 0
197 271 m 0
 130 271 75 217 75 150 c 0
 75 83 130 28 197 28 c 0
 264 28 319 83 319 150 c 0
 319 217 264 271 197 271 c 0
EndSplineSet
Validated: 1
EndChar

StartChar: uni1A91
Encoding: 6801 6801 139
GlifName: uni1A_91
Width: 421
VWidth: 0
GlyphClass: 2
Flags: W
HStem: 0 26<110.376 139.566> 57 26<110.346 139.482> 263 38<130.344 271.439>
VStem: 35 35<72.1599 202.855> 140 26<26.4343 56.5969> 383 3<-81 -78.9809>
LayerCount: 3
Fore
SplineSet
201 301 m 0
 307 301 368 223 367 136 c 0
 366 88 334 44 301 21 c 1
 351 10 388 -38 386 -81 c 1
 383 -81 l 1
 360 -32 334 -10 272 -0 c 1
 265 0 l 1
 312 44 336 90 333 137 c 0
 328 201 287 264 201 263 c 0
 115 262 72 204 70 144 c 0
 69 113 81 76 94 62 c 1
 99 75 115 83 125 83 c 0
 148 83 166 64 166 41 c 0
 166 18 148 0 125 0 c 0
 115 0 103 4 88 16 c 0
 54 43 35 92 35 140 c 0
 35 221 95 301 201 301 c 0
125 57 m 0
 116 57 110 50 110 41 c 0
 110 32 116 26 125 26 c 0
 134 26 140 32 140 41 c 0
 140 50 134 57 125 57 c 0
EndSplineSet
Validated: 33
EndChar

StartChar: uni1A92
Encoding: 6802 6802 140
GlifName: uni1A_92
Width: 369
VWidth: 0
GlyphClass: 2
Flags: W
HStem: 0 40<99.0157 162.357> 71 25<132.554 162.39>
VStem: 35 40<43.4527 547.187> 106 26<40.1404 70.5274> 163 25<40.5871 70.3896>
LayerCount: 3
Fore
SplineSet
181 629 m 0
 254 631 318 578 335 518 c 1
 330 518 l 2
 333 521 275 597 185 589 c 0
 118 583 75 542 75 502 c 2
 75 102 l 2
 75 72 80 41 113 36 c 1
 109 42 106 50 106 55 c 0
 106 78 124 96 147 96 c 0
 170 96 188 78 188 55 c 0
 188 19 156 0 115 0 c 1
 54 5 37 43 35 102 c 1
 35 502 l 2
 35 559 86 627 181 629 c 0
147 71 m 0
 138 71 132 64 132 55 c 0
 132 46 138 40 147 40 c 0
 156 40 163 46 163 55 c 0
 163 64 156 71 147 71 c 0
EndSplineSet
Validated: 33
EndChar

StartChar: uni1A93
Encoding: 6803 6803 141
GlifName: uni1A_93
Width: 661
VWidth: 0
GlyphClass: 2
Flags: W
HStem: -11 36<109.521 212.956 351.148 450.326> 74 26<64.4343 94.5969> 269 40<88.3125 212.267> 590 38<242.467 428.517>
VStem: 38 26<43.3916 73.5657> 95 26<43.3687 73.4823> 270 40<78.8965 211.406> 479 40<51.375 374.865>
LayerCount: 3
Fore
SplineSet
328 628 m 0
 372 628 410 619 453 599 c 0
 481 586 498 573 535 570 c 0
 584 566 624 593 624 593 c 1
 626 590 l 1
 626 590 579 546 537 545 c 0
 503 545 477 555 447 567 c 0
 414 580 383 589 334 590 c 0
 255 592 190 552 152 497 c 1
 198 521 248 530 297 524 c 0
 429 507 517 410 518 311 c 1
 519 140 l 1
 525 66 493 -10 402 -11 c 0
 355 -12 307 9 290 69 c 1
 263 21 214 -11 161 -11 c 0
 115 -11 38 9 38 59 c 0
 38 82 56 100 79 100 c 0
 102 100 121 82 121 59 c 0
 121 49 118 38 109 31 c 1
 120 28 139 24 160 25 c 0
 207 30 269 63 270 149 c 1
 269 214 213 268 157 269 c 0
 96 270 72 234 72 234 c 1
 68 229 62 225 55 225 c 0
 44 225 35 234 35 245 c 0
 35 249 35 251 38 255 c 0
 43 263 l 0
 48 269 82 308 153 309 c 0
 154 309 157 309 158 309 c 0
 239 308 308 237 310 150 c 0
 311 77 340 27 401 25 c 0
 449 24 485 58 479 140 c 1
 478 310 l 2
 477 386 407 472 292 484 c 0
 216 492 154 478 82 436 c 1
 80 439 l 1
 118 545 200 628 328 628 c 0
79 74 m 0
 70 74 64 68 64 59 c 0
 64 50 70 43 79 43 c 0
 88 43 95 50 95 59 c 0
 95 68 88 74 79 74 c 0
EndSplineSet
Validated: 33
EndChar

StartChar: uni1A94
Encoding: 6804 6804 142
GlifName: uni1A_94
Width: 468
VWidth: 0
GlyphClass: 2
Flags: W
HStem: -332 36<154.593 335.426> 167 26<253.434 283.527> 224 58<256.66 349.905> 271 39<81.307 132.717>
VStem: 35 40<-233.589 266.759> 145 40<67.8611 259.667> 227 26<193.434 223.556> 284 25<193.554 223.485> 379 40<41.7308 92.0616 181.189 232.459>
LayerCount: 3
Fore
SplineSet
35 222 m 2xdf80
 36 264 58 311 112 310 c 0xdf80
 130 309 149 302 163 286 c 0
 177 270 185 247 185 218 c 2
 185 122 l 2
 185 88 200 68 221 53 c 0
 242 38 269 31 287 30 c 0
 305 29 332 31 351 38 c 0
 361 42 369 47 373 52 c 0
 377 57 379 61 379 68 c 0
 379 77 377 80 373 84 c 0
 369 88 363 91 355 94 c 0
 347 97 338 100 330 103 c 0
 326 105 322 107 317 111 c 0
 312 115 307 123 307 132 c 0
 307 141 313 150 318 154 c 0
 323 158 328 159 332 161 c 0
 341 164 349 167 357 170 c 0
 365 173 370 177 374 181 c 0
 378 185 380 191 379 203 c 1
 373 238 329 252 292 242 c 1
 302 234 309 222 309 208 c 0
 309 185 291 167 268 167 c 0
 245 167 227 185 227 208 c 0
 227 250 276 282 321 282 c 0xef80
 343 282 366 275 384 262 c 0
 402 249 418 230 419 205 c 0
 420 185 415 168 405 156 c 1
 395 146 381 134 366 131 c 1
 381 129 392 121 402 111 c 0
 412 101 419 86 419 68 c 0
 419 51 412 35 402 24 c 0
 392 13 379 6 365 1 c 0
 338 -9 307 -12 283 -10 c 0
 258 -8 227 1 198 21 c 0
 169 41 145 75 145 122 c 2
 145 218 l 2
 145 240 139 253 133 260 c 0
 127 267 119 271 110 271 c 0
 96 272 75 260 75 222 c 2
 75 -180 l 2
 75 -255 166 -294 235 -296 c 0
 371 -300 430 -251 430 -251 c 1
 433 -252 l 1
 433 -252 358 -335 235 -332 c 0
 139 -330 35 -287 35 -180 c 2
 35 222 l 2xdf80
268 224 m 0xef80
 259 224 253 217 253 208 c 0
 253 199 259 193 268 193 c 0
 277 193 284 199 284 208 c 0
 284 217 277 224 268 224 c 0xef80
EndSplineSet
Validated: 33
EndChar

StartChar: uni1A95
Encoding: 6805 6805 143
GlifName: uni1A_95
Width: 468
VWidth: 0
GlyphClass: 2
Flags: W
HStem: -332 36<158.906 335.426> 167 26<253.434 283.527> 224 58<256.66 349.905> 271 39<81.307 132.717>
VStem: 35 40<-231.774 266.759> 92 41<317.871 361.516> 145 40<67.8611 259.667> 227 26<193.434 223.556> 284 25<193.554 223.485> 379 40<41.7308 92.0616 181.189 232.459>
LayerCount: 3
Fore
SplineSet
35 222 m 2xdfc0
 36 264 58 311 112 310 c 0xdfc0
 130 309 149 302 163 286 c 0
 177 270 185 247 185 218 c 2
 185 122 l 2
 185 88 200 68 221 53 c 0
 242 38 269 31 287 30 c 0
 305 29 332 31 351 38 c 0
 361 42 369 47 373 52 c 0
 377 57 379 61 379 68 c 0
 379 77 377 80 373 84 c 0
 369 88 363 91 355 94 c 0
 347 97 338 100 330 103 c 0
 326 105 322 107 317 111 c 0
 312 115 307 123 307 132 c 0
 307 141 313 150 318 154 c 0
 323 158 328 159 332 161 c 0
 341 164 349 167 357 170 c 0
 365 173 370 177 374 181 c 0
 378 185 380 191 379 203 c 1
 373 238 329 252 292 242 c 1
 302 234 309 222 309 208 c 0
 309 185 291 167 268 167 c 0
 245 167 227 185 227 208 c 0
 227 250 276 282 321 282 c 0xefc0
 343 282 366 275 384 262 c 0
 402 249 418 230 419 205 c 0
 420 185 415 168 405 156 c 1
 395 146 381 134 366 131 c 1
 381 129 392 121 402 111 c 0
 412 101 419 86 419 68 c 0
 419 51 412 35 402 24 c 0
 392 13 379 6 365 1 c 0
 338 -9 307 -12 283 -10 c 0
 258 -8 227 1 198 21 c 0
 169 41 145 75 145 122 c 2
 145 218 l 2
 145 240 139 253 133 260 c 0
 127 267 119 271 110 271 c 0
 96 272 75 260 75 222 c 2
 75 -178 l 2
 75 -253 166 -294 235 -296 c 0
 371 -300 429 -251 429 -251 c 1
 433 -252 l 1
 433 -252 358 -335 235 -332 c 0
 139 -330 35 -285 35 -178 c 2
 35 222 l 2xdfc0
268 224 m 0xefc0
 259 224 253 217 253 208 c 0
 253 199 259 193 268 193 c 0
 277 193 284 199 284 208 c 0
 284 217 277 224 268 224 c 0xefc0
360 524 m 1
 365 520 l 1
 343 457 309 429 249 407 c 0
 204 390 149 379 133 332 c 1
 133 332 127 313 105 319 c 0
 87 324 92 344 92 344 c 1
 100 401 177 424 240 438 c 0
 302 452 344 476 360 524 c 1
EndSplineSet
Validated: 33
EndChar

StartChar: uni1A96
Encoding: 6806 6806 144
GlifName: uni1A_96
Width: 476
VWidth: 0
GlyphClass: 2
Flags: W
HStem: -10 41<89.4724 180.996> 22 50<181.254 235.324> 162 26<192.434 222.534> 270 40<87.0382 192.25> 593 35<161.266 301.546>
VStem: 35 40<41.4855 105.337 190.107 257.526> 166 26<188.434 217.586> 223 26<188.578 217.145> 362 39<55.6406 447.25>
LayerCount: 3
Fore
SplineSet
223 628 m 0x7f80
 224 628 225 628 227 628 c 0
 288 627 313 599 356 592 c 0
 382 588 410 590 440 604 c 1
 442 601 l 1
 425 581 379 565 352 567 c 0
 290 571 283 593 225 593 c 0
 165 593 133 559 113 528 c 1
 149 540 179 551 238 544 c 0
 323 534 401 477 402 385 c 1
 401 108 l 1
 397 27 349 -8 287 -12 c 0
 232 -16 219 22 210 22 c 0x7f80
 205 22 192 -8 129 -10 c 0
 105 -11 84 -2 66 11 c 0
 48 24 35 45 35 69 c 0
 35 108 61 136 79 143 c 0
 82 144 87 146 87 148 c 0
 87 151 83 151 79 153 c 0
 60 160 35 189 35 222 c 0
 36 273 82 311 137 310 c 0
 178 310 211 289 234 257 c 1
 244 241 250 224 249 203 c 0
 248 184 230 162 207 162 c 0
 184 162 166 180 166 203 c 0
 166 223 181 240 200 244 c 1
 185 260 164 269 139 270 c 0
 100 271 75 248 75 221 c 0
 75 205 84 197 98 188 c 0
 105 183 112 179 119 174 c 0
 126 169 137 164 139 148 c 0
 140 139 135 130 131 126 c 0
 127 122 123 120 119 118 c 0
 112 114 104 112 98 108 c 0
 85 100 75 93 75 68 c 0
 75 59 79 50 89 43 c 0
 99 36 114 31 129 31 c 0xbf80
 186 32 186 71 213 72 c 0
 238 73 241 23 288 28 c 0
 327 32 362 52 362 122 c 2
 362 385 l 2
 361 452 315 497 237 508 c 0
 158 519 108 503 72 482 c 1
 70 484 l 1
 80 558 130 627 223 628 c 0x7f80
207 218 m 0
 198 218 192 212 192 203 c 0
 192 194 198 188 207 188 c 0
 216 188 223 194 223 203 c 0
 223 211 216 218 207 218 c 0
EndSplineSet
Validated: 33
EndChar

StartChar: uni1A97
Encoding: 6807 6807 145
GlifName: uni1A_97
Width: 475
VWidth: 0
GlyphClass: 2
Flags: W
HStem: -11 41<89.4724 182.25 241.344 337.231> 20 50<180.996 239.508> 160 26<192.518 222.438> 268 40<85.9536 192.594> 279 31<349.431 392.583>
VStem: 35 40<40.6578 104.541 188.115 255.813> 166 26<186.403 216.508> 223 26<186.519 216.006> 374 40<74.3671 221.88>
LayerCount: 3
Fore
SplineSet
35 220 m 0xa780
 35 267 78 308 140 308 c 0
 190 308 219 280 234 255 c 0
 244 239 250 223 249 202 c 0
 248 183 230 160 207 160 c 0
 184 160 166 179 166 202 c 0
 166 222 181 238 200 242 c 1
 185 258 164 267 139 268 c 0
 100 269 75 247 75 220 c 0
 75 204 84 195 98 186 c 0
 105 181 112 177 119 172 c 0
 126 167 137 162 139 146 c 0
 140 137 135 128 131 124 c 0
 127 120 123 119 119 117 c 0
 112 113 104 111 98 107 c 0
 85 99 75 92 75 67 c 0
 75 58 79 49 89 42 c 0
 99 35 114 30 129 30 c 0xb780
 186 31 186 69 213 70 c 0
 238 71 241 26 288 27 c 0
 342 28 374 98 374 137 c 0
 373 205 355 241 299 269 c 1
 309 302 336 310 354 310 c 0
 374 310 383 296 398 293 c 0
 410 290 420 291 440 303 c 1
 431 283 410 271 397 272 c 0
 385 273 374 279 362 279 c 0
 357 279 354 278 349 275 c 1
 392 250 413 196 414 137 c 0
 415 67 366 -13 287 -13 c 0
 232 -13 219 20 210 20 c 0x6f80
 205 20 192 -9 129 -11 c 0
 105 -12 84 -3 66 10 c 0
 48 23 35 43 35 67 c 0
 35 106 61 134 79 141 c 0
 82 142 87 144 87 146 c 0
 87 149 83 149 79 151 c 0
 60 158 35 187 35 220 c 0xa780
207 217 m 0
 198 217 192 211 192 202 c 0
 192 193 198 186 207 186 c 0
 216 186 223 193 223 202 c 0
 223 210 216 217 207 217 c 0
EndSplineSet
Validated: 33
EndChar

StartChar: uni1A98
Encoding: 6808 6808 146
GlifName: uni1A_98
Width: 491
VWidth: 0
GlyphClass: 2
Flags: W
HStem: 35 41<214.988 285> 105 41<326 358.216> 146 38<127.392 256.956> 183 26<61.4031 91.5657> 269 41<206.875 276.246> 593 35<175.988 316.546>
VStem: 35 26<209.76 238.085> 92 26<209.434 238.498> 285 41<-23.6639 15 76 108.432 153 261.547> 377 39<164.169 447.25>
LayerCount: 3
Fore
SplineSet
85 484 m 1xafc0
 95 559 145 629 242 628 c 0
 303 627 328 599 371 592 c 0
 397 588 425 590 455 604 c 1
 457 601 l 1
 440 581 394 565 367 567 c 0
 305 571 298 593 240 593 c 0
 180 593 148 559 128 528 c 1
 164 540 194 551 253 544 c 0
 338 534 416 477 417 385 c 1
 416 224 l 1
 412 148 380 110 326 105 c 1xcfc0
 326 90 326 76 326 61 c 1
 350 49 368 38 381 16 c 0
 417 -44 351 -92 304 -50 c 1
 288 -33 285 1 285 25 c 1
 285 14 l 1
 285 35 l 1
 261 44 235 48 214 48 c 0
 145 47 107 30 49 -10 c 1
 47 -8 l 1
 34 115 95 186 203 184 c 0xafc0
 239 183 264 165 285 153 c 1
 286 219 l 2
 286 240 274 263 250 269 c 0
 229 274 216 262 212 257 c 0
 203 244 191 225 168 226 c 0
 136 227 136 259 115 268 c 0
 103 273 91 271 81 265 c 1
 102 263 118 245 118 224 c 0
 118 201 100 183 77 183 c 0x9fc0
 54 183 35 201 35 224 c 0
 35 224 33 244 41 265 c 0
 47 280 63 310 114 308 c 0
 138 307 152 292 161 278 c 0
 170 263 169 265 179 279 c 0
 195 300 216 311 243 310 c 0
 296 308 325 262 325 222 c 2
 325 146 l 1
 356 150 377 177 377 238 c 2
 377 385 l 2
 376 452 330 497 252 508 c 0
 173 519 123 503 87 482 c 1
 85 484 l 1xafc0
77 239 m 0
 68 239 61 233 61 224 c 0
 61 215 68 209 77 209 c 0x9fc0
 86 209 92 215 92 224 c 0
 92 233 86 239 77 239 c 0
71 40 m 1
 122 80 202 100 285 76 c 1
 285 88 285 99 285 111 c 1
 260 123 238 146 197 146 c 0xafc0
 126 146 89 110 71 40 c 1
326 15 m 1
 326 10 l 1
 326 5 l 1
 326 -12 332 -32 347 -24 c 0
 360 -17 346 1 326 15 c 1
EndSplineSet
Validated: 37
EndChar

StartChar: uni1A99
Encoding: 6809 6809 147
GlifName: uni1A_99
Width: 593
VWidth: 0
GlyphClass: 2
Flags: W
HStem: -26 40<335.831 463.396> -19 26<138.898 167.24> 37 26<138.423 167.566> 254 40<126.86 253.452> 272 3<507.442 510.001>
VStem: 35 40<64.1409 200.861> 168 26<7.49034 36.5657> 269 57<31.4724 237.834>
LayerCount: 3
Fore
SplineSet
193 294 m 0x77
 252 295 317 254 326 183 c 0
 329 155 321 134 315 120 c 0
 309 106 305 98 309 78 c 0
 313 56 322 41 337 31 c 0
 352 21 375 14 404 14 c 0
 456 14 522 65 518 129 c 0
 515 170 501 209 468 232 c 0
 446 247 425 254 427 270 c 0
 432 310 510 275 510 275 c 1
 510 275 511 274 510 272 c 1
 482 279 477 274 491 265 c 0
 535 237 558 183 558 130 c 0
 559 40 479 -26 403 -26 c 0xaf
 368 -26 339 -18 315 -2 c 0
 291 14 275 40 269 71 c 0
 264 100 272 121 278 136 c 0
 284 151 289 159 287 178 c 0
 281 227 235 254 194 254 c 0
 154 254 126 239 106 216 c 0
 86 193 74 163 75 134 c 0
 76 99 81 71 116 40 c 1
 123 54 137 63 153 63 c 0
 176 63 194 45 194 22 c 0
 194 -1 176 -18 153 -19 c 0
 124 -20 105 -2 89 11 c 0
 61 33 35 74 35 134 c 0
 35 172 48 211 75 242 c 0
 102 273 142 294 193 294 c 0x77
153 37 m 0
 144 37 138 31 138 22 c 0
 138 13 144 7 153 7 c 0x67
 162 7 168 13 168 22 c 0
 168 31 162 37 153 37 c 0
EndSplineSet
Validated: 33
EndChar

StartChar: uni1A2C_uni1A2C.lig
Encoding: 57456 57456 152
GlifName: uni1A_2C__uni1A_2C_.lig
Width: 547
VWidth: 0
GlyphClass: 3
Flags: MW
AnchorPoint: "Bottom_Sara_U" 376 -46 basechar 0
AnchorPoint: "Bottom_Sara_UU" 356 -46 basechar 0
AnchorPoint: "BottomSubjoinedConsonant" 275 -45 basechar 0
AnchorPoint: "BottomWithRightVerticalStem" 486 -45 basechar 0
AnchorPoint: "TopCenteredOnCenter" 275 352 basechar 0
AnchorPoint: "TopPositioningForSara_I" 333 352 basechar 0
AnchorPoint: "TopSara_II" 319 352 basechar 0
AnchorPoint: "TopRightAlignedMarks" 471 352 basechar 0
AnchorPoint: "TopPositioningForMaiKang" 355 352 basechar 0
AnchorPoint: "TopPositioningForMaiEekMaiKoo" 355 352 basechar 0
LayerCount: 3
Fore
SplineSet
387 305 m 0
 411 305 443 291 443 291 c 1
 443 291 444 291 443 289 c 1
 415 296 409 288 424 281 c 0
 475 255 499 193 499 140 c 0
 499 73 467 35 434 12 c 0
 415 -2 388 -7 369 -8 c 0
 318 -9 293 4 267 24 c 1
 242 -2 208 1 176 -0 c 1
 78 0 l 1
 78 -198 l 2
 78 -277 204 -297 278 -297 c 0
 447 -297 512 -249 512 -249 c 1
 513 -251 l 1
 513 -251 428 -330 277 -330 c 0
 186 -330 37 -312 38 -198 c 0
 39 -112 38 14 38 14 c 2
 38 22 43 40 61 40 c 2
 175 40 l 1
 202 41 223 36 238 52 c 0
 261 75 266 100 247 125 c 0
 242 131 237 134 229 134 c 0
 222 134 220 126 215 120 c 0
 205 108 193 90 170 90 c 0
 149 90 138 108 131 120 c 0
 128 125 124 131 118 134 c 0
 106 139 93 139 83 133 c 1
 104 131 120 113 120 92 c 0
 120 69 102 50 79 50 c 0
 56 50 38 66 38 89 c 1
 37 98 l 1
 38 111 l 1
 45 138 52 176 116 173 c 1
 140 173 155 156 164 142 c 0
 173 127 172 129 182 143 c 0
 191 156 206 174 229 174 c 1
 247 173 270 162 283 144 c 0
 297 125 306 83 288 56 c 1
 322 22 375 24 413 45 c 1
 436 59 459 84 459 140 c 0
 459 171 452 218 401 248 c 0
 379 261 358 270 360 286 c 0
 362 300 373 305 387 305 c 0
79 107 m 0
 70 107 64 101 64 92 c 0
 64 83 70 76 79 76 c 0
 88 76 94 83 94 92 c 0
 94 101 88 107 79 107 c 0
238 310 m 0
 294 310 322 240 283 201 c 1
 278 194 279 191 298 195 c 1
 298 194 299 193 299 193 c 1
 299 193 238 165 234 197 c 0
 233 205 241 210 247 215 c 2
 254 222 l 1
 265 230 268 246 263 258 c 1
 259 271 242 276 230 272 c 0
 220 269 217 256 220 247 c 1
 228 230 228 208 215 193 c 0
 201 177 175 171 155 178 c 0
 135 185 123 207 125 228 c 0
 127 240 135 255 126 265 c 0
 113 279 85 277 73 263 c 0
 69 259 67 254 66 248 c 1
 70 249 73 250 77 250 c 0
 96 250 112 233 112 214 c 0
 112 195 96 179 77 179 c 0
 43 179 31 229 38 262 c 0
 44 290 71 309 99 310 c 1
 102 310 l 2
 122 310 147 303 158 285 c 1
 169 269 165 248 159 230 c 1
 154 220 164 208 174 209 c 0
 184 209 192 221 188 231 c 1
 184 245 176 261 183 276 c 1
 190 297 213 310 238 310 c 0
77 227 m 0
 70 227 64 221 64 214 c 0
 64 207 70 201 77 201 c 0
 84 201 90 207 90 214 c 0
 90 221 84 227 77 227 c 0
EndSplineSet
Validated: 33
Ligature2: "NaLigatures-0 subtable" uni1A2C uni1A60 uni1A2C
Ligature2: "NaLigatures subtable" uni1A2C uni1A60 uni1A2C
LCarets2: 1 0
EndChar

StartChar: uni1A36.uni1A63.lig
Encoding: 57457 57457 153
GlifName: uni1A_36.uni1A_63.lig
Width: 445
VWidth: 0
GlyphClass: 3
Flags: HMW
AnchorPoint: "Bottom_Sara_UU" 308 -45 basechar 0
AnchorPoint: "Bottom_Sara_U" 329 -45 basechar 0
AnchorPoint: "BottomSubjoinedConsonant" 221 -45 basechar 0
AnchorPoint: "BottomWithRightVerticalStem" 400 -45 basechar 0
AnchorPoint: "TopCenteredOnCenter" 218 352 basechar 0
AnchorPoint: "TopRightAlignedMarks" 380 352 basechar 0
AnchorPoint: "TopPositioningForMaiKang" 292 352 basechar 0
AnchorPoint: "TopPositioningForMaiEekMaiKoo" 292 352 basechar 0
LayerCount: 3
Fore
SplineSet
137 300 m 4
 179 300 197 284 218 262 c 5
 237 285 261 302 302 300 c 4
 371 296 412 226 406 169 c 4
 403 144 385 130 365 130 c 4
 342 130 324 148 324 171 c 4
 324 189 342 213 368 210 c 5
 361 237 335 259 302 262 c 4
 268 265 238 244 218 199 c 5
 201 235 177 260 137 260 c 4
 84 260 75 186 75 140 c 6
 75 40 l 5
 98 40 122 40 144 39 c 4
 249 36 304 6 353 -33 c 4
 486 -137 473 -293 473 -293 c 5
 471 -293 l 5
 471 -293 455 -155 348 -74 c 4
 308 -44 259 -4 139 -1 c 5
 36 -0 l 5
 35 140 l 5
 35 141 l 5
 35 141 l 5
 37 235 61 300 137 300 c 4
365 186 m 4
 356 186 350 180 350 171 c 4
 350 162 356 156 365 156 c 4
 374 156 381 162 381 171 c 4
 381 180 374 186 365 186 c 4
EndSplineSet
Validated: 37
Ligature2: "NaLigatures-0 subtable" uni1A36 uni1A63
Ligature2: "NaLigatures subtable" uni1A36 uni1A63
LCarets2: 1 0
EndChar

StartChar: uni25CC
Encoding: 9676 9676 155
GlifName: uni25C_C_
Width: 390
VWidth: 0
GlyphClass: 2
Flags: W
HStem: -10 39<175.007 214.993> 11 34<108.24 141.76 248.24 281.761> 63 34<56.2402 89.7605 300.24 333.76> 130 40<35.0066 73.9942 316.007 354.994> 203 34<56.2402 89.7605 300.24 333.76> 255 34<108.24 141.76 248.24 281.761> 271 39<175.007 214.993>
VStem: 35 39<130.007 169.993> 56 34<63.2395 96.7598 203.24 236.76> 108 34<11.2402 44.7598 255.239 288.76> 175 40<-9.99416 28.9934 271.006 309.993> 248 34<11.2402 44.7598 255.239 288.76> 300 34<63.2395 96.7598 203.24 236.76> 316 39<130.007 169.993>
AnchorPoint: "Bottom_Sara_U" 254 -45 basechar 0
AnchorPoint: "Bottom_Sara_UU" 237 -45 basechar 0
AnchorPoint: "BottomSubjoinedConsonant" 196 -45 basechar 0
AnchorPoint: "BottomWithRightVerticalStem" 349 -45 basechar 0
AnchorPoint: "TopCenteredOnCenter" 196 352 basechar 0
AnchorPoint: "TopPositioningForSara_I" 203 352 basechar 0
AnchorPoint: "TopSara_II" 216 352 basechar 0
AnchorPoint: "TopRightAlignedMarks" 338 352 basechar 0
AnchorPoint: "TopPositioningForMaiKang" 259 352 basechar 0
AnchorPoint: "TopPositioningForMaiEekMaiKoo" 259 352 basechar 0
LayerCount: 3
Fore
SplineSet
215 290 m 0x3a70
 215 279 206 271 195 271 c 0
 184 271 175 279 175 290 c 0
 175 301 184 310 195 310 c 0
 206 310 215 301 215 290 c 0x3a70
282 262 m 0
 277 253 265 250 256 255 c 0
 247 260 243 272 248 281 c 0
 253 290 266 294 275 289 c 0x3c70
 284 284 287 271 282 262 c 0
327 203 m 0
 318 198 305 201 300 210 c 0
 295 219 298 232 307 237 c 0
 316 242 329 239 334 230 c 0x3878
 339 221 336 208 327 203 c 0
336 130 m 0
 325 130 316 139 316 150 c 0
 316 161 325 170 336 170 c 0
 347 170 355 161 355 150 c 0x3874
 355 139 347 130 336 130 c 0
307 63 m 0
 298 68 295 80 300 89 c 0
 305 98 318 102 327 97 c 0
 336 92 339 79 334 70 c 0x3878
 329 61 316 58 307 63 c 0
248 18 m 0
 243 27 247 40 256 45 c 0
 265 50 277 47 282 38 c 0
 287 29 284 16 275 11 c 0x7870
 266 6 253 9 248 18 c 0
175 9 m 0
 175 20 184 29 195 29 c 0
 206 29 215 20 215 9 c 0
 215 -2 206 -10 195 -10 c 0xb870
 184 -10 175 -2 175 9 c 0
108 38 m 0
 113 47 126 50 135 45 c 0
 144 40 147 27 142 18 c 0
 137 9 124 6 115 11 c 0x7870
 106 16 103 29 108 38 c 0
64 97 m 0
 73 102 85 98 90 89 c 0
 95 80 92 68 83 63 c 0
 74 58 61 61 56 70 c 0x38f0
 51 79 55 92 64 97 c 0
55 170 m 0
 66 170 74 161 74 150 c 0
 74 139 66 130 55 130 c 0
 44 130 35 139 35 150 c 0x3970
 35 161 44 170 55 170 c 0
83 237 m 0
 92 232 95 219 90 210 c 0
 85 201 73 198 64 203 c 0
 55 208 51 221 56 230 c 0x38f0
 61 239 74 242 83 237 c 0
142 281 m 0
 147 272 144 260 135 255 c 0
 126 250 113 253 108 262 c 0
 103 271 106 284 115 289 c 0x3c70
 124 294 137 290 142 281 c 0
EndSplineSet
Validated: 1
EndChar

StartChar: uni0000
Encoding: 0 0 156
GlifName: uni0000
Width: 380
VWidth: 0
GlyphClass: 2
Flags: W
HStem: -5 38<135.146 172.854 208.146 245.854> 95 37<36.1465 72.8543 307.146 344.854> 167 38<36.1465 72.8543 307.146 344.854> 267 38<135.146 172.854 208.146 245.854>
VStem: 36 37<95.1465 131.854 167.146 204.854> 135 38<-4.85355 32.8535 267.146 304.854> 208 38<-4.85355 32.8535 267.146 304.854> 307 38<95.1465 131.854 167.146 204.854>
LayerCount: 3
Fore
SplineSet
303 235 m 0
 295 227 284 227 276 235 c 0
 268 243 268 255 276 263 c 0
 284 271 295 271 303 263 c 0
 311 255 311 243 303 235 c 0
331 167 m 0
 321 164 310 171 307 181 c 0
 304 191 311 202 321 205 c 0
 331 208 342 201 345 191 c 0
 348 181 341 170 331 167 c 0
321 95 m 0
 311 98 304 109 307 119 c 0
 310 129 321 135 331 132 c 0
 341 129 348 118 345 108 c 0
 342 98 331 92 321 95 c 0
276 37 m 0
 268 45 268 56 276 64 c 0
 284 72 295 72 303 64 c 0
 311 56 311 45 303 37 c 0
 295 29 284 29 276 37 c 0
208 9 m 0
 205 19 212 30 222 33 c 0
 232 36 243 29 246 19 c 0
 249 9 242 -2 232 -5 c 0
 222 -8 211 -1 208 9 c 0
135 19 m 0
 138 29 149 36 159 33 c 0
 169 30 176 19 173 9 c 0
 170 -1 159 -8 149 -5 c 0
 139 -2 132 9 135 19 c 0
77 64 m 0
 85 72 97 72 105 64 c 0
 113 56 113 45 105 37 c 0
 97 29 85 29 77 37 c 0
 69 45 69 56 77 64 c 0
50 132 m 0
 60 135 70 129 73 119 c 0
 76 109 70 98 60 95 c 0
 50 92 39 98 36 108 c 0
 33 118 40 129 50 132 c 0
60 205 m 0
 70 202 76 191 73 181 c 0
 70 171 60 164 50 167 c 0
 40 170 33 181 36 191 c 0
 39 201 50 208 60 205 c 0
105 263 m 0
 113 255 113 243 105 235 c 0
 97 227 85 227 77 235 c 0
 69 243 69 255 77 263 c 0
 85 271 97 271 105 263 c 0
173 291 m 0
 176 281 169 270 159 267 c 0
 149 264 138 271 135 281 c 0
 132 291 139 302 149 305 c 0
 159 308 170 301 173 291 c 0
246 281 m 0
 243 271 232 264 222 267 c 0
 212 270 205 281 208 291 c 0
 211 301 222 308 232 305 c 0
 242 302 249 291 246 281 c 0
204 164 m 0
 212 156 212 144 204 136 c 0
 196 128 184 128 176 136 c 0
 168 144 168 156 176 164 c 0
 184 172 196 172 204 164 c 0
254 186 m 0
 246 178 234 178 226 186 c 0
 218 194 218 206 226 214 c 0
 234 222 246 222 254 214 c 0
 262 206 262 194 254 186 c 0
155 87 m 0
 147 79 135 79 127 87 c 0
 119 95 119 107 127 115 c 0
 135 123 147 123 155 115 c 0
 163 107 163 95 155 87 c 0
154 214 m 0
 162 206 162 194 154 186 c 0
 146 178 135 178 127 186 c 0
 119 194 119 206 127 214 c 0
 135 222 146 222 154 214 c 0
253 115 m 0
 261 107 261 95 253 87 c 0
 245 79 234 79 226 87 c 0
 218 95 218 107 226 115 c 0
 234 123 245 123 253 115 c 0
EndSplineSet
Validated: 1
EndChar

